<svg xmlns="http://www.w3.org/2000/svg" viewBox="0 0 64 64">
  <defs>
    <style>
      .cls-1 {
        fill: #55adff;
      }

      .cls-2 {
        fill: #ea7760;
      }

      .cls-3 {
        fill: #ffab91;
      }

      .cls-4 {
        fill: #212121;
      }

      .cls-5 {
        fill: #fff362;
      }

      .cls-6 {
        fill: #01314f;
      }

      .cls-7 {
        fill: #00406f;
      }

      .cls-8 {
        fill: #ed8835;
      }
    </style>
  </defs>
  <title>16 Male Avatar</title>
  <g id="Layer_3" data-name="Layer 3">
    <circle class="cls-1" cx="32" cy="32" r="28"/>
  </g>
  <g id="Layer_2" data-name="Layer 2">
    <path class="cls-2" d="M44.94,30A4.0012,4.0012,0,0,0,41,26.0061V26H39v8h2v-.0061A4.0012,4.0012,0,0,0,44.94,30Z"/>
    <path class="cls-2" d="M23,26a4,4,0,0,0,0,8h2V26Z"/>
    <path class="cls-3" d="M52.76,50.8A27.95,27.95,0,0,1,34.8,59.86c-.92.09-1.85.14-2.8.14s-1.88-.05-2.8-.14A27.95,27.95,0,0,1,11.24,50.8a8.0251,8.0251,0,0,1,5.14-3.81l8.27-1.9.88-.2L28,44.32V38.24h8v6.08l2.47.57.88.2,8.27,1.9A8.0251,8.0251,0,0,1,52.76,50.8Z"/>
    <path class="cls-2" d="M36,43.236V38.2433H28V43.236a10.8532,10.8532,0,0,0,8,0Z"/>
    <path class="cls-3" d="M23,26c0-6.0751.8182-11,9-11h0c8.1818,0,9,4.9249,9,11v7a9,9,0,0,1-9,9h0a9,9,0,0,1-9-9Z"/>
    <path class="cls-4" d="M42.12,23.84c-.34-.09-.74-.17-1.18-.24q-.33-.06-.69-.09a8.1858,8.1858,0,0,0-1.01-.06,18.4482,18.4482,0,0,0-4.79.92,17.39,17.39,0,0,1-2.45.2,17.39,17.39,0,0,1-2.45-.2,18.4482,18.4482,0,0,0-4.79-.92,8.1858,8.1858,0,0,0-1.01.06q-.36.03-.69.09c-.44.07-.84.15-1.18.24a10.8689,10.8689,0,0,0-1.33.41v1.77s.15.26.33.59a9.5347,9.5347,0,0,1,.48.96c.19.46.41,2.26,1.64,3.35a3.2594,3.2594,0,0,0,1.33.75,5.8924,5.8924,0,0,0,.67.16,4.5989,4.5989,0,0,0,4.82-1.55,6.654,6.654,0,0,0,1.34-3.78.8454.8454,0,0,1,1.68,0,6.654,6.654,0,0,0,1.34,3.78A4.5989,4.5989,0,0,0,39,31.83a5.8924,5.8924,0,0,0,.67-.16A3.2594,3.2594,0,0,0,41,30.92c1.23-1.09,1.45-2.89,1.64-3.35a8.8588,8.8588,0,0,1,.46-.93c.19-.35.35-.62.35-.62V24.25A10.8689,10.8689,0,0,0,42.12,23.84ZM28.54,30.68a4.4617,4.4617,0,0,1-3.54.58,3.8058,3.8058,0,0,1-.99-.37A2.9207,2.9207,0,0,1,23,30.03a5.3,5.3,0,0,1-.71-1.76,2.584,2.584,0,0,1,.44-2.26,1.01,1.01,0,0,1,.13-.16A1.92,1.92,0,0,1,23,25.7a.5716.5716,0,0,1,.08-.07,5.4091,5.4091,0,0,1,3.2-.82c1.51,0,3.65.81,3.92,1.69A4.7939,4.7939,0,0,1,28.54,30.68Zm13.17-2.41A5.3,5.3,0,0,1,41,30.03a2.9207,2.9207,0,0,1-1.01.86,3.8058,3.8058,0,0,1-.99.37,4.4617,4.4617,0,0,1-3.54-.58A4.7939,4.7939,0,0,1,33.8,26.5c.27-.88,2.41-1.69,3.92-1.69a5.4091,5.4091,0,0,1,3.2.82.5716.5716,0,0,1,.08.07,1.92,1.92,0,0,1,.14.15,1.1511,1.1511,0,0,1,.14.17A2.56,2.56,0,0,1,41.71,28.27Z"/>
    <path class="cls-4" d="M42.1071,14.1785c-1.25-2.25-4.8214-4.3928-10.1071-4.2857-3.3584.0681-5.27,1.2619-5.974,2.7547a3.5507,3.5507,0,0,0-4.1331,1.531c-1.9286,3.3215.3035,10.9286.3035,10.9286L23,26s.8214-3.6786,2.2143-5.0715a11.162,11.162,0,0,0,2.1428-3.2142c.1027-.19.1684-.3646.247-.5447a15.1091,15.1091,0,0,0,3.1816,2.0668,16.0465,16.0465,0,0,0,7.58,1.2326c.134.1558.2715.3108.42.4595C40.1786,22.3214,41,26,41,26l.8036-.8929S44.0357,17.5,42.1071,14.1785Z"/>
    <path class="cls-5" d="M52.76,50.8A27.95,27.95,0,0,1,34.8,59.86c-.92.09-1.85.14-2.8.14s-1.88-.05-2.8-.14A27.95,27.95,0,0,1,11.24,50.8a8.0251,8.0251,0,0,1,5.14-3.81l8.27-1.9.88-.2,4.32,3.34.56.43L32,49.89l1.59-1.23.56-.43,4.32-3.34.88.2,8.27,1.9A8.0251,8.0251,0,0,1,52.76,50.8Z"/>
    <polygon class="cls-6" points="33.75 47.808 32 48.786 30.25 47.808 28.362 49.817 30.464 51.973 32 51.973 33.536 51.973 35.638 49.817 33.75 47.808"/>
    <path class="cls-7" d="M34.8,59.86c-.92.09-1.85.14-2.8.14s-1.88-.05-2.8-.14l1.32-7.89L32,51.95l1.48.02Z"/>
    <polygon class="cls-8" points="28.22 52.041 31 47.747 28 44.321 24.647 45.092 28.22 52.041"/>
    <polygon class="cls-8" points="39.353 45.092 36 44.321 33 47.747 35.78 52.041 39.353 45.092"/>
  </g>
</svg>
