<svg xmlns="http://www.w3.org/2000/svg" viewBox="0 0 64 64">
  <defs>
    <style>
      .cls-1 {
        fill: #55adff;
      }

      .cls-2 {
        fill: #212121;
      }

      .cls-3 {
        fill: #ffab91;
      }

      .cls-4 {
        fill: #1e243a;
      }

      .cls-5 {
        fill: #697f87;
      }

      .cls-6 {
        fill: #cbcfd1;
      }

      .cls-7 {
        fill: #ea7760;
      }

      .cls-8 {
        fill: #90a4ae;
      }

      .cls-9 {
        fill: #343d56;
      }
    </style>
  </defs>
  <title>26 Female Avatar</title>
  <g id="Layer_3" data-name="Layer 3">
    <circle class="cls-1" cx="32" cy="32" r="28"/>
  </g>
  <g id="Layer_2" data-name="Layer 2">
    <path class="cls-2" d="M49.4464,50.3393S47.0357,46.8035,46.0714,38c-.6841-6.2464-1.2175-18.7788-1.9285-20.6072a3.6949,3.6949,0,0,0-.3275-.6391l-.0021-.01C43.181,14.6483,38.3393,9.8393,31.75,10a10.2284,10.2284,0,0,0-8.8412,5.3134,3.1192,3.1192,0,0,0-3.0517,2.0794C19.1461,19.2212,18.6127,31.7536,17.9286,38c-.9643,8.8035-3.375,12.3393-3.375,12.3393Z"/>
    <path class="cls-3" d="M52.96,50.57a28.1445,28.1445,0,0,1-9.97,7.19,29.1427,29.1427,0,0,1-3.82,1.31c-.69.18-1.38.34-2.09.46a27.6886,27.6886,0,0,1-10.16,0c-.71-.12-1.4-.28-2.09-.46a29.1427,29.1427,0,0,1-3.82-1.31,28.1445,28.1445,0,0,1-9.97-7.19,3.9837,3.9837,0,0,1,2.08-1.6l2.49-.82h.01l4.89-1.62,3.71-1.22.18-.06.22-.07.79-.26.6-.2,1.96-.65L28,41.24h8v2.8l1.99.66.75.25.64.21.22.07.18.06,3.7,1.23,4.9,1.62,2.5.83A3.9837,3.9837,0,0,1,52.96,50.57Z"/>
    <path class="cls-4" d="M52.96,50.57a28.1445,28.1445,0,0,1-9.97,7.19,29.1427,29.1427,0,0,1-3.82,1.31c-.69.18-1.38.34-2.09.46a27.6886,27.6886,0,0,1-10.16,0c-.71-.12-1.4-.28-2.09-.46a29.1427,29.1427,0,0,1-3.82-1.31,28.1445,28.1445,0,0,1-9.97-7.19,3.9837,3.9837,0,0,1,2.08-1.6l2.49-.82h.01l4.89-1.62,3.71-1.22-.07,1.9v.01l-.12,3.12-.04,1.15,1.99.7,2.2.77.07.03L32,54.3l3.75-1.31.07-.03,2.2-.77,1.99-.7-.04-1.15-.12-3.16-.07-1.89,3.7,1.23,4.9,1.62,2.5.83A3.9837,3.9837,0,0,1,52.96,50.57Z"/>
    <polygon class="cls-5" points="32 52.891 31 48.747 27 46.801 32 52.891"/>
    <polygon class="cls-5" points="32 52.891 33 48.747 37 46.801 32 52.891"/>
    <path class="cls-6" d="M39.58,57.68c-.12.48-.25.94-.41,1.39-.69.18-1.38.34-2.09.46a27.6886,27.6886,0,0,1-10.16,0c-.71-.12-1.4-.28-2.09-.46-.16-.45-.29-.91-.41-1.39a27.4447,27.4447,0,0,1-.51-7.34c.05-1.18.14-2.26.24-3.12v-.01c.1-1,.21-1.71.25-1.96l.22-.07.79-.26.12-.03.42.53,1.17,1.44,2.82,3.48.02.02L32,52.89l2.04-2.53.02-.02,2.82-3.48,1.17-1.45.42-.52.27.06.64.21.22.07c.04.24.14.95.25,1.95.09.87.19,1.96.24,3.16A27.8618,27.8618,0,0,1,39.58,57.68Z"/>
    <path class="cls-7" d="M44.94,30A4.0012,4.0012,0,0,0,41,26.0061V26H39v8h2v-.0061A4.0012,4.0012,0,0,0,44.94,30Z"/>
    <path class="cls-7" d="M23,26a4,4,0,0,0,0,8h2V26Z"/>
    <path class="cls-7" d="M36,43.236V38.2433H28V43.236a10.8532,10.8532,0,0,0,8,0Z"/>
    <path class="cls-3" d="M23,26c0-6.0751.8182-11,9-11h0c8.1818,0,9,4.9249,9,11v7a9,9,0,0,1-9,9h0a9,9,0,0,1-9-9Z"/>
    <path class="cls-2" d="M39.5179,16.375c-1.6707-1.8044-6.5714-2.483-10.3092-2.0625a5.9034,5.9034,0,0,0-2.9726.692,3.0028,3.0028,0,0,0-1.4551,1.0764c-.1.0967-.201.1884-.2989.2941C21.8036,19.2678,23,26,23,26a24.8413,24.8413,0,0,1,.7939-4.1072A2.8176,2.8176,0,0,1,25,20.4464a5.5074,5.5074,0,0,0,2.6932-1.792A11.01,11.01,0,0,0,32,20.4464a28.9412,28.9412,0,0,0,7,0,2.8176,2.8176,0,0,1,1.2061,1.4464A24.8413,24.8413,0,0,1,41,26S42.1964,19.2678,39.5179,16.375Z"/>
    <polygon class="cls-8" points="28.22 53.041 31 48.747 27.973 44.071 24.625 45.176 28.22 53.041"/>
    <polygon class="cls-8" points="39.381 45.163 36 44.045 33 48.747 35.78 53.041 39.381 45.163"/>
    <path class="cls-9" d="M25.98,52.19a59.2541,59.2541,0,0,0,.94,7.34c-.71-.12-1.4-.28-2.09-.46a29.1427,29.1427,0,0,1-3.82-1.31l-.89-.91L21.6,53l-3.09-2.63.02-.03,1.98-3.81,3.71-1.22.18-.06.22-.07.79-.26.6-.2c-.02.23-.04.46-.06.7-.05.79-.08,1.62-.08,2.48-.01.8,0,1.61.02,2.44C25.91,50.95,25.95,51.57,25.98,52.19Z"/>
    <path class="cls-9" d="M42.4,53l1.48,3.85-.89.91a29.1427,29.1427,0,0,1-3.82,1.31c-.69.18-1.38.34-2.09.46a59.2541,59.2541,0,0,0,.94-7.34c.03-.62.07-1.24.09-1.85.02-.83.03-1.65.02-2.45,0-.86-.03-1.69-.08-2.48-.02-.24-.04-.48-.06-.71l.75.25.64.21.22.07.18.06,3.7,1.23,1.99,3.82.02.03Z"/>
  </g>
</svg>
