<?xml version="1.0" encoding="UTF-8"?>
<svg id="Capa_1" data-name="Capa 1" xmlns="http://www.w3.org/2000/svg" viewBox="0 0 192.71 171.99">
  <defs>
    <style>
      .cls-1 {
        fill: #e0dfe6;
      }

      .cls-2 {
        fill: #0c8bcc;
      }

      .cls-3 {
        fill: #282828;
      }
    </style>
  </defs>
  <path class="cls-2" d="M190.65,71.82c-.35-1.36-1.41-1.97-2.54-2.01-.22-2.47-.64-4.87-1.21-6.94-1.54-5.59-9.77-3.93-10.26,1.29-.4,4.25,.41,8.53,.03,12.79-.07,.73-.08,1.21-.13,1.53-.44-1.89-.68-3.99-.88-4.89-.7-3.19-.92-6.49-1.99-9.59-.86-2.49-4.77-2.61-5.57,0-1.48,4.83-.81,10.23-.16,15.14,.03,.22,.06,.45,.08,.67-.48,.05-.96,.1-1.43,.15-7.92,.77-16.52,2.69-24.48,2.02-2.87-.24-3.3,3.35-1.35,4.62,4.38,2.85,10.99,1.88,16.06,1.87,4.7,0,9.46,.12,14.19,.07,.58,.45,1.27,.82,2.13,1.09,1.72,.54,3.74-.12,5-1.36,2.49-.26,4.74-.94,6.44-2.31-.11,.49-.23,.98-.36,1.46-.25,.03-.51,.08-.77,.15-2.02,.5-4,1.15-5.99,1.76-3.59,1.11-4.6,4.28-3.2,7.32,.12,.26,.2,.52,.27,.78-.59-1.32-1.83-2.36-3.96-2.74-3.9-.7-8.32,.39-12.34,.03-5.44-.5-10.66-2.07-16.12-2.51-1.44-.12-2.95-.22-4.48-.31,.34-.14,.66-.32,.95-.59,.58-.54,1.01-1.42,.97-2.19-.05-1.05-.55-1.87-1.32-2.41-.02-8.04-.11-16.07-.21-24.11-.08-6.51-.65-13.51-6.81-17.67-2.52-1.71-5.59-2.72-8.73-2.8,.8-.63,1.94-2.25,2.42-2.98,2.94-4.5,2.99-10.83-.12-15.22-.72-1.02-2.63-.69-2.59,.65,.13,3.89-.5,7.23-3.38,10.2-.42,.43-.88,.83-1.35,1.21,1-2.92,1.99-5.84,2.99-8.76,.37-1.07-.11-1.85-.87-2.25,.07-1.45-.64-2.88-2.48-3.54,.86-.09,1.72-.22,2.58-.41,2.98-.68,3.47-3.49,2.49-5.54,.12-4.29-2.28-8.7-5.87-11.32-1.58-1.15-3.73-1.43-5.27,0-1.43,1.33-1.42,3.56,0,4.9,1.69,1.59,2.33,3.41,2.39,5.43-6.8,.96-14.29-.94-20.09,3.25-1.06,.76-.2,2.7,1.14,2.55,2.69-.31,5.36-.16,8.01,.13-.21,.02-.41,.04-.62,.07-3.21,.42-1.93,4.48,.7,4.8,3.75,.45,7.35,1.59,10.64,3.29,.17,.09,.35,.17,.52,.23-1.24,1.53-2.47,3.06-3.71,4.59-1.46,1.82-.06,4.52,1.92,5.3,.68,.27,1.37,.33,2.03,.25-.33,.36-.65,.74-.91,1.17-.22,.36-.4,.73-.56,1.11-.02-.02-.04-.05-.06-.07-1.1-1.49-3.63-1.76-4.67,0-1.02,1.74-1.09,3.26-.7,5.18,.34,1.68,1.07,3.65,2.44,4.81,2.27,1.92,5.25,1.06,6.52-.84,.43,.2,.89,.37,1.38,.49,3.37,.82,6.82-.47,9.11,2.89,2,2.93,1.24,7.61,1.22,10.92,0,.58,0,1.15-.01,1.73,2.1,1.03,2.79,3.64,2.34,5.62-.2,.87-.59,1.55-.86,2.39-.32,1.01-.87,1.78-1.55,2.35-.02,3.77-.04,7.54-.03,11.31,0,1.56,.65,2.73,1.62,3.53-5.55-.07-11.15,.19-16.1,1.17-7.75,1.53-5.16,9.22-3.5,14.36,.74,4.17,8.42,3.91,8.22-.77-.02-.43-.06-2.83-.22-4.69,.47,0,.93,.02,1.4,.03,5.76,.12,11.52,.33,17.28,.33,5.05,0,9.92-.42,14.92-1.04,3.11-.38,6.13-.63,9.26-.46,1.51,.09,3,.27,4.49,.49-1.72,2.74,.81,6.03,3.7,6.35-.35,.5-.51,1.14-.32,1.85,.79,3.07,1.24,6,1.43,8.88-2.38-6.47-5.94-12.25-13.49-14.82-2.23-.76-4.15,2.32-2.35,3.75,5.85,4.63,7.31,11.97,8.03,19.04-8.54,1.17-17.06,2.45-25.64,3.42-9.46,1.08-19.31,1.35-28.46,4.01-1.67,.48-1.81,2.85,0,3.27,.05,.01,.11,.02,.16,.03-16.2-.12-32.4-.27-48.6-.03,.81-1.74,.36-3.89-1.03-5.53-1.59-1.87-2.26-4.52-3.45-6.69-1.35-2.45-4.94-1.5-5.81,.71-1.33,3.37-.47,7.36,.47,10.74,.07,.25,.17,.49,.28,.71-.96,0-1.91,.04-2.84,.12,.06-.07,.13-.12,.19-.19,.88-.95,1.33-2.23,1.05-3.61,.78-7.18-2.04-15.57-7.3-20.7-1.79-1.75-4.3,.14-3.97,2.15,.44,2.69,.99,5.33,1.22,8.04-6.25-3.81-14-6.11-20.38-5.76-1.66,.09-2.48,2.21-.88,3.04,4.37,2.28,8.89,4.22,12.87,7.11,1.72,1.25,3.2,2.67,4.62,4.13-2.3-.54-4.88,.09-6.31,2.46-1.42,2.37-2.09,6.85-5.51,7.47-5.11,.92-8.91-4.56-10.31-8.22-.45-1.19-2.44-1.06-2.44,.31,0,5.94,1.8,12.1,7.07,15.15-.02,.18,0,.36,.07,.53,2.31,5.27,9.23,6.98,14.9,6.22,3.59-.48,7.12-2.01,9.78-4.32,1.01-.87,1.68-2.05,2.67-2.91,1.9-1.65,3.49-1.06,6.36-.98,23.09,.69,46.18,.74,69.28,.93,1.12,0,2.06-.23,2.85-.63,5.93,7.21,16.34,10.68,25.55,7.12,4.49-1.73,10.68-4.06,14.04-7.45,1.66-.75,1.91-1.16,.76-1.24-.9-.18-.81-.17,.28,.03,1.48-.02,2.65,.39,4.21,.25,2.97-.27,5.01-1.36,7.24-3.12,.84-.66,1.32-1.49,1.52-2.37,.72-.55,1.3-1.35,1.63-2.45,2.63-8.89,1.04-18.93-3.22-27.28,4.82-3.02,8.31-6.99,9.21-11.94,.83-.1,1.65-.19,2.48-.32,.09-.01,.17-.04,.26-.05,2.31,.29,4.7-.62,5.13-3.21,1.33-8.02,.61-15.3-1.39-23.16ZM37.85,140.46c.46-.91,.85-1.84,1.14-2.78,.05-.17,.07-.32,.1-.49,.58,.46,1.28,.8,2.02,1.02-1.18,.54-2.28,1.28-3.26,2.25Zm98.25,1.19c-3.08-.06-5.91-1.96-8.95-1.69-.55,.05-1.14,.34-1.27,.9-.12,.54-.14,1.05-.09,1.54-.03-.01-.06-.03-.09-.04,.02-1.49-.53-2.99-1.65-4.05,4.9-.02,9.82-.36,14.6-.66,1.95-.12,3.9-.26,5.86-.41-2.16,2.45-4.79,4.48-8.4,4.41Zm23.42-5.78c-1.5,.84-2.35,2.38-3.57,3.51-1.01,.94-2.15,1.72-3.33,2.45,.91-1.9-.01-3.91-1.61-5.13,2.97-.28,5.93-.62,8.88-.99-.12,.05-.26,.1-.37,.16Z"/>
  <path class="cls-1" d="M99.4,80.7c-2.78-.89-3.88-3.14-3.72-5.28-1.01,.01-2.03-.04-3.06-.19-2.42-.35-4.21,2.62-1.77,3.91,4.14,2.2,8.27,2.72,12.36,2.28-1.26-.08-2.53-.31-3.81-.72Z"/>
  <path class="cls-1" d="M85.36,71.34c2.25-.03,4.5-.13,6.76-.31,1.58-.12,2.67-.78,3.31-1.66-3.34,.74-6.7,1.35-10.07,1.97Z"/>
  <g>
    <path class="cls-3" d="M24.08,150.29h-.1c-10.04-.05-18.97-8.11-19.1-17.25-.08-5.61,2.83-11.03,7.79-14.49,.77-.53,1.85-.39,2.42,.32,.57,.71,.42,1.72-.34,2.25-4.08,2.85-6.48,7.29-6.41,11.88,.11,7.46,7.43,14.03,15.66,14.08h.09c7.05,0,13.51-4.64,15.4-11.05,.25-.86,1.2-1.36,2.12-1.13,.92,.23,1.46,1.12,1.21,1.98-2.29,7.79-10.16,13.42-18.74,13.42Z"/>
    <path class="cls-3" d="M24.16,139.13c-.05,0-.1,0-.15,0-2.13-.04-4.13-.82-5.61-2.22-1.48-1.4-2.28-3.23-2.24-5.16,.06-3.13,2.79-5.99,5.21-6.6,.46-.12,.87-.08,1.1-.06,.47,.04,.95,.04,1.42,.05,.26,0,.52,0,.78,.02,.96,.03,1.82,.11,2.62,.27,3.69,.71,5.07,4.24,5.1,6.44,.02,1.75-.87,3.63-2.39,5.04-1.56,1.44-3.62,2.23-5.83,2.23Zm-2.01-10.84c-1.01,.34-2.5,1.92-2.53,3.52-.02,1.06,.42,2.07,1.25,2.84,.84,.79,1.98,1.24,3.21,1.26,1.72,.04,2.83-.69,3.48-1.29,1.02-.95,1.38-2.06,1.37-2.72-.01-.91-.62-3-2.34-3.33-.61-.12-1.27-.18-2.03-.21-.24,0-.49-.01-.73-.01-.56,0-1.11-.02-1.68-.06Z"/>
    <path class="cls-3" d="M46.39,141.41c-1.99,0-4.15-1.84-8.07-5.19-6.87-5.87-18.37-15.69-32.31-15.69-1.35,0-2.7,.09-4.03,.28-.65,.08-1.28-.16-1.66-.65-.38-.49-.43-1.14-.13-1.67,5.56-10.02,15.54-15.54,28.09-15.54,8.04,0,23.8,8.53,23.8,28.25,0,6.15,0,10.22-5.69,10.22ZM6.02,117.32c15.29,0,27.41,10.35,34.65,16.54,2.19,1.87,4.92,4.2,5.78,4.34,1.7,0,2.18,0,2.18-7.01,0-17.83-14.35-25.03-20.34-25.03-10.04,0-18.22,3.94-23.36,11.18,.37-.01,.73-.02,1.1-.02Z"/>
    <path class="cls-3" d="M106.01,140.52c-1.56,0-2.2-1.28-2.5-1.89-.04-.09-.1-.21-.16-.31-4.38,0-8.75-.03-13.13-.06-4.49-.03-8.97-.05-13.46-.05-10.84,0-19.12,.17-26.85,.55-.99,.02-1.77-.64-1.82-1.52-.05-.89,.68-1.64,1.64-1.69,7.8-.38,16.13-.55,27.04-.55,4.49,0,8.99,.03,13.48,.06,4.49,.03,8.97,.05,13.46,.05,1.84,0,2.57,1.43,2.93,2.14,12.49-1,25.11-1.12,37.33-1.23,9.32-.09,18.93-.18,28.4-.66-.67-24.34-9.1-33.87-29.74-33.87-16.77,0-31.75,11.12-34.86,25.87-.18,.87-1.09,1.44-2.03,1.27-.94-.17-1.55-1.02-1.36-1.89,3.42-16.23,19.87-28.46,38.26-28.46,28.8,0,32.96,19.5,33.23,38.58,.01,.86-.7,1.57-1.63,1.63-10.09,.57-20.33,.66-30.23,.75-12.4,.12-25.22,.23-37.78,1.28-.05,0-.16,0-.21,0Z"/>
    <path class="cls-3" d="M110.94,117.42c-.9,0-1.66-.65-1.72-1.49-.28-3.74-1.55-6.38-2.78-8.94-1.15-2.4-2.24-4.67-2.24-7.43,0-3.66,3.04-8.02,17.51-8.02,2.76,0,4.9,.14,7.17,.29,2.5,.17,5.09,.34,8.82,.34,4.59,0,9.26-.25,13.77-.49,4.56-.25,9.28-.5,13.96-.5h1.19c4.6-.03,8.21-.03,10.36,1.96,1.07,.99,1.61,2.37,1.61,4.09,0,2.73-2.25,5.08-4.42,7.36-1.67,1.75-3.4,3.56-3.4,4.91,0,.08,0,.15,.03,.22,.23,.86-.33,1.73-1.26,1.95-.93,.21-1.87-.31-2.1-1.17-.09-.32-.13-.66-.13-1,0-2.57,2.17-4.85,4.27-7.05,1.74-1.83,3.55-3.72,3.55-5.23,0-1.27-.45-1.68-.59-1.81-1.13-1.05-4.43-1.04-7.91-1.03h-1.2c-4.58,0-9.25,.25-13.76,.5-4.56,.24-9.28,.5-13.97,.5-3.86,0-6.51-.18-9.07-.35-2.2-.15-4.28-.28-6.92-.28-5.25,0-14.05,.62-14.05,4.8,0,2.07,.9,3.95,1.94,6.12,1.28,2.68,2.74,5.71,3.07,10.02,.07,.89-.65,1.65-1.6,1.72-.04,0-.08,0-.12,0Z"/>
    <path class="cls-3" d="M129.63,113.53c-.92,0-1.69-.67-1.73-1.54-.04-.89,.7-1.64,1.65-1.68,6.44-.26,13.1-.26,19.55-.26,.96,0,1.73,.72,1.73,1.61s-.77,1.61-1.73,1.61c-6.41,0-13.04,0-19.4,.26-.03,0-.05,0-.08,0Z"/>
    <path class="cls-3" d="M138.88,120.3c-1.25,0-2.51-.01-3.77-.02-1.26-.01-2.53-.02-3.81-.02-.95,0-1.73-.72-1.73-1.61s.77-1.61,1.73-1.61c1.29,0,2.57,.01,3.85,.02,1.25,.01,2.49,.02,3.73,.02,3.27,0,7.15-.06,11.11-.55,.95-.12,1.82,.51,1.94,1.39,.12,.88-.54,1.69-1.49,1.8-4.16,.5-8.18,.57-11.56,.57Z"/>
    <path class="cls-3" d="M134.76,127.11c-1.96,0-4.05-.04-6.59-.13-.95-.03-1.7-.78-1.66-1.67,.04-.89,.85-1.59,1.79-1.55,2.5,.09,4.55,.13,6.46,.13,6.08,0,10.95-.44,15.34-1.38,.94-.19,1.86,.34,2.07,1.21,.21,.86-.37,1.73-1.3,1.93-4.65,1-9.77,1.46-16.12,1.46Z"/>
    <path class="cls-3" d="M138.84,151.33c-8.17,0-17.41-4.64-19.26-13.5-.18-.87,.43-1.72,1.37-1.88,.94-.17,1.84,.4,2.03,1.27,1.49,7.15,9.11,10.89,15.86,10.89,7.61,0,12.85-3.32,15.56-9.88,.34-.83,1.35-1.24,2.24-.92,.89,.32,1.34,1.25,.99,2.08-3.23,7.81-9.73,11.94-18.79,11.94Z"/>
    <path class="cls-3" d="M138.92,142.49c-2.41,0-4.31-1.17-5.07-3.12-.33-.83,.14-1.76,1.04-2.06,.9-.3,1.89,.13,2.22,.96,.32,.83,1.17,1,1.82,1,1,0,2.07-.43,2.68-1.07,.63-.67,1.72-.74,2.44-.15,.72,.58,.79,1.6,.16,2.27-1.26,1.34-3.28,2.17-5.28,2.17Z"/>
    <path class="cls-3" d="M27.28,106.17c-.3,0-.61-.07-.88-.23-.82-.45-1.09-1.44-.6-2.2,.61-.96,1.25-1.91,1.88-2.85,1.13-1.69,2.3-3.44,3.33-5.24,1.72-2.99,3.89-7.22,6.29-12.23,.39-.81,1.41-1.18,2.28-.82,.87,.36,1.27,1.31,.88,2.12-2.43,5.08-4.64,9.38-6.4,12.44-1.09,1.89-2.29,3.68-3.45,5.42-.62,.93-1.24,1.86-1.85,2.8-.32,.51-.9,.79-1.49,.79Z"/>
    <path class="cls-3" d="M44.78,72.7c-.21,0-.43-.04-.64-.12-.89-.33-1.32-1.27-.96-2.09,2.52-5.86,3.31-8.2,3.37-8.61,0-.03-.01-.06-.02-.09-.25,0-.55,.06-.86,.12-.52,.09-1.11,.2-1.75,.2-3.47,0-6.68-2.48-9.81-7.57-.47-.77-.19-1.75,.64-2.19,.83-.44,1.89-.17,2.36,.6,3.02,4.92,5.37,5.95,6.81,5.95,.32,0,.7-.07,1.1-.14,.49-.09,1-.18,1.54-.18,2,0,3.44,1.43,3.44,3.41,0,.36,0,1.31-3.61,9.71-.27,.63-.92,1.01-1.61,1.01Z"/>
    <path class="cls-3" d="M80.11,80.43c-.33,0-.66-.09-.96-.27-.6-.37-1.21-.8-1.87-1.32-.73-.57-.82-1.59-.21-2.27,.62-.68,1.71-.76,2.44-.19,.56,.44,1.07,.8,1.56,1.1,.8,.49,1.01,1.49,.48,2.23-.33,.47-.88,.72-1.44,.72Z"/>
    <path class="cls-3" d="M79.91,131.95c-1.27,0-15.44-.88-18.68-1.63-.55-.13-1-.5-1.2-.98-.21-.52-.49-1.18-.82-1.96-4.6-11-9.3-22.94-9.3-28.03,0-.32,2.85-31.47,15.39-31.47,2.1,0,4.16,.64,6.28,1.97,.79,.5,1,1.49,.47,2.23-.53,.74-1.61,.93-2.4,.44-1.55-.97-2.94-1.42-4.35-1.42-7.73,0-11.81,24.4-11.93,28.27,0,5.15,6.59,20.91,9.07,26.84,.17,.42,.33,.8,.48,1.15,3.99,.61,15.79,1.38,16.99,1.38,5.49,0,11.56-.67,16.91-1.26,4-.44,7.46-.82,9.84-.82,.96,0,1.73,.72,1.73,1.61s-.77,1.61-1.73,1.61c-2.18,0-5.54,.37-9.43,.8-5.45,.6-11.63,1.28-17.32,1.28Z"/>
    <path class="cls-3" d="M63.69,129.56s-.05,0-.08,0c-.95-.04-1.69-.79-1.65-1.68,.3-6.22,3.7-8.18,6.42-9.76,2.62-1.52,4.52-2.62,4.52-7.18,0-19.05,13.63-24.11,19.45-26.27,.65-.24,1.43-.53,1.75-.7,.17-.26,.24-.57,.24-.98,0-.65-.2-1.44-.41-2.28-.26-1.02-.53-2.07-.53-3.17,0-.89,.77-1.61,1.73-1.61s1.73,.72,1.73,1.61c0,.73,.21,1.56,.43,2.43,.25,.98,.51,1.99,.51,3.02,0,1.15-.34,2.16-1,3-.54,.69-1.47,1.03-3.17,1.66-5.61,2.08-17.27,6.41-17.27,23.28,0,6.35-3.41,8.33-6.15,9.91-2.56,1.48-4.58,2.65-4.8,7.18-.04,.86-.81,1.53-1.73,1.53Z"/>
    <path class="cls-3" d="M78.44,130.6c-.05,0-.11,0-.16,0-.95-.08-1.65-.86-1.57-1.75,.59-6.03,4-7.89,6.75-9.38,2.54-1.38,4.21-2.29,4.21-6.17,0-14.51,10.65-22.5,15.81-24.1,.91-.28,1.89,.17,2.19,1.02,.3,.84-.19,1.75-1.09,2.03-4.39,1.36-13.45,8.29-13.45,21.05,0,5.72-3.28,7.51-5.92,8.95-2.48,1.35-4.62,2.51-5.05,6.9-.08,.84-.84,1.46-1.72,1.46Z"/>
    <path class="cls-3" d="M94.58,129.82c-.06,0-.12,0-.19,0-.95-.09-1.64-.89-1.53-1.77,1.99-17.26,3.58-18.97,12.85-26.35,.73-.58,1.82-.5,2.44,.17,.62,.67,.54,1.69-.19,2.27-8.65,6.89-9.76,7.77-11.66,24.26-.09,.82-.84,1.44-1.72,1.44Z"/>
    <path class="cls-3" d="M122.95,94.65c-.59,0-1.16-.28-1.48-.78-.49-.76-.23-1.75,.59-2.21,4.6-2.57,6.52-5.86,6.52-19.61,0-21.41-6.12-22.09-11.03-22.63-2.93-.32-6.93-.77-6.93-6.48,0-3.45,2.63-5.77,5.17-8.01,2.29-2.02,4.46-3.93,4.46-6.45,0-1.64-.67-1.64-1.37-1.64-.67,0-1.41,.31-2.19,.63-.3,.12-.59,.25-.89,.36-.88,.33-1.89-.07-2.25-.9-.35-.82,.08-1.76,.96-2.09,.25-.09,.51-.2,.76-.31,1.03-.43,2.2-.91,3.6-.91,3.03,0,4.83,1.82,4.83,4.86,0,3.89-2.94,6.49-5.53,8.78-2.2,1.94-4.1,3.62-4.1,5.68,0,2.86,.82,2.95,3.88,3.29,5.61,.62,14.08,1.56,14.08,25.82,0,13.8-1.84,18.82-8.2,22.37-.28,.16-.59,.23-.89,.23Z"/>
    <path class="cls-3" d="M120.73,26.12c-.6,0-1.18-.29-1.5-.81-.42-.68-.62-1.4-.62-2.22,0-.71,.16-1.37,.3-1.95,.11-.46,.21-.89,.21-1.25,0-.14-.02-.26-.05-.38-.26-.85,.27-1.74,1.19-1.99,.91-.24,1.87,.25,2.14,1.11,.12,.4,.18,.82,.18,1.26,0,.71-.16,1.37-.3,1.95-.11,.46-.21,.89-.21,1.25,0,.25,.05,.44,.16,.62,.47,.77,.19,1.75-.64,2.19-.27,.14-.57,.21-.86,.21Z"/>
    <path class="cls-3" d="M89.51,22.08c-.44,0-.87-.16-1.2-.45-.36-.32-.55-.76-.53-1.22,.41-11.16,9.37-19.91,20.39-19.91s16.26,6.05,18.01,19.05c.06,.46-.09,.92-.42,1.26-.33,.35-.8,.54-1.3,.54h-7.75c-8.2,0-17.73,.05-27.08,.71-.04,0-.09,0-.13,0ZM108.17,3.73c-8.56,0-15.62,6.46-16.78,15.01,8.81-.54,17.65-.59,25.33-.59h5.75c-2.22-12.66-8.44-14.42-14.3-14.42Z"/>
    <path class="cls-3" d="M104.08,44.51c-8.51,0-13.8-6.25-13.8-16.31,0-.89,.02-1.79,.04-2.68,.02-.86,.04-1.71,.04-2.55,0-.5,0-1-.03-1.49-.04-.89,.71-1.63,1.66-1.67,1.01-.02,1.76,.66,1.8,1.54,.02,.53,.03,1.07,.03,1.62,0,.87-.02,1.74-.04,2.63-.02,.87-.04,1.74-.04,2.6,0,3.07,.75,13.09,10.34,13.09,.67,0,1.23-.09,1.71-.29,.88-.35,1.9,.03,2.27,.84,.38,.82-.03,1.76-.91,2.11-.92,.37-1.93,.55-3.08,.55Z"/>
    <path class="cls-3" d="M84.94,63.12c-28.59,0-32.95-2.37-36.46-4.27-1.37-.74-2.45-1.33-5.17-1.68-.19,.21-.43,.78-.43,1.23,0,.89-.77,1.61-1.73,1.61s-1.73-.72-1.73-1.61c0-1.87,1.31-4.46,3.77-4.46,.14,0,.27,0,.41,.02,3.53,.44,5.1,1.29,6.62,2.12,2.98,1.61,7.05,3.83,34.57,3.83,.93-.25,5.27-2.11,9.61-4.79,4.9-3.01,7.82-5.89,7.82-7.69,0-.38-.05-.79-.11-1.23-.07-.51-.14-1.04-.14-1.61,0-.3,.02-.6,.07-.9,.14-.88,1.02-1.49,1.96-1.36,.95,.13,1.6,.94,1.46,1.82-.02,.15-.03,.3-.03,.44,0,.38,.05,.79,.11,1.22,.07,.51,.14,1.05,.14,1.62,0,7.21-18.99,15.69-20.74,15.69Z"/>
    <path class="cls-3" d="M76.86,83.41c-.95,0-1.64-.3-2.09-.5-.11-.05-.21-.1-.32-.13-4.45,0-8.39-3.16-8.39-6.76,0-4.09,2.5-6.74,6.37-6.74,1.52,0,2.97,.24,4.37,.48,1.31,.22,2.56,.43,3.77,.43,13.5,0,30.94-10.87,35.97-14.2,.34-.23,.67-.44,1.23-.44,3.63,0,4.98,4.32,4.98,7.05,0,11.81-31.04,16.89-35.97,16.89-1.37,0-2.67-.23-3.93-.46-.91-.16-1.78-.32-2.63-.38-.47,0-1.02,.35-1.02,.53,0,.21,.04,.42,.08,.64,.05,.33,.12,.7,.12,1.09,0,1.86-1.36,2.52-2.52,2.52Zm-4.43-10.91c-2.4,0-2.91,1.92-2.91,3.52,0,1.83,2.42,3.55,4.98,3.55,.5,0,.92,.11,1.27,.24-.03-.2-.04-.42-.04-.64,0-2.34,2.56-3.92,4.77-3.73,1.05,.08,2.04,.26,3.01,.43,1.15,.21,2.24,.4,3.27,.4,6.8,0,32.51-5.82,32.51-13.68,0-1.42-.61-3.17-1.19-3.69-5.77,3.78-23.39,14.49-37.51,14.49-1.53,0-2.98-.24-4.39-.48-1.31-.22-2.55-.43-3.76-.43Z"/>
    <path class="cls-3" d="M44.16,87.69c-.08,0-.15,0-.23,0-5.87-.12-9.08-4.72-9.11-9-.03-3.94,2.57-7.45,6.47-8.74,.92-.31,1.83-.46,2.8-.47,2.55-.02,5.02,.91,6.87,2.67,1.95,1.86,3.01,4.41,2.91,6.99-.17,4.15-3.92,8.55-9.7,8.55Zm.07-15s-.06,0-.09,0c-.58,0-1.13,.1-1.68,.29-2.56,.85-4.2,3.08-4.18,5.69,.02,2.76,2.04,5.73,5.73,5.8,.05,0,.1,0,.15,0,3.73,0,6.14-2.81,6.25-5.46,.07-1.71-.63-3.39-1.92-4.62-1.16-1.1-2.67-1.71-4.26-1.71Z"/>
    <path class="cls-3" d="M108.29,57.06c-3.26,0-6.08-1.29-7.75-3.55-.54-.73-.34-1.73,.45-2.23,.79-.5,1.86-.31,2.4,.42,1.38,1.87,3.65,2.15,4.89,2.15,3.66,0,6.09-1.69,7.65-5.33,.35-.82,1.36-1.22,2.25-.89,.89,.33,1.32,1.27,.96,2.09-2.1,4.88-5.75,7.35-10.86,7.35Z"/>
    <path class="cls-3" d="M141.01,90.1c-.94,0-1.71-.7-1.73-1.58-.07-4.12-.33-8.36-.59-12.46-.3-4.9-.62-9.96-.62-14.91,0-.89,.01-1.78,.03-2.66,.02-.88,.79-1.57,1.73-1.57,.03,0,1.9,.04,1.9,.04,1.81,.04,3.63,.07,5.45,.07,.01,0,10.1-.48,37.7-1.11,.91-.01,1.7,.63,1.77,1.49,.4,4.98,.57,10.05,.72,14.95,.16,5.08,.33,10.34,.77,15.46,.04,.45-.13,.89-.46,1.22-.33,.33-.78,.51-1.26,.51-9.2-.09-18.62,.1-27.72,.28-5.8,.11-11.8,.23-17.69,.28Zm.53-29.94c0,.33,0,.66,0,.99,0,4.86,.31,9.88,.61,14.73,.22,3.61,.45,7.33,.56,11,5.31-.05,10.69-.16,15.92-.26,8.51-.17,17.31-.34,25.93-.3-.34-4.63-.49-9.32-.64-13.87-.14-4.36-.28-8.86-.6-13.28-26.29,.61-35.95,1.07-36.05,1.07-1.88,.02-3.77-.03-5.61-.07h-.12Z"/>
    <path class="cls-3" d="M158.52,89.02c-.89,0-1.64-.63-1.72-1.47-.81-8.57-1.19-17.46-1.19-27.97,0-.89,.77-1.61,1.73-1.61s1.73,.72,1.73,1.61c0,10.42,.37,19.22,1.18,27.69,.08,.88-.62,1.66-1.57,1.74-.05,0-.1,0-.15,0Z"/>
    <path class="cls-3" d="M167.41,87.88c-.88,0-1.64-.63-1.72-1.46-.28-2.88-.41-5.96-.41-9.7,0-2.21,.04-4.42,.09-6.63,.04-2.2,.09-4.4,.09-6.61,0-1.37-.02-2.75-.06-4.14-.03-.89,.72-1.63,1.68-1.65,.93-.05,1.75,.67,1.78,1.56,.05,1.42,.06,2.83,.06,4.23,0,2.23-.04,4.45-.09,6.67-.05,2.19-.09,4.37-.09,6.57,0,3.64,.13,6.63,.4,9.41,.09,.88-.61,1.67-1.57,1.75-.05,0-.11,0-.16,0Z"/>
    <path class="cls-3" d="M68.16,70.98c-.35,0-.69-.1-.99-.29-.47-.19-2.2-.67-3.73-1.09-4.37-1.2-10.98-3.01-14.86-5.04-.83-.44-1.13-1.42-.66-2.19,.47-.77,1.52-1.05,2.36-.61,3.55,1.85,9.93,3.6,14.15,4.76,3.87,1.06,4.46,1.24,4.96,1.71,.68,.63,.68,1.65,0,2.27-.34,.31-.78,.47-1.22,.47Zm-.93-.26h0Zm-.29-.21h0s0,0,0,0Zm0,0s0,0,0,0c0,0,0,0,0,0Z"/>
    <path class="cls-3" d="M105.92,85.6c-3.43,0-6.72-.35-9.76-1.04-.93-.21-1.5-1.08-1.27-1.94,.23-.86,1.16-1.39,2.09-1.18,2.78,.63,5.79,.95,8.95,.95,8.15,0,16.27-2.05,23.13-4.06,.91-.27,1.88,.2,2.17,1.05,.29,.85-.22,1.75-1.13,2.01-7.12,2.08-15.56,4.21-24.17,4.21Z"/>
  </g>
</svg>