<?xml version="1.0" encoding="UTF-8"?>
<svg id="Capa_1" data-name="Capa 1" xmlns="http://www.w3.org/2000/svg" viewBox="0 0 180.19 166.83">
  <defs>
    <style>
      .cls-1 {
        fill: #e0dfe6;
      }

      .cls-2 {
        fill: #088bcc;
      }

      .cls-3 {
        fill: #282828;
      }
    </style>
  </defs>
  <path class="cls-2" d="M64.95,53.63c-.76-3.83-2.97-9.82-7.2-10.79-2.97-.68-5.08,.57-5.67,3.63-.82,4.28,5.27,8.66,2.65,12.72-3.2,4.96-18.04-.95-16.63,8.23,.04,.25,.32,.42,.56,.42,1.93,0,4.16,1.15,6.02,1.59,2.27,.53,4.54,.89,6.87,.77,4.12-.22,8.31-1.72,11-4.97,2.67-3.23,3.19-7.58,2.4-11.59Z"/>
  <path class="cls-1" d="M54.47,28.74c-2.12-1.62-4.85-1.39-7.4-1.5-2.38-.1-4.84-.16-7.08,.77-1.53,.64-2.76,2.87-1.11,4.2,1.97,1.59,4.18,2.36,6.62,2.97,2.61,.65,5.41,1.73,8.03,.7,3.32-1.29,3.68-5.04,.93-7.14Z"/>
  <path class="cls-2" d="M100.2,47.73c-.3-1.15-.59-2.29-.92-3.39,.38-1.68,.38-3.51,.44-5.31,.13-4.01,.08-8,.4-12.01,.2-2.46-3.4-3.27-4.59-1.53-1.79-1.72-4.95-1.28-6.93,1.32-1.57,2.07-2.36,4.07-4.74,5.46-2.63,1.54-5.67,1.81-8.63,1.17-1.98-.43-3.92,2.14-2.14,3.67,3.92,3.36,9.06,4.65,14.08,3.02,.23-.07,.46-.16,.69-.25-.41,1.94-.25,3.86,.19,6.14,.42,2.22,.77,5.24,1.55,7.72-1.31,.35-2.62,.7-3.93,1.06-3.48,.96-6.91,2.08-10.34,3.22-1.41,.47-2.1,2.82-.46,3.54,4.38,1.93,8.87,3.03,13.69,2.86,3.98-.14,9.46-.36,12.09-3.84,2.71-3.59,.55-9-.44-12.86Z"/>
  <path class="cls-1" d="M88.7,13.23c-8.07-3.26-15.24,4.04-17.87,11.08-.69,1.85,1.97,2.63,2.97,1.25,3.53-4.87,9.67-6.04,14.9-8.19,2.01-.83,2.04-3.32,0-4.14Z"/>
  <path class="cls-2" d="M139.53,49.2c-.55-1.69-1.42-3.21-1.77-4.98-.4-2.02-.37-4.09-.72-6.14-.04-.26-.12-.5-.21-.73-.02-3.43-1.97-7.08-3.58-9.96-1.44-2.58-5.49-.8-4.78,1.96,.76,2.97-.79,5.82-1.11,8.74-1.67,.58-3.34,1.16-5.01,1.74-1.84,.64-3.07,2.39-2.52,4.31,.49,1.75,2.59,3.06,4.44,2.45,1.58-.52,3.16-1.04,4.75-1.57,.06,.26,.11,.51,.19,.78,.36,1.23,.84,2.41,1.36,3.58,.25,.64,.55,1.26,.88,1.87,.47,.82,.42,.82-.16,0-1.77,1.49-6.38,1.84-8.63,2.51-2.43,.72-4.66,1.27-6.56,2.92-1.42,1.23-.46,3.16,1.02,3.74,3.17,1.24,7.17,.25,10.43-.43,3.32-.69,7.48-1.24,10.13-3.49,2.3-1.96,2.78-4.54,1.88-7.3Z"/>
  <path class="cls-1" d="M125.3,23.6c-3.14-1.7-6.01,.45-8.04,2.83-.83,.98-1.69,2.02-2.36,3.12-.32,.53-.61,1.08-.81,1.67-.13,.39-.2,1.59-.19,1.57-.91,1.94,1.45,4.13,3.12,2.41-.28-.02-.17-.05,.31-.1,.22-.09,.44-.19,.66-.28,.55-.28,1.04-.66,1.52-1.04,.78-.63,1.58-1.21,2.43-1.74,2.34-1.44,4.85-2.62,4.91-5.75,.02-1.07-.6-2.19-1.55-2.71Z"/>
  <g>
    <path class="cls-3" d="M86.96,39.42c-8.12,0-14.68-6.09-14.98-13.95-.25-6.65,3.8-12.89,9.86-15.18h0c.87-.33,1.85-.54,2.99-.62,.86-.07,1.78-.07,2.89-.02,5.69,.27,13.93,5.68,13.96,14.78,.03,7.87-6.74,14.88-14.48,15-.08,0-.16,0-.24,0Zm-.63-26.46c-.45,0-.85,.01-1.24,.04-.81,.06-1.48,.2-2.05,.42,0,0,0,0,0,0-4.73,1.79-7.89,6.69-7.7,11.92,.23,6.05,5.32,10.73,11.63,10.73,.06,0,.12,0,.19,0,5.98-.09,11.2-5.53,11.18-11.64-.02-7.63-7.14-11.27-10.76-11.44-.45-.02-.85-.03-1.24-.03Z"/>
    <path class="cls-3" d="M77.39,59.24c-.8,0-1.51-.58-1.65-1.4-.32-1.92-.48-3.87-.48-5.8,0-6.85,2.03-12.65,5.71-16.34,.65-.66,1.71-.65,2.37,0,.66,.65,.66,1.71,0,2.37-3.05,3.05-4.73,8.01-4.73,13.97,0,1.21,.07,2.42,.21,3.63,5.85-.81,13.17-1.64,20.56-1.64-.23-7.67-2.73-13.94-6.79-16.9-.75-.54-.91-1.59-.37-2.34,.55-.75,1.59-.91,2.34-.37,7.39,5.38,8.19,16.31,8.19,20.76v.56c0,.44-.19,.87-.51,1.18-.32,.31-.77,.47-1.19,.47-8.46-.14-17.02,.91-23.41,1.83-.08,.01-.16,.02-.24,.02Z"/>
    <path class="cls-3" d="M74.69,31.44c-.26,0-.53-.06-.77-.19-.82-.43-1.14-1.44-.71-2.26,4.4-8.43,13.93-12.32,20.24-14.91,.86-.35,1.83,.06,2.18,.92,.35,.86-.06,1.83-.92,2.18-7.75,3.17-15,6.58-18.53,13.35-.3,.57-.88,.9-1.49,.9Z"/>
    <path class="cls-3" d="M49.45,46.81c-.11,0-.21,0-.32,0-6.08-.16-10.81-4.87-11-10.95-.17-5.61,3.43-10.57,8.55-11.79h0c1.15-.27,2.14-.37,3.01-.4,2.87,0,6.03,1.43,8.23,3.71,2.21,2.28,3.33,5.2,3.24,8.44-.15,5.37-4.88,10.99-11.72,10.99Zm.22-19.8c-.63,0-1.32,.09-2.21,.31h0c-3.59,.86-6.1,4.4-5.98,8.43,.13,4.35,3.39,7.59,7.73,7.71,4.93,.08,8.5-3.98,8.61-7.74,.08-2.93-1.2-4.89-2.3-6.01-1.58-1.63-3.87-2.68-5.84-2.69h-.02Z"/>
    <path class="cls-3" d="M41.71,63.16c-.37,0-.74-.12-1.04-.36-.37-.29-.6-.73-.64-1.2-.07-1.02-.11-2.01-.11-2.94,0-7.14,2.26-11.95,6.71-14.29,.82-.43,1.83-.12,2.26,.7s.12,1.83-.7,2.26c-3.31,1.74-4.92,5.45-4.92,11.33,0,.28,0,.57,.01,.86,5.67-.89,10.89-1.39,15.87-1.55-.61-4.96-2.8-9.06-6.14-11.41-.76-.53-.94-1.58-.4-2.33,.53-.76,1.58-.93,2.33-.4,4.56,3.22,7.37,8.94,7.7,15.7,.02,.45-.14,.9-.45,1.23-.31,.33-.74,.52-1.2,.53-5.87,.08-12.09,.68-19.01,1.84-.09,.02-.18,.02-.28,.02Z"/>
    <path class="cls-3" d="M57.93,35.38c-.06,0-.12,0-.19,0-3.74-.42-7.34-1.21-10.82-1.98-2.19-.49-4.27-.94-6.37-1.32-.91-.16-1.52-1.03-1.36-1.94,.16-.91,1.03-1.52,1.94-1.36,2.18,.38,4.38,.87,6.51,1.34,3.4,.75,6.91,1.53,10.47,1.92,.92,.1,1.58,.93,1.48,1.85-.1,.86-.82,1.49-1.66,1.49Z"/>
    <path class="cls-3" d="M127.08,43.16c-.12,0-.25,0-.37,0-5.26-.17-10.82-3.81-11.28-10.46-.41-5.92,3.28-11.39,8.78-13.01h0c.88-.26,1.8-.4,2.73-.42,.07,0,.13,0,.2,0,5.99,0,11.71,5.1,12.06,10.81,.06,.89,.06,1.68,.01,2.43-.41,6.66-6.54,10.65-12.13,10.65Zm.05-20.54s-.09,0-.13,0c-.63,.01-1.25,.11-1.84,.28h0c-3.94,1.16-6.68,5.27-6.39,9.56,.32,4.66,4.29,7.22,8.04,7.34,4.12,.08,8.76-2.85,9.05-7.51,.04-.61,.03-1.26-.01-2.01-.24-3.91-4.53-7.67-8.72-7.67Z"/>
    <path class="cls-3" d="M119.78,56.47c-.33,0-.66-.1-.94-.29-.4-.27-.66-.7-.72-1.18-.17-1.4-.26-2.66-.26-3.86,0-5.19,1.64-8.88,4.89-10.96,.78-.5,1.81-.27,2.32,.5,.5,.78,.27,1.81-.5,2.32-2.25,1.45-3.35,4.11-3.35,8.15,0,.51,.02,1.04,.05,1.59,3.73-.77,7.51-1.05,11.18-1.32,1.41-.11,2.86-.21,4.29-.35-.24-3.01-1.24-7.27-4.72-10.06-.72-.58-.84-1.63-.26-2.35,.58-.72,1.63-.84,2.35-.26,3.86,3.09,6,8.12,6.03,14.16,0,.86-.64,1.58-1.49,1.67-1.99,.22-4.01,.38-5.97,.52-4.15,.31-8.44,.63-12.5,1.67-.14,.03-.28,.05-.41,.05Z"/>
    <path class="cls-3" d="M118.06,37.02c-.33,0-.67-.1-.97-.31-.76-.53-.94-1.58-.4-2.33,4.01-5.68,10.16-9.99,17.32-12.14,.88-.26,1.82,.24,2.09,1.12,.27,.89-.24,1.82-1.12,2.09-6.44,1.93-11.96,5.79-15.54,10.86-.33,.46-.84,.71-1.37,.71Z"/>
    <path class="cls-3" d="M59.47,163.09c-13,0-45.64-37.83-45.64-43.58,0-1.46,.21-2.63,.44-3.87,.25-1.38,.51-2.8,.51-4.85,0-2.61-.39-5.41-.76-8.12-.38-2.77-.78-5.64-.78-8.37,0-10.05,6.76-16.54,17.22-16.54,2.28,0,3.84,.19,5.36,.64,.89,.26,1.39,1.2,1.13,2.08-.26,.89-1.2,1.39-2.08,1.13-1.19-.35-2.47-.5-4.41-.5-8.69,0-13.87,4.93-13.87,13.19,0,2.51,.36,5.13,.75,7.91,.39,2.82,.79,5.74,.79,8.58,0,2.36-.3,4-.56,5.45-.21,1.14-.38,2.12-.38,3.27,.5,3.97,30.87,40.23,42.29,40.23,7.27,0,22.08-14.69,22.08-31.73,0-.92,.75-1.68,1.68-1.68s1.68,.75,1.68,1.68c0,11.42-5.8,20.27-9.26,24.54-5.2,6.41-11.55,10.54-16.18,10.54Z"/>
    <path class="cls-3" d="M34.67,106.96c-.25,0-.51-.06-.75-.18-.83-.41-1.16-1.42-.75-2.25,1.44-2.87,3.25-5.69,5.01-8.42,3.9-6.07,7.94-12.34,7.94-19.4,0-.89-.48-.96-.97-.96-6.03,0-9.61,6.57-12.77,12.37-2.43,4.46-4.53,8.31-7.68,9.57-.86,.34-1.83-.07-2.18-.93-.34-.86,.07-1.83,.93-2.18,2.02-.81,3.94-4.33,5.98-8.06,3.43-6.29,7.7-14.12,15.71-14.12,2.54,0,4.32,1.77,4.32,4.31,0,8.05-4.31,14.74-8.47,21.22-1.79,2.78-3.47,5.4-4.83,8.11-.29,.59-.89,.93-1.5,.93Z"/>
    <path class="cls-3" d="M40.52,97.48c-.43,0-.86-.16-1.18-.49-.65-.65-.65-1.71,0-2.37,1.29-1.29,3.03-3.43,5.05-5.91,7.43-9.13,13.53-16.11,18.77-16.11,2.53,0,4.4,1.44,5.24,4.07,.28,.88-.2,1.82-1.08,2.11-.88,.28-1.83-.2-2.11-1.08-.47-1.45-1.16-1.75-2.05-1.75-4.06,0-11.35,8.95-16.17,14.87-2.08,2.55-3.87,4.76-5.28,6.17-.33,.33-.76,.49-1.18,.49Z"/>
    <path class="cls-3" d="M47.42,118.18c-.21,0-.43-.04-.64-.13-.85-.36-1.26-1.34-.9-2.19,14.29-34.29,17.97-42.38,26.1-42.38,4.63,0,7.18,2.71,7.18,7.64,0,2.43-4.2,24.4-4.47,25.58-.21,.9-1.1,1.47-2.01,1.26-.9-.21-1.46-1.11-1.26-2.01,.44-1.89,4.38-23.04,4.39-24.83,0-3.56-1.53-4.29-3.83-4.29-5.67,0-9.17,7.12-23,40.32-.27,.64-.89,1.03-1.55,1.03Z"/>
    <path class="cls-3" d="M83.56,131.32c-.88,0-1.61-.68-1.67-1.57-.04-.64-.06-1.28-.06-1.93,0-3.26,.46-6.7,.91-10.03,.44-3.28,.9-6.66,.9-9.82,0-6.36-1.46-8.23-2.32-8.33-2.92-.38-10.54,8.97-15.19,28.74-.21,.9-1.11,1.46-2.01,1.25-.9-.21-1.46-1.11-1.25-2.01,4.37-18.58,12.44-32.05,18.84-31.3,2.41,.28,5.28,2.53,5.28,11.66,0,3.38-.47,6.88-.93,10.26-.45,3.37-.88,6.54-.88,9.58,0,.58,.02,1.16,.05,1.72,.06,.92-.64,1.72-1.57,1.78-.04,0-.07,0-.11,0Z"/>
    <path class="cls-3" d="M123.27,158.13c-12.64,0-29.52-36.37-29.52-45.93,0-5.37,3.29-7.78,6.55-7.78,5.85,0,11.17,11.19,17.01,24.72,.99,2.28,1.84,4.25,2.54,5.73,.4,.83,.05,1.84-.79,2.23-.84,.4-1.84,.04-2.23-.79-.73-1.53-1.6-3.53-2.6-5.84-3.18-7.37-9.8-22.7-13.93-22.7-2,0-3.2,1.65-3.2,4.43,0,3.65,3.61,14.1,9.45,24.6,6.16,11.09,12.57,17.98,16.72,17.98,8.88,0,39.48-31.14,40.26-34.78,0-2.82,.08-5.78,.16-8.65,.08-2.84,.16-5.78,.16-8.66,0-19.64-4.22-23.67-10.56-23.67-1.6,0-3.35,.26-5.03,.51-2.06,.31-4.21,.63-6.21,.5-.92-.06-1.63-.85-1.57-1.77,.06-.92,.84-1.62,1.77-1.57,1.7,.1,3.54-.18,5.52-.47,1.81-.27,3.68-.54,5.52-.54,13.91,0,13.91,17.57,13.91,27.02,0,2.93-.08,5.89-.16,8.76-.08,2.84-.16,5.78-.16,8.66,0,5.26-32.84,38.03-43.61,38.03Z"/>
    <path class="cls-3" d="M123.98,120.15c-.66,0-1.28-.39-1.55-1.03-14.55-34.91-18.21-40.5-22.52-40.5-2.42,0-2.42,1.22-2.42,1.75,.08,1.53,4.61,18.55,11.18,30.05,.46,.8,.18,1.83-.62,2.29-.8,.46-1.83,.18-2.29-.62-6.54-11.45-11.62-29.41-11.62-31.71,0-3.1,2.27-5.1,5.77-5.1,6.28,0,9.62,4.18,25.61,42.56,.36,.85-.05,1.84-.9,2.19-.21,.09-.43,.13-.64,.13Z"/>
    <path class="cls-3" d="M138.09,110.72c-.67,0-1.3-.4-1.56-1.06-13.08-33.2-17.71-39.11-24.19-39.11q-2.01,0-2.01,3.81c0,5.85,2.27,11.78,4.47,17.52,.3,.79,.6,1.57,.89,2.34,.33,.87-.11,1.83-.98,2.16-.86,.33-1.83-.11-2.16-.98-.29-.77-.58-1.54-.88-2.32-2.2-5.74-4.69-12.25-4.69-18.72,0-4.44,.26-7.16,5.36-7.16,9.54,0,14.92,9.79,27.3,41.23,.34,.86-.08,1.83-.94,2.17-.2,.08-.41,.12-.61,.12Z"/>
    <path class="cls-3" d="M154.2,98.46c-.25,0-.51-.06-.75-.18-4.7-2.35-8.13-7.65-11.75-13.26-4.59-7.12-9.79-15.15-18.42-18.24-.1,.42-.19,1.08-.19,1.88,0,3.25,1.67,6.12,3.44,9.15,.52,.9,1.05,1.81,1.55,2.74,.44,.82,.13,1.83-.69,2.27-.82,.44-1.83,.13-2.27-.69-.48-.89-.98-1.77-1.49-2.63-1.92-3.29-3.9-6.69-3.9-10.84,0-4.91,2.17-5.44,3.1-5.44,.23,0,.45,.03,.66,.1,10.25,3.22,15.97,12.07,21.01,19.88,3.37,5.22,6.55,10.14,10.43,12.09,.83,.41,1.16,1.42,.75,2.25-.29,.59-.89,.93-1.5,.93Zm-31.72-31.95s.01,0,.02,0c0,0-.01,0-.02,0Z"/>
    <path class="cls-3" d="M21.13,61.99c-.8,0-1.51-.57-1.65-1.39-.26-1.52-.45-3.08-.54-4.62-.06-.92,.65-1.72,1.57-1.77,.94-.06,1.72,.65,1.77,1.57,.09,1.42,.26,2.85,.5,4.25,.16,.91-.45,1.78-1.36,1.94-.1,.02-.19,.02-.29,.02Zm.11-14.44c-.1,0-.21,0-.31-.03-.91-.17-1.51-1.05-1.34-1.96,.28-1.51,.65-3.02,1.1-4.51,.27-.89,1.21-1.39,2.09-1.12,.89,.26,1.39,1.2,1.12,2.09-.41,1.37-.75,2.77-1.01,4.16-.15,.8-.85,1.37-1.64,1.37Zm5.01-13.55c-.28,0-.57-.07-.83-.22-.8-.46-1.09-1.48-.63-2.28,.75-1.33,1.59-2.64,2.48-3.9,.53-.76,1.58-.94,2.33-.41,.76,.53,.94,1.58,.41,2.33-.83,1.18-1.61,2.4-2.31,3.63-.31,.54-.87,.85-1.46,.85Zm8.98-11.34c-.45,0-.89-.18-1.22-.53-.63-.68-.6-1.74,.08-2.37,1.12-1.05,2.3-2.06,3.5-3.01,.73-.57,1.78-.44,2.35,.28,.57,.73,.44,1.78-.28,2.35-1.13,.89-2.23,1.83-3.28,2.81-.32,.3-.73,.45-1.15,.45Zm11.86-8.28c-.61,0-1.2-.34-1.5-.92-.41-.83-.08-1.83,.75-2.25,1.38-.69,2.8-1.32,4.22-1.88,.86-.34,1.83,.09,2.17,.95,.34,.86-.09,1.83-.95,2.17-1.33,.52-2.65,1.11-3.94,1.76-.24,.12-.5,.18-.75,.18Zm13.74-4.47c-.81,0-1.52-.59-1.65-1.41-.15-.91,.47-1.77,1.39-1.92,1.49-.24,3-.41,4.49-.5,.95-.05,1.72,.64,1.78,1.57,.06,.92-.64,1.72-1.57,1.78-1.38,.09-2.78,.24-4.16,.47-.09,.02-.18,.02-.27,.02Z"/>
    <path class="cls-3" d="M155.11,43.99c-.79,0-1.5-.57-1.65-1.38-.27-1.48-.54-2.93-.82-4.36-.18-.91,.41-1.79,1.31-1.97,.9-.18,1.79,.4,1.97,1.31,.29,1.45,.56,2.92,.84,4.42,.16,.91-.44,1.78-1.35,1.95-.1,.02-.2,.03-.3,.03Zm-3.36-14.1c-.69,0-1.34-.43-1.58-1.12-.5-1.43-1.03-2.73-1.63-3.95-.4-.83-.05-1.84,.78-2.24,.84-.4,1.84-.05,2.24,.78,.65,1.34,1.22,2.75,1.77,4.3,.31,.87-.15,1.83-1.03,2.13-.18,.06-.37,.09-.55,.09Zm-7.41-12.31c-.43,0-.86-.16-1.19-.49-.97-.98-2.04-1.9-3.18-2.75-.74-.55-.9-1.6-.35-2.34,.55-.74,1.6-.9,2.34-.35,1.27,.94,2.47,1.98,3.56,3.07,.65,.66,.65,1.72,0,2.37-.33,.33-.75,.49-1.18,.49Zm-12.15-7.7c-.21,0-.42-.04-.62-.12-1.28-.51-2.66-.99-4.08-1.43-.88-.27-1.38-1.21-1.11-2.09,.27-.89,1.21-1.39,2.09-1.11,1.51,.46,2.97,.97,4.34,1.52,.86,.34,1.28,1.32,.94,2.18-.26,.66-.89,1.06-1.56,1.06Zm-13.97-3.75c-.09,0-.19,0-.28-.02-1.38-.24-2.84-.45-4.34-.65-.92-.12-1.57-.96-1.45-1.87,.12-.92,.97-1.57,1.87-1.45,1.55,.2,3.05,.42,4.48,.67,.91,.16,1.52,1.02,1.37,1.93-.14,.82-.85,1.39-1.65,1.39Z"/>
  </g>
</svg>