<?xml version="1.0" encoding="UTF-8"?>
<svg id="Layer_1" xmlns="http://www.w3.org/2000/svg" version="1.1" viewBox="0 0 996.23 129.98">
  <!-- Generator: Adobe Illustrator 29.3.1, SVG Export Plug-In . SVG Version: 2.1.0 Build 151)  -->
  <defs>
    <style>
      .st0 {
        fill: #007bff;
      }

      .st1 {
        fill: #081a28;
        font-family: Posterama1927W01-Black, Posterama1927W01-Black;
        font-size: 84.39px;
        font-weight: 800;
      }
    </style>
  </defs>
  <g>
    <path class="st0" d="M91.46,111.93v-43.87c3.66.11,6.19,3.96,9.83,4.54v27.23l9.08-4.54v-49.17l9.83,4.54v38.58c2.07-1.95,8.57-3.74,9.08-6.42l-.39-36.69-32.15-18.62c-2.38-.57-7.41,5.05-10.09,4.82-.47-.04-7.7-3.86-8.38-4.34-.88-.63-.67-.82-.08-1.55.77-.95,15.35-9.55,17.08-10.21.56-.21,1.02-.54,1.65-.26l42.17,25.23-.37,48.8-41.22,23.89c-2.41,1.04-3.82-1.69-6.06-1.96Z"/>
    <path class="st0" d="M101.3,50.65v12.1l-32.35-18.78c-2.52-.34-5.2,1.35-5.52,3.99-1.29,10.64,1.06,23.91.04,34.85.51,2.68,7.01,4.48,9.08,6.42v-32.53c1.54.32,9.83,5.11,9.83,5.67v43.5l-28.62-16.38v-48.93c.29-.84,13.04-8.41,15.21-7.95l32.33,18.04Z"/>
  </g>
  <text class="st1" transform="translate(165.84 95.1)"><tspan x="0" y="0">function</tspan></text>
  <text class="st1" transform="translate(636.31 95.1)"><tspan x="0" y="0">bytes</tspan></text>
</svg>