<?xml version="1.0" encoding="UTF-8"?>
<svg id="Capa_1" data-name="Capa 1" xmlns="http://www.w3.org/2000/svg" viewBox="0 0 180.19 166.83">
  <defs>
    <style>
      .cls-1 {
        fill: #088bcc;
      }

      .cls-2 {
        fill: #282828;
      }
    </style>
  </defs>
  <path class="cls-1" d="M95.89,109.29c-8.78,1.16-17.94,.51-26.79,.75-7.57,.21-17.2,.13-23.89,4.1-.88,.52-.88,1.83,0,2.36,7,4.16,17.09,3.94,25,4.13,9.02,.22,18.21,.88,27.17-.4,6.15-.88,4.75-11.77-1.48-10.94Z"/>
  <path class="cls-1" d="M55.76,19.89c-2.72,0-4.88,2.07-6.15,4.28-.83,1.44-1.64,2.87-2.64,3.49-.78,.48-2.58,.73-3.82,.99-1.86,.4-2.62,2.4-2.32,4.08,.89,4.91,6.97,6.05,11.06,4.95,4.89-1.31,9.19-6.77,9.08-11.9-.06-2.77-2.2-5.89-5.2-5.89Z"/>
  <path class="cls-1" d="M137.8,20.46c-.52-2.15-2.55-3.39-4.62-3.52-1.65-.11-3.33,.98-4.14,2.37-.83,1.42-.36,2.77-.99,3.96-1.48,2.79-4.89,2.94-7.71,3.11-1.73,.11-2.94,2.83-.99,3.66,3.9,1.67,8.18,3.11,12.38,1.57,4.52-1.65,7.22-6.47,6.08-11.16Z"/>
  <path class="cls-1" d="M144.81,38c-9.04-1.25-18.52-.31-27.63-.12-9.6,.2-19.2,.33-28.8,.55-19.2,.44-38.49,.72-57.61,2.63-1.68,.17-1.68,2.44,0,2.62,19.11,2.01,38.41,2.29,57.61,2.64,9.22,.17,18.43,.23,27.65,.32,9.48,.1,19.4,1,28.78-.43,4.04-.62,4.09-7.64,0-8.21Z"/>
  <path class="cls-1" d="M95.74,71.6c-1.46-2.64-5.1-4.07-8-2.38-.13,.08-.27,.15-.41,.23-1.17-2.28-4.33-3.48-7.09-1.3-2.61,2.06-5.53,4.07-7.67,6.62,.03,.02,.06,.03,.09,.05-.72,.87-.99,2.04-.86,3.14-.45,.55-.89,1.11-1.34,1.66-2.69,3.34-1.28,7.39,1.75,8.71-.47,4.6,4.89,8.51,9.43,6.03,1.39-.76,2.76-1.56,4.12-2.39,1.23,1.47,3.1,2.28,5.09,2.47,.18,.02,.36,.03,.54,.05,2.02,.19,4.6-1.3,5.46-3.13,.06-.14,.13-.28,.19-.41,.6-1.28,.85-2.7,.65-4.04,.66-1.54,2.22-4.21,2.71-5.26,1.9-4.07-.72-9.31-4.67-10.05Z"/>
  <g>
    <path class="cls-2" d="M35.56,130.54c-2.76,0-5.42-1.12-7.35-3.09-1.99-2.04-3.05-4.83-2.91-7.68,.27-5.4,.53-11.21,.53-17.1l-2.58-66.71c-.04-.96,.71-1.77,1.68-1.81,.99-.03,1.78,.71,1.81,1.68l2.58,66.78c0,6.04-.25,11.9-.53,17.35-.1,1.9,.58,3.69,1.92,5.06,1.34,1.37,3.14,2.07,5.04,2.04l70.77-1.97c.93-.05,1.77,.73,1.79,1.7,.03,.96-.73,1.77-1.7,1.79l-70.77,1.97c-.09,0-.19,0-.28,0Z"/>
    <path class="cls-2" d="M130.03,127.91c-.94,0-1.72-.75-1.74-1.7-.03-.96,.73-1.77,1.7-1.79l12.77-.36c1.82-.05,3.51-.81,4.76-2.14,1.25-1.33,1.89-3.06,1.83-4.89l-.51-13.98c-.04-.96,.72-1.77,1.68-1.81,.96-.07,1.77,.72,1.81,1.68l.51,13.98c.1,2.76-.88,5.39-2.77,7.4-1.89,2.01-4.45,3.17-7.21,3.24l-12.77,.36s-.03,0-.05,0Z"/>
    <path class="cls-2" d="M149.8,84.4c-.93,0-1.7-.73-1.74-1.66l-2.77-59.32c-.17-3.65-3.13-6.46-6.76-6.46-.05,0-.09,0-.14,0l-9.86,.2c-.96,.03-1.76-.75-1.78-1.71-.02-.96,.75-1.76,1.71-1.78l9.86-.2c.07,0,.14,0,.21,0,5.51,0,9.99,4.26,10.25,9.79l2.77,59.32c.05,.96-.7,1.78-1.66,1.83-.03,0-.06,0-.08,0Z"/>
    <path class="cls-2" d="M52.03,18.68c-.95,0-1.73-.76-1.74-1.71-.02-.97,.75-1.76,1.71-1.78l67.25-1.33h.04c.95,0,1.73,.76,1.74,1.71,.02,.96-.75,1.76-1.71,1.78l-67.25,1.33h-.04Z"/>
    <path class="cls-2" d="M24.98,37.38c-.92,0-1.69-.72-1.74-1.65-.03-.49-.04-.99-.04-1.5,0-8.9,3.95-18.55,12.64-18.73l7.01-.14h.04c.95,0,1.73,.76,1.74,1.71,.02,.96-.75,1.76-1.71,1.78l-7.01,.14c-7.29,.14-9.22,10.03-9.22,15.23,0,.45,.01,.89,.03,1.32,.05,.96-.69,1.78-1.65,1.83-.03,0-.06,0-.09,0Z"/>
    <path class="cls-2" d="M43.52,30.19c-.42,0-.84-.16-1.16-.44-.35-.31-.56-.75-.59-1.21-.09-1.67-.19-3.34-.28-5.02-.34-6.04-.7-12.28-.83-18.39-.01-.49,.19-.97,.55-1.31,.36-.34,.83-.51,1.34-.47,3.04,.24,5.86,.3,8.74,.21,.46-.03,.93,.16,1.27,.49,.34,.33,.53,.78,.54,1.25,.03,4.11,.4,8.31,.77,12.36,.27,3.05,.56,6.21,.7,9.36,.04,.89-.6,1.67-1.48,1.8-.91,.14-1.83,.3-2.75,.46-2.16,.38-4.39,.76-6.69,.92-.04,0-.08,0-.12,0Zm.68-23.23c.16,5.44,.47,10.98,.78,16.36,.06,1.07,.12,2.14,.18,3.21,1.53-.18,3.06-.45,4.56-.71,.42-.07,.84-.15,1.26-.22-.15-2.56-.38-5.14-.6-7.65-.32-3.56-.65-7.22-.75-10.88-1.77,.02-3.57-.02-5.42-.13Z"/>
    <path class="cls-2" d="M119.82,26.94c-.43,0-.84-.16-1.16-.44-.35-.31-.56-.75-.59-1.21-.09-1.67-.19-3.35-.28-5.02-.34-6.04-.7-12.28-.83-18.39-.01-.49,.19-.97,.55-1.31,.36-.34,.83-.53,1.33-.47,3.06,.24,5.88,.3,8.74,.2,.46-.03,.93,.16,1.27,.49,.34,.33,.53,.78,.54,1.25,.03,4.11,.4,8.31,.77,12.36,.27,3.05,.56,6.21,.7,9.36,.04,.89-.6,1.67-1.48,1.8-.91,.14-1.83,.3-2.74,.46-2.16,.38-4.39,.76-6.69,.92-.04,0-.08,0-.12,0Zm.68-23.23c.16,5.44,.47,10.98,.78,16.36,.06,1.07,.12,2.15,.18,3.22,1.53-.18,3.07-.45,4.56-.71,.42-.07,.84-.15,1.25-.22-.15-2.56-.38-5.14-.6-7.65-.32-3.56-.65-7.21-.75-10.88-1.79,.02-3.57-.02-5.42-.13Z"/>
    <path class="cls-2" d="M25.14,41.46c-.94,0-1.71-.74-1.74-1.69-.03-.96,.72-1.77,1.69-1.8l122.47-4.04c1-.07,1.77,.72,1.8,1.69,.03,.96-.72,1.77-1.69,1.8l-122.47,4.04s-.04,0-.06,0Z"/>
    <path class="cls-2" d="M143.58,166.83c-.18,0-.36-.03-.54-.09-.66-.21-1.13-.8-1.2-1.49-.13-1.3-.3-2.59-.48-3.88-.19-1.43-.39-2.89-.53-4.37-20.31-1.01-37.1-18.34-37.03-38.6,.06-16.79,11.17-31.78,27.02-36.45,4.11-1.21,8.33-1.79,12.54-1.71,20.47,.39,36.29,16.18,36.8,36.73,.24,9.59-2.97,18.95-9.03,26.35-.61,.75-1.71,.86-2.46,.24-.75-.61-.86-1.71-.24-2.46,5.53-6.75,8.46-15.29,8.24-24.05-.47-18.65-14.81-32.97-33.38-33.32-3.84-.08-7.72,.45-11.49,1.56-14.38,4.24-24.46,17.85-24.51,33.11-.07,18.59,16.37,35.01,35.17,35.14,.92,0,1.68,.73,1.73,1.64,.11,1.89,.36,3.75,.63,5.71,0,.04,.01,.08,.01,.12l13.4-15.1-14.97-10.4c-.12,2.71-.14,5.38-.15,7.92,0,.48-.2,.93-.54,1.26-.35,.33-.81,.5-1.29,.48-13.99-.68-25.76-12.91-25.71-26.7,.04-11.61,7.73-21.98,18.69-25.21,2.84-.84,5.76-1.23,8.66-1.18,14.16,.27,25.11,11.19,25.47,25.41,.16,6.63-2.05,13.09-6.24,18.21-.61,.75-1.71,.86-2.46,.24-.75-.61-.86-1.71-.24-2.46,3.66-4.47,5.59-10.12,5.45-15.91-.31-12.32-9.78-21.78-22.04-22.01-2.53-.05-5.11,.3-7.61,1.04-9.5,2.8-16.15,11.79-16.19,21.88-.04,12.49,10.28,21.61,20.57,23.03,.02-3.01,.1-6.17,.33-9.34,.05-.63,.42-1.18,.99-1.45,.56-.27,1.23-.22,1.75,.14l19.15,13.31c.41,.28,.68,.73,.74,1.23,.06,.5-.1,.99-.43,1.37l-17.27,19.47c-.34,.38-.82,.59-1.31,.59Z"/>
    <path class="cls-2" d="M44.3,113.56c-.95,0-1.72-.76-1.74-1.71-.2-9.1-.78-18.31-1.34-27.22-.66-10.51-1.35-21.39-1.42-32.19,0-.95,.74-1.73,1.69-1.76l88.79-2.74c.95-.06,1.75,.71,1.8,1.66,.09,1.89,.14,3.85,.14,5.99,0,4.52-.22,9.06-.43,13.46-.21,4.41-.43,8.98-.43,13.53,0,.96-.78,1.75-1.75,1.75s-1.75-.78-1.75-1.75c0-4.63,.22-9.24,.43-13.69,.21-4.36,.42-8.86,.42-13.3,0-1.44-.02-2.8-.06-4.1l-85.35,2.64c.13,10.15,.77,20.38,1.39,30.29,.53,8.38,1.07,17.03,1.31,25.63,16.66-.27,33.56-.27,49.92-.27,.96,0,1.75,.78,1.75,1.75s-.78,1.75-1.75,1.75c-16.91,0-34.4,0-51.59,.3h-.03Z"/>
    <path class="cls-2" d="M73.47,113.29c-.87,0-1.62-.64-1.73-1.53-1.43-11.23-2.27-22.66-3.08-33.72-.63-8.62-1.29-17.53-2.22-26.25-.1-.96,.59-1.82,1.55-1.92,.98-.11,1.82,.59,1.92,1.55,.94,8.78,1.59,17.72,2.23,26.37,.81,11.01,1.65,22.4,3.06,33.53,.12,.96-.55,1.83-1.51,1.95-.08,0-.15,.01-.22,.01Z"/>
    <path class="cls-2" d="M100.79,101.02c-.91,0-1.68-.71-1.74-1.63-.41-5.98-.64-12.03-.86-17.89-.38-10.03-.77-20.41-2.08-30.59-.12-.96,.55-1.83,1.51-1.95,.95-.11,1.83,.55,1.95,1.51,1.32,10.33,1.72,20.79,2.1,30.9,.22,5.83,.45,11.86,.85,17.78,.07,.96-.66,1.8-1.62,1.86-.04,0-.08,0-.12,0Z"/>
    <path class="cls-2" d="M42.1,71.82c-.95,0-1.73-.77-1.75-1.72-.01-.96,.76-1.76,1.72-1.77l87.94-1.08h.02c.95,0,1.73,.77,1.75,1.72,.01,.96-.76,1.76-1.72,1.77l-87.94,1.08h-.02Z"/>
    <path class="cls-2" d="M43.58,96.5c-.95,0-1.72-.76-1.74-1.71-.02-.97,.75-1.76,1.71-1.78,21.93-.45,39.95-1.24,56.71-2.47,.95-.07,1.8,.65,1.87,1.61,.07,.96-.65,1.8-1.61,1.87-16.83,1.24-34.91,2.03-56.9,2.48h-.04Z"/>
    <path class="cls-2" d="M50.06,91.35c-.48,0-.96-.2-1.31-.59-.64-.72-.58-1.82,.15-2.46,.89-.79,1.75-1.58,2.6-2.36,2.63-2.4,5.35-4.89,8.51-7.1,.79-.55,1.88-.36,2.43,.43,.55,.79,.36,1.88-.43,2.43-2.97,2.08-5.49,4.38-8.16,6.82-.87,.79-1.74,1.59-2.64,2.39-.33,.3-.75,.44-1.16,.44Z"/>
    <path class="cls-2" d="M60.08,90.74c-.36,0-.72-.11-1.03-.33-2.76-2.01-4.88-4.37-6.93-6.66-1.39-1.55-2.84-3.16-4.45-4.61-.72-.65-.77-1.75-.13-2.47,.65-.72,1.75-.77,2.47-.13,1.75,1.58,3.26,3.26,4.71,4.88,2.02,2.25,3.93,4.38,6.39,6.17,.78,.57,.95,1.66,.39,2.44-.34,.47-.87,.72-1.41,.72Z"/>
  </g>
</svg>