<?xml version="1.0" encoding="UTF-8"?>
<svg id="Capa_1" data-name="Capa 1" xmlns="http://www.w3.org/2000/svg" viewBox="0 0 179.25 166.83">
  <defs>
    <style>
      .cls-1 {
        fill: #e0dfe6;
      }

      .cls-2 {
        fill: #088bcc;
      }

      .cls-3 {
        fill: #282828;
      }
    </style>
  </defs>
  <path class="cls-2" d="M158.43,115.29c-1.51-5.31-.83-10.21-1.03-15.61-.07-1.85-3.12-2.48-3.4-.46-.69,4.95-2.94,9.13-2.41,14.27,.53,5.14,2.42,9.95,2.29,15.17-.13,4.99,8.03,4.93,7.7,0-.31-4.71-1.86-8.86-3.15-13.36Z"/>
  <path class="cls-2" d="M110.63,143.18c.02-.21,.03-.42,0-.65-1.22-12.74-8.3-24.55-12.38-36.54-.52-1.51-3.18-1.4-2.98,.4,.66,5.88,1.79,11.55,3.49,17.23,1.89,6.29,4.42,12.27,4.82,18.91,.03,.47,.15,.88,.31,1.25-.24,.24-.47,.48-.71,.72-1.1-5.99-3.1-11.96-4.8-17.79-1.76-6.03-4.65-12.43-4.17-18.79,.1-1.35-1.77-1.67-2.42-.65-1.35,2.13-1.68,4.55-1.53,7.03-.28,.02-.58,.1-.88,.25-1.24,.61-2.38,1.49-3.53,2.25-1.12,.74-2.32,1.42-3.3,2.35-1.09,1.04,.05,2.78,1.43,2.45,1.32-.31,2.55-.98,3.79-1.52,1.04-.45,2.13-.86,3.14-1.38,.38,1.79,.83,3.56,1.16,5.2,.02,.1,.04,.2,.06,.3-.2,0-.4,.03-.62,.1-4.03,1.4-7.72,4.06-11.3,6.34-1.83,1.17-.17,4.05,1.71,2.93,3.53-2.11,7.37-3.36,11-5.21,.33,1.78,.66,3.57,1.01,5.35-4.65,2.09-9.07,4.75-13.71,6.87-1.8,.82-.52,3.76,1.34,3.18,4.46-1.38,9.2-2.84,13.42-5,.42,1.87,.88,3.73,1.4,5.56-.17,.04-.34,.1-.51,.17-4.25,1.89-8.03,4.55-12.42,6.25-1.79,.69-1.13,3.46,.81,2.94,4.53-1.21,9.77-2.44,13.8-4.95,.14,.16,.29,.31,.45,.43-.35,.35-.7,.71-1.05,1.05-2.51,2.42-5.26,4.75-7.43,7.49-.94,1.19-.12,3.68,1.71,2.94,6.68-2.7,13.21-7.8,18.65-12.48,1.77-1.52,1.44-3.59,.23-4.98Z"/>
  <path class="cls-2" d="M51.22,61.69c-6.54-6.13-15.8-9.43-24.72-8.39-2.76,.32-2.86,4.18,0,4.38,7.27,.51,13.1,3.87,16.99,9.98,3.91,6.14,12.88-1.14,7.73-5.97Z"/>
  <path class="cls-2" d="M111.7,12.79c-1.13-6.41-9.67-6.42-14.65-7.41-5.6-1.11-8.73,5.21-6.36,8.85-3.81,.7-8.22,0-11.83,1.35-2.73,1.03-3.66,3.32-4.99,5.69-2.09,3.71-4.64,6.94-7.4,10.18-1.76,2.08,.44,5.37,3.01,3.9,2.45-1.4,4.74-3.08,6.82-4.98,1.53-1.4,3.68-5.24,5.52-5.84,1.21-.39,4.92,.37,6.26,.36,1.38-.01,2.78-.08,4.15-.21,3.59-.34,7.17-1.04,10.62-2.11,4.64-1.44,9.88-3.96,8.86-9.78Z"/>
  <path class="cls-2" d="M147.56,42.31c-4.02,.7-11.72,.55-12.81,5.54-.51,2.34-.56,4.62-1.33,6.93-.82,2.46-2.01,4.76-2.98,7.16-.58,1.43,1.46,3.03,2.7,2.08,2.14-1.64,3.82-3.63,5.24-5.92,.9-1.45,1.74-4.18,2.58-5.81,2.63-.16,5.27-.2,7.9-.36,7.02-.43,5.8-10.85-1.3-9.62Z"/>
  <path class="cls-1" d="M156.33,70.4c-.07-1.41-1.03-2.64-2.48-2.81-1.3-.15-2.88,.63-3.14,2.05-.29,1.59-.52,3.2-.93,4.76-.53,2.04,.82,4.09,2.91,4.37,1.85,.25,4.24-1.3,3.97-3.44-.21-1.63-.25-3.29-.34-4.93Z"/>
  <path class="cls-1" d="M24.59,74.61c-2.15,0-4.22,1.89-4.12,4.12,.1,2.23,1.81,4.12,4.12,4.12,2.15,0,4.22-1.89,4.12-4.12-.1-2.23-1.81-4.12-4.12-4.12Z"/>
  <g>
    <path class="cls-3" d="M1.77,130.12c-.97,0-1.77-.79-1.77-1.77,0-20.89,13.93-34.13,19.8-34.13,.57,0,1.1,.08,1.57,.16,.33,.05,.64,.1,.85,.1,.21-.09,.73-.97,.73-2.21,0-2.58-.64-2.77-2.78-3.41-4.76-1.43-9.04-3.91-9.04-18.41,0-2.41,.1-4.81,.2-7.14l.09-2.26c.04-.97,.83-1.73,1.83-1.7,.97,.04,1.73,.86,1.7,1.83l-.09,2.27c-.1,2.29-.19,4.66-.19,6.99,0,13.07,3.47,14.11,6.52,15.03,2.23,.67,5.3,1.59,5.3,6.8,0,2.78-1.49,5.74-4.26,5.74-.48,0-.94-.07-1.39-.14-.38-.06-.73-.11-1.02-.11-3.48,0-16.27,11.14-16.27,30.6,0,.97-.79,1.77-1.77,1.77Z"/>
    <path class="cls-3" d="M24.92,79.94c-2.27,0-3.85-2.08-3.85-5.05,0-1.67,.53-3.47,1.56-5.33,.47-.85,1.55-1.16,2.4-.69,.85,.47,1.16,1.55,.69,2.4-.73,1.32-1.12,2.57-1.12,3.62,0,.86,.26,1.44,.39,1.55,.96-.19,1.85,.42,2.04,1.37,.19,.96-.46,1.87-1.42,2.06-.24,.05-.47,.07-.7,.07Z"/>
    <path class="cls-3" d="M45.32,105.38c-4.38,0-9.06-3.89-9.06-9.67s2.82-9.32,5.55-12.89c2.96-3.86,6.02-7.86,6.02-14.89,0-12.95-10.53-18.85-20.32-18.85-6.77,0-13.65,2.61-18.42,6.99-.72,.66-1.83,.61-2.49-.11-.66-.72-.61-1.84,.11-2.49,5.4-4.96,13.18-7.92,20.81-7.92,16.39,0,23.85,11.6,23.85,22.38,0,8.22-3.58,12.91-6.75,17.04-2.59,3.38-4.82,6.3-4.82,10.74,0,3.95,3.27,6.14,5.53,6.14,.97,0,1.77,.79,1.77,1.77s-.79,1.77-1.77,1.77Z"/>
    <path class="cls-3" d="M48.29,74.08c-.42,0-.85-.15-1.19-.46-7.27-6.57-9.57-10.4-10.12-12.8-1.49,.21-3.99,.43-8.17,.43-6.4,0-13.02-2.49-18.64-7.02-.76-.61-.88-1.72-.27-2.48,.61-.76,1.72-.88,2.48-.27,4.99,4.02,10.82,6.23,16.42,6.23,5.95,0,8.19-.46,9.04-.63,.51-.1,1.37-.28,2.08,.44,.47,.47,.62,1.08,.46,1.82-.06,.29-.35,3.12,9.08,11.65,.72,.65,.78,1.77,.12,2.49-.35,.39-.83,.58-1.31,.58Z"/>
    <path class="cls-3" d="M28.83,109.48c-3.67,0-5.59-3.46-5.59-6.88,0-.78,.1-1.53,.3-2.23,.27-.94,1.25-1.48,2.18-1.21,.94,.27,1.48,1.24,1.21,2.18-.11,.37-.16,.81-.16,1.26,0,1.3,.56,3.35,2.06,3.35,3.47,0,3.73-3.74,3.73-4.88,0-.97,.79-1.77,1.77-1.77s1.77,.79,1.77,1.77c0,5.03-2.92,8.41-7.26,8.41Z"/>
    <path class="cls-3" d="M27.63,141.94s-.1,0-.15,0c-.53-.04-1.02-.33-1.31-.77-2.24-3.33-4.66-6.54-7.17-9.55-.36-.43-.49-1-.36-1.54l.53-2.22c1.62-6.81,3.15-13.24,4.56-19.95,.2-.95,1.14-1.57,2.09-1.36,.95,.2,1.56,1.14,1.36,2.09-1.42,6.75-2.96,13.21-4.58,20.04l-.32,1.37c1.95,2.37,3.83,4.85,5.63,7.41,.96-.89,1.96-1.73,2.93-2.56,.99-.84,2-1.69,2.95-2.59-2.71-7.09-4.19-15.16-4.39-24-.02-.97,.75-1.78,1.73-1.81,1.01,0,1.78,.75,1.81,1.72,.2,8.88,1.74,16.91,4.57,23.87,.27,.66,.11,1.41-.39,1.91-1.29,1.29-2.67,2.45-4,3.58-1.5,1.27-2.91,2.47-4.2,3.81-.33,.35-.8,.54-1.28,.54Z"/>
    <path class="cls-3" d="M33.91,101.78c-.08,0-.17,0-.25-.02-.76-.11-1.52-.24-2.28-.38-1.62-.29-3.16-.56-4.66-.56-.51,0-.99,.03-1.45,.1-.96,.13-1.86-.53-2-1.5-.14-.96,.53-1.86,1.5-2,.63-.09,1.26-.13,1.94-.13,1.81,0,3.57,.31,5.28,.62,.72,.13,1.44,.26,2.16,.36,.97,.14,1.64,1.03,1.5,2-.13,.88-.88,1.52-1.75,1.52Z"/>
    <path class="cls-3" d="M40.89,142.8s-.09,0-.14,0c-.97-.07-1.7-.92-1.63-1.89,.33-4.4,1.41-15.68,4.24-25.39,3.42-11.74,8.34-17.69,14.62-17.69,.09,0,.56,.02,1.24,.05,1.62,.08,4.62,.23,6.18,.23,9.78,0,14.32-3.81,14.59-12.34-10.48-2.68-14.25-15.46-14.25-25.97,0-1.8,.09-3.69,.27-5.66-4.41-.42-8.53-3.06-8.53-7.75,0-2.89,1.39-4.49,2.74-6.03,1.66-1.9,3.37-3.87,3.37-9.24,0-.99-.04-2-.08-3.01-.04-1.08-.09-2.17-.09-3.26,0-10.43,6.25-15.18,12.05-15.18,.86,0,1.72,.11,2.57,.32,2.64-2.92,9.84-6.77,17.61-6.77,5.84,0,21.2,7.16,21.2,23.29,0,2.97-.39,5.97-.77,8.87-.07,.52-.14,1.04-.2,1.55,3.13,1.11,5.13,3.77,5.13,7.01,0,2.3-2.32,5.06-5.59,8.71-.22,.25-.44,.49-.64,.71,.03,.64,.06,1.28,.09,1.92,.1,1.9,.2,3.86,.2,5.8,0,19.48-14.03,22.18-20.02,23.33-1,.19-2.04,.39-2.42,.57-.89,.41-1.93,.01-2.34-.88-.4-.89-.01-1.93,.88-2.34,.77-.35,1.8-.55,3.22-.82,5.99-1.15,17.15-3.3,17.15-19.86,0-1.85-.1-3.76-.19-5.62-.05-.89-.09-1.78-.13-2.66-.02-.45,.14-.89,.44-1.23,.34-.39,.73-.82,1.14-1.28,1.4-1.55,4.66-5.19,4.69-6.35,0-2.02-1.5-3.57-3.82-3.95-.93-.15-1.58-1.01-1.47-1.94,.12-1.04,.26-2.08,.39-3.13,.36-2.79,.74-5.67,.74-8.41,0-13.82-13.41-19.76-17.67-19.76-8.16,0-14.52,4.63-15.23,5.85-.14,.45-.46,.82-.88,1.04-.45,.23-.98,.26-1.45,.07-.86-.34-1.74-.51-2.62-.51-4.24,0-8.52,3.6-8.52,11.65,0,1.04,.04,2.08,.09,3.11,.04,1.06,.09,2.12,.09,3.16,0,6.69-2.45,9.51-4.24,11.56-1.27,1.45-1.87,2.22-1.87,3.72,0,3.38,4.07,4.27,6.23,4.27,.15,0,.37,0,.63-.02,.5-.04,1.03,.17,1.39,.55,.36,.38,.53,.9,.47,1.42-.3,2.52-.46,4.94-.46,7.18,0,9.6,3.34,21.33,12.76,22.79,.85,.13,1.48,.86,1.5,1.71v.64c0,11.08-6.09,16.69-18.12,16.69-1.64,0-4.71-.15-6.35-.23-.56-.03-.96-.05-1.08-.05-9.09,0-13.94,21.45-15.32,39.82-.07,.93-.84,1.63-1.76,1.63ZM80.45,12.48h0s0,0,0,0Z"/>
    <path class="cls-3" d="M135.19,145.97c-.96,0-1.75-.77-1.77-1.74v-.77c0-2.59,.18-5.37,.38-8.3,.21-3.05,.42-6.21,.42-9.27,0-18.78-9.5-20.23-19.55-21.77-7.61-1.17-16.24-2.49-16.24-13.97,0-3.22,.69-6.52,1.2-8.73,.22-.95,1.17-1.54,2.12-1.32,.95,.22,1.54,1.17,1.32,2.12-.48,2.04-1.11,5.07-1.11,7.93,0,8.06,4.79,9.18,13.25,10.48,10.04,1.54,22.54,3.45,22.54,25.26,0,3.18-.22,6.4-.43,9.51-.2,2.87-.38,5.59-.38,8.06v.72c.02,.98-.76,1.78-1.76,1.79Z"/>
    <path class="cls-3" d="M85.69,110.05c-1.34,0-2.46-.15-3.33-.44-2.1-.7-2.33-2.14-2.33-2.72,0-.78-.03-1.56-.05-2.34-.03-.82-.05-1.63-.05-2.45,0-1.91,.15-3.4,.48-4.82,.22-.95,1.17-1.54,2.12-1.31,.95,.22,1.54,1.17,1.31,2.12-.05,.2-.09,.4-.13,.61,2.32-.47,4.2-1.16,5.76-1.73,2.44-.89,4.37-1.6,5.99-.46,1.61,1.12,1.93,3.53,1.93,7.05,0,4.73-7.18,6.49-11.71,6.49Zm-2.13-3.16h0Zm0-.59c1.43,.44,5.97,.3,8.86-1.25,.44-.23,1.46-.85,1.46-1.5,0-2.9-.27-3.82-.42-4.11-.5,.01-1.75,.47-2.76,.84-1.78,.65-4.2,1.54-7.23,2.06,0,.7,.03,1.39,.05,2.09,.02,.62,.04,1.24,.05,1.87Z"/>
    <path class="cls-3" d="M89.4,161.6c-.53-.01-.99-.22-1.32-.59-3.65-4.09-8.8-9.89-12.6-14.35-.36-.43-.5-1-.38-1.54,3-13.01,5.14-23.99,5.88-35.28,.06-.97,.89-1.7,1.88-1.65,.97,.06,1.71,.9,1.65,1.88-.74,11.27-2.84,22.17-5.77,34.97,3.29,3.83,7.42,8.51,10.72,12.22,2.09-2.06,4.27-4.04,6.38-5.97,2.32-2.11,4.72-4.29,6.97-6.55-5.59-13.19-9.13-25.12-10.82-36.43-.14-.96,.52-1.86,1.48-2.01,.96-.15,1.86,.52,2.01,1.48,1.69,11.32,5.3,23.31,11.04,36.65,.28,.66,.14,1.41-.35,1.93-2.56,2.65-5.3,5.13-7.95,7.54-2.54,2.3-5.16,4.69-7.56,7.16-.33,.34-.79,.53-1.26,.53Z"/>
    <path class="cls-3" d="M58.01,144.28c-.73,0-1.41-.46-1.67-1.19-.93-2.67-1.36-5.75-1.36-9.7,0-1.72,.08-3.42,.15-5.07l.06-1.31c.04-.97,.85-1.76,1.84-1.69,.97,.04,1.73,.86,1.69,1.84l-.06,1.33c-.07,1.61-.15,3.28-.15,4.92,0,3.54,.37,6.25,1.17,8.54,.32,.92-.17,1.93-1.09,2.25-.19,.07-.39,.1-.58,.1Z"/>
    <path class="cls-3" d="M118.49,145.34c-.23,0-.46-.04-.69-.14-.9-.38-1.32-1.42-.94-2.31,.26-.63,.4-1.19,.4-1.68,0-2.9-5.47-3.59-6.56-3.7-.97-.1-1.68-.96-1.58-1.93,.1-.97,.95-1.69,1.93-1.58,6.1,.61,9.74,3.31,9.74,7.21,0,.97-.23,2-.68,3.06-.29,.67-.94,1.08-1.63,1.08Z"/>
    <path class="cls-3" d="M65.83,39.4c-.81,0-1.54-.56-1.72-1.39-.21-.95,.39-1.89,1.35-2.1,5.93-1.3,11.04-6.53,13.69-13.98,.18-.5,.57-.89,1.06-1.07,.5-.18,1.05-.13,1.5,.14,2.39,1.42,5.19,2.15,8.33,2.15,6.54,0,14.42-3.29,20.07-8.39,.72-.65,1.84-.6,2.49,.13s.6,1.84-.13,2.49c-4.98,4.5-13.49,9.3-22.44,9.3-3.02,0-5.8-.57-8.3-1.69-3.24,7.61-8.93,12.92-15.53,14.37-.13,.03-.25,.04-.38,.04Z"/>
    <path class="cls-3" d="M78.89,45.14c-1.71,0-3.21-1.56-3.21-3.34,0-1.65,1.1-2.98,2.62-3.17,2.1-.24,3.97,1.36,3.97,3.22s-1.79,3.29-3.38,3.29Zm-.09-3.02c.23-.06,.39-.24,.41-.32,0-.07-.02-.11-.03-.12-.02-.02-.12-.07-.29-.07-.06,0-.11,0-.14,.01,.01,0,0,.05,0,.11l-.23-1.36,.22,1.75s.04,0,.06-.01Z"/>
    <path class="cls-3" d="M102.56,42.85c-1.47,0-2.61-1.19-2.61-2.71,0-1.23,.78-2.47,1.89-3.03,.68-.34,1.5-.21,2.04,.33,.08,.08,.18,.16,.27,.25,.52,.46,1.31,1.16,1.31,2.27,0,.39-.13,.77-.36,1.07-.18,.89-.77,1.82-2.52,1.82Zm.7-2.89l.16,.31s.06-.03,.06-.04c0-.09-.01-.19-.04-.27h-.17Z"/>
    <path class="cls-3" d="M94.59,56.53c-.69,0-1.35-.41-1.63-1.09-.37-.9,.05-1.93,.95-2.31,1.09-.45,2.2-1.95,2.2-2.96,0-.19-.08-.34-.15-.43-.14,.08-.32,.18-.45,.27-.68,.41-1.6,.98-2.74,.98-2.31,0-5.75-2.46-5.75-9.23,0-.93,.05-1.83,.1-2.74,.06-.97,.91-1.73,1.87-1.66,.97,.06,1.72,.89,1.66,1.87-.05,.81-.1,1.67-.1,2.53,0,4.51,1.79,5.66,2.24,5.7,.15-.01,.61-.29,.89-.46,.63-.39,1.42-.87,2.38-.87,1.7,0,3.59,1.73,3.59,4.05s-1.96,5.21-4.38,6.22c-.22,.09-.45,.14-.68,.14Zm1.58-6.88h0Z"/>
    <path class="cls-3" d="M86.64,69.9c-3.86,0-6.92-2.88-8.24-5.73-.41-.88-.02-1.93,.86-2.34,.89-.41,1.93-.02,2.34,.86,.82,1.77,2.74,3.68,5.03,3.68,.25,0,.5-.02,.74-.07,.96-.18,1.88,.45,2.06,1.41,.18,.96-.45,1.88-1.41,2.06-.46,.09-.93,.13-1.4,.13Z"/>
    <path class="cls-3" d="M45.32,99.03c-.93,0-1.7-.72-1.76-1.66-.03-.52-.05-1.05-.05-1.59,0-4.24,1.11-7.51,3.31-9.7,.69-.69,1.81-.69,2.5,0,.69,.69,.69,1.81,0,2.5-1.51,1.51-2.28,3.94-2.28,7.21,0,.47,.02,.93,.04,1.37,.06,.97-.68,1.81-1.65,1.87-.04,0-.07,0-.11,0Z"/>
    <path class="cls-3" d="M107.36,95.53c-.71,0-1.39-.44-1.65-1.15-.5-1.35-.76-2.74-.76-4.13,0-3,1.17-5.64,3.31-7.45,.74-.63,1.86-.54,2.49,.21s.54,1.86-.21,2.49c-1.33,1.12-2.06,2.81-2.06,4.75,0,.97,.18,1.94,.53,2.89,.34,.91-.12,1.93-1.03,2.27-.2,.08-.41,.11-.62,.11Z"/>
    <path class="cls-3" d="M169.2,118.44c-.08,0-.16,0-.24-.02-.97-.13-1.65-1.02-1.52-1.98,.22-1.65,.65-3.39,1.1-5.23,.65-2.65,1.33-5.4,1.33-7.79,0-5.45-2.81-5.93-7.77-6.32-3.66-.28-8.67-.67-8.67-6.42,0-2.9,2.23-5.32,4.38-7.67,1.04-1.13,2.02-2.2,2.68-3.23,1.1-1.72,1.1-6.75,1.1-8.65,0-6.36-1.24-27.13-17.16-27.13-9.78,0-13.96,5.55-13.96,18.57,0,1.72-1.07,2.87-1.92,3.8-.72,.78-1.16,1.28-1.16,1.86,0,.37,.06,.5,.06,.5,.11,.04,.77,.08,1.2,.11,1.76,.12,5.43,.38,5.43,5.72v1.16c0,3.06,1.5,3.96,4.15,5.29,2.48,1.24,5.56,2.78,5.56,7.3,0,4.27-3.06,7.04-7.79,7.04-1.75,0-3.6-.38-5.23-.72-1.3-.27-2.53-.53-3.41-.53-4.86,0-8.03,5.83-9.17,8.34-.4,.89-1.45,1.28-2.34,.88-.89-.4-1.28-1.45-.88-2.34,1.42-3.13,5.48-10.41,12.39-10.41,1.24,0,2.64,.29,4.13,.6,1.54,.32,3.13,.65,4.52,.65,1.94,0,4.26-.61,4.26-3.51,0-2.24-1.17-2.92-3.61-4.14-2.58-1.29-6.11-3.05-6.11-8.44v-1.16c0-2.05-.36-2.08-2.14-2.2-1.36-.09-4.55-.31-4.55-4.13,0-1.99,1.21-3.3,2.1-4.25,.48-.52,.98-1.06,.98-1.4,0-22.1,13.16-22.1,17.49-22.1,15.26,0,20.69,15.84,20.69,30.66,0,4.14-.2,8.28-1.65,10.55-.83,1.29-1.96,2.52-3.05,3.72-1.7,1.85-3.45,3.76-3.45,5.28,0,2.09,.86,2.55,5.41,2.91,4.39,.34,11.03,.85,11.03,9.84,0,2.82-.73,5.77-1.43,8.63-.43,1.75-.83,3.4-1.03,4.85-.12,.89-.88,1.53-1.75,1.53Z"/>
    <path class="cls-3" d="M130.75,65.83c-.71,0-1.39-.44-1.65-1.15-.34-.91,.12-1.93,1.03-2.27,4.35-1.63,7.76-6.24,7.76-10.48v-.29c0-.46-.02-1.42,.89-1.97,.91-.55,1.76-.09,2.04,.06,.35,.19,1.29,.7,3.76,.7,3.14,0,6.55-1.29,9.62-3.62,.77-.59,1.88-.44,2.47,.33,.59,.78,.44,1.88-.33,2.47-3.68,2.8-7.86,4.35-11.76,4.35-1.39,0-2.45-.13-3.29-.32-.75,5.15-4.77,10.15-9.93,12.08-.2,.08-.41,.11-.62,.11Z"/>
    <path class="cls-3" d="M151.9,79.58c-.74,0-1.43-.47-1.67-1.21-.31-.93,.19-1.92,1.12-2.23,.98-.33,1.39-.62,1.56-.77-.14-.36-.38-.93-.59-1.41-1.22-2.86-2.23-5.37-2.23-7.19,0-.34,.02-.69,.07-1.03,.13-.97,1.02-1.64,1.98-1.52,.97,.13,1.65,1.01,1.52,1.98-.03,.19-.04,.38-.04,.57,0,1.24,1.27,4.21,1.95,5.8,.73,1.71,.94,2.23,.94,2.81,0,1.83-1.36,3.21-4.04,4.1-.18,.06-.37,.09-.56,.09Z"/>
    <path class="cls-3" d="M176.21,118.48c-.97,0-1.77-.79-1.77-1.77,0-4.08,0-8.31,1.35-12.58,.29-.93,1.28-1.44,2.22-1.15,.93,.29,1.44,1.29,1.15,2.22-1.19,3.76-1.19,7.53-1.19,11.52,0,.97-.79,1.77-1.77,1.77Z"/>
    <path class="cls-3" d="M147.53,106.67c-4.95,0-5.26-6.07-5.39-8.66-.02-.31-.03-.59-.05-.82-.07-.97,.65-1.82,1.62-1.9,.96-.09,1.82,.65,1.9,1.62,.02,.27,.04,.58,.05,.92,.14,2.75,.46,5.3,1.86,5.3,.36,0,3.66-.66,3.66-2.86,0-.6-.1-1.27-.2-1.99-.11-.76-.22-1.54-.22-2.29,0-.97,.79-1.77,1.77-1.77s1.77,.79,1.77,1.77c0,.5,.09,1.12,.19,1.78,.12,.81,.24,1.64,.24,2.5,0,4.55-5.07,6.39-7.19,6.39Z"/>
    <path class="cls-3" d="M148.42,138.56c-.42,0-.83-.15-1.16-.43l-.56-.48c-2.75-2.38-5.6-4.84-8.13-7.56-.35-.38-.52-.9-.46-1.42,1-8.17,2.03-16.17,3.58-24.13,.19-.96,1.12-1.57,2.07-1.4,.96,.19,1.58,1.11,1.4,2.07-1.48,7.58-2.48,15.24-3.44,23.06,2.01,2.09,4.24,4.06,6.45,5.97,1.29-1.56,2.67-3.04,4.02-4.48l.43-.46c-2.83-8.17-3.43-16.94-3.76-24.56-.04-.97,.71-1.8,1.69-1.84,1.02-.07,1.8,.71,1.84,1.69,.33,7.68,.94,16.54,3.91,24.51,.23,.62,.09,1.33-.36,1.82l-1.17,1.26c-1.78,1.91-3.47,3.71-4.95,5.68-.29,.39-.74,.64-1.22,.69-.06,0-.13,.01-.19,.01Z"/>
  </g>
</svg>