<?xml version="1.0" encoding="UTF-8"?>
<svg id="Capa_1" data-name="Capa 1" xmlns="http://www.w3.org/2000/svg" viewBox="0 0 179.25 166.83">
  <defs>
    <style>
      .cls-1 {
        fill: #e0dfe6;
      }

      .cls-2 {
        fill: #088bcc;
      }

      .cls-3 {
        fill: #282828;
      }
    </style>
  </defs>
  <path class="cls-2" d="M122.61,20.17c-.81-3.97-6.69-2.86-6.83,.92-.04,1.1-.14,2.19-.28,3.27-.71-.27-1.5-.39-2.38-.26-17.33,2.49-35.15,1.88-52.6,3.03-2.25,.15-3.11,3.84-.57,4.22,.89,.13,1.77,.25,2.66,.37-1.5,.13-2.98,.39-4.41,.9-1.58,.57-2.43,3.21-.53,4.05,17.2,7.61,38.51,3.12,56.53,1.75,1.86-.14,3.1-1.19,3.75-2.52,.12,.02,.22,.07,.34,.09,2.84,.38,5.17-1.77,5.29-4.59,.16-3.78-.2-7.52-.96-11.22Z"/>
  <path class="cls-1" d="M60.96,86.62c-.92,1.99-1.98,2.33-4.15,2.75-2.76,.54-5.36,.8-7.56,2.72-1.69,1.47-.32,4.41,1.81,4.37,6.55-.13,15.85,1.92,18.56-6.18,1.68-5.02-6.41-8.57-8.66-3.65Z"/>
  <path class="cls-1" d="M65.25,55.63c-3.11-1.31-5.93,.48-7.09,3.4-1.1,2.79-4.7,3.81-7.41,3.65-4.42-.26-4.52,5.76-.97,7.17,6.75,2.68,14.28-.88,17.98-6.77,1.68-2.68,.28-6.27-2.51-7.45Z"/>
  <path class="cls-1" d="M66.12,119.53c-2.76,3.57-6.49,4.26-10.69,4.1-1.9-.07-2.21,2.35-.89,3.3,5.36,3.87,13.68,1.99,18.01-2.45,4.04-4.14-2.74-9.74-6.43-4.96Z"/>
  <path class="cls-2" d="M158.7,91.55c-2.55-1.49-5.52-.02-6.46,2.63-.06,.17-.08,.25-.09,.28-.11,.23-.21,.45-.33,.68-.3,.57-.63,1.13-1.01,1.64-.04,.05-.34,.51-.49,.65-.46,.44-1.12,.75-1.67,1.06-1.34,.75-1.87,2.5-1.27,3.87,.56,1.27,2.22,2.4,3.66,1.8,3.18-1.33,6.27-3.06,8.55-5.7,1.84-2.12,1.67-5.41-.89-6.91Z"/>
  <g>
    <path class="cls-3" d="M50.99,139.65c-7.16,0-13.22-5.61-13.67-12.84-.78-12.53-1.66-24.16-2.67-35.56-.92-10.39-1.3-24.46-1.67-38.07-.25-9.16-.48-17.81-.86-24.86-.12-2.23,.63-4.37,2.13-6.03,1.49-1.66,3.54-2.63,5.77-2.74,4.95-.25,10.63-.5,16.87-.74,.92-.02,1.64,.66,1.68,1.55,.03,.89-.66,1.64-1.55,1.68-6.23,.25-11.89,.49-16.84,.74-1.37,.07-2.62,.66-3.53,1.68-.91,1.01-1.37,2.32-1.3,3.69,.39,7.1,.62,15.77,.87,24.96,.36,13.56,.74,27.57,1.66,37.87,1.01,11.43,1.89,23.08,2.67,35.64,.36,5.71,5.32,10.09,11.02,9.79,24.93-1.36,40.88-1.78,50.4-2.03,.88-.08,1.63,.68,1.66,1.57,.02,.89-.68,1.63-1.57,1.66-9.51,.25-25.43,.66-50.31,2.02-.25,.01-.5,.02-.75,.02Z"/>
    <path class="cls-3" d="M132.59,97.64c-.91-.01-1.62-.74-1.61-1.63,.03-2.18,.04-4.37,.04-6.55,0-14.26-.51-28.76-1.01-42.78-.24-6.69-.48-13.61-.67-20.42-.07-2.75-2.27-4.93-5.01-4.98-3.03-.05-6.05-.12-9.06-.19h-.37c-.89-.03-1.6-.77-1.58-1.66,.02-.89,.81-1.59,1.65-1.58h.37c3.01,.08,6.02,.15,9.04,.2,4.46,.07,8.06,3.64,8.18,8.12,.19,6.8,.43,13.71,.67,20.4,.5,14.05,1.01,28.58,1.01,42.89,0,2.19-.01,4.39-.04,6.59-.01,.89-.73,1.6-1.61,1.6Z"/>
    <path class="cls-3" d="M80.73,34.44c-1.4,0-2.57-.39-3.71-.76-1.2-.4-2.33-.77-3.85-.77-1.31,0-2.6,.24-3.97,.49-1.43,.26-2.9,.54-4.45,.54-1.8,0-2.8-.32-3.6-.58-.6-.19-1.03-.33-1.81-.33-.49,0-1.02,.07-1.59,.2-.47,.11-.97,0-1.35-.3-.38-.3-.61-.75-.62-1.23-.1-3.95-.29-7.96-.47-11.84l-.14-2.99c-.04-.89,.65-1.64,1.54-1.69,4.78-.22,9.13-.43,13.49-.71,.78-7.41,5.26-14.46,12.85-14.46,8.65,0,12.7,7.59,13.93,12.61,1.97-.05,3.94-.09,5.9-.13,3.81-.07,7.74-.14,11.59-.33,.85-.05,1.6,.6,1.68,1.45,.48,4.75,.49,9.58,.51,14.26,0,1.26,0,2.51,.02,3.76,0,.62-.34,1.19-.89,1.46-.64,.32-1.66,.74-3.13,.74s-2.82-.35-4.15-.7c-1.19-.31-2.3-.59-3.35-.59-.66,0-1.38,.2-2.21,.42-1.14,.31-2.44,.66-4.07,.66s-3.26-.36-4.8-.7c-1.3-.29-2.53-.57-3.62-.57-1.76,0-3.77,.62-5.54,1.17-1.61,.5-3,.93-4.2,.93Zm-7.56-4.76c2.04,0,3.54,.5,4.87,.93,.97,.32,1.81,.6,2.69,.6,.71,0,1.94-.38,3.25-.78,1.99-.61,4.24-1.31,6.49-1.31,1.45,0,2.91,.33,4.33,.65,1.36,.31,2.77,.62,4.09,.62,1.2,0,2.23-.28,3.22-.55,.97-.26,1.97-.54,3.06-.54,1.45,0,2.83,.35,4.15,.7,1.18,.31,2.3,.59,3.34,.59,.3,0,.56-.03,.78-.08,0-.88,0-1.76-.01-2.64-.01-4.09-.03-8.31-.36-12.42-3.39,.14-6.81,.21-10.14,.27-2.4,.04-4.81,.09-7.22,.16-.76,.04-1.52-.56-1.64-1.36-.61-3.9-3.7-11.29-11.03-11.29-6.05,0-9.48,6.45-9.73,12.82-.03,.82-.68,1.49-1.51,1.55-4.37,.29-8.67,.5-13.35,.72l.06,1.37c.16,3.31,.31,6.72,.42,10.11,.13,0,.26,0,.39,0,1.29,0,2.09,.26,2.8,.49,.71,.23,1.32,.42,2.61,.42s2.52-.23,3.86-.48c1.45-.27,2.95-.54,4.55-.54Z"/>
    <path class="cls-3" d="M83.02,21.74c-1.46,0-2.79-.56-3.77-1.56-.97-.99-1.49-2.32-1.47-3.73,.03-2.07,1.27-3.88,3.15-4.63,.57-.23,1.17-.35,1.78-.38,1.53-.07,2.97,.47,4.02,1.45,.95,.89,1.5,2.1,1.55,3.41,.05,1.38-.53,2.82-1.53,3.86-.99,1.02-2.31,1.58-3.73,1.58Zm-.08-7.07s-.07,0-.1,0c-.25,0-.49,.06-.73,.16-.8,.31-1.09,1.07-1.1,1.67,0,.55,.19,1.05,.55,1.42,.37,.38,.89,.59,1.45,.59,.7,0,1.16-.32,1.42-.6,.4-.41,.64-.99,.62-1.5-.02-.46-.19-.85-.52-1.16-.4-.37-.99-.59-1.6-.59Z"/>
    <path class="cls-2" d="M47.29,63.84c-.38,0-.74-.13-1.03-.37-.35-.29-.56-.71-.58-1.16-.18-3.79-.28-7.61-.37-11.31l-.06-2.31c-.02-.88,.66-1.61,1.53-1.65,1.38-.07,2.77-.12,4.16-.16,3.26-.11,6.63-.22,9.89-.65,.44-.06,.89,.07,1.23,.35,.34,.28,.56,.7,.59,1.14,.21,3.21,.6,6.44,.97,9.55,.14,1.14,.27,2.27,.4,3.41,.05,.43-.08,.86-.35,1.2-.27,.34-.67,.55-1.1,.59-1.77,.16-3.53,.29-5.29,.43-3.23,.24-6.57,.5-9.77,.93-.07,0-.14,.01-.22,.01Zm1.23-13.65l.02,.72c.08,3.11,.16,6.31,.29,9.5,2.74-.32,5.51-.52,8.21-.73,1.19-.09,2.39-.18,3.59-.28-.07-.58-.14-1.16-.21-1.74-.32-2.62-.64-5.32-.87-8.04-2.86,.29-5.72,.38-8.5,.48-.85,.03-1.69,.06-2.53,.09Z"/>
    <path class="cls-3" d="M54.47,57.18c-1.97,0-3.54-1.53-6.55-4.45-1.77-1.71-3.96-3.85-7.03-6.48-.68-.58-.75-1.6-.17-2.28,.58-.68,1.6-.76,2.28-.17,3.14,2.69,5.48,4.96,7.18,6.61,1.95,1.89,3.64,3.53,4.32,3.53,.78-.05,2.5-2.21,4.68-4.95,1.64-2.07,3.69-4.64,6.48-7.86,.58-.67,1.6-.75,2.28-.16,.67,.58,.75,1.6,.16,2.28-2.75,3.17-4.77,5.71-6.39,7.76-3.29,4.14-4.79,6.02-6.98,6.17-.09,0-.17,0-.25,0Z"/>
    <path class="cls-2" d="M49.85,91.68c-.86,0-1.57-.67-1.61-1.53l-.11-2.23c-.22-4.42-.45-8.99-.52-13.48-.01-.86,.65-1.58,1.51-1.63,5.29-.36,10.39-.57,15.58-.64,.89,0,1.61,.69,1.64,1.56,.15,4.57,.64,9.52,1.51,15.16,.13,.87-.45,1.68-1.31,1.84-4.84,.87-9.76,.91-14.52,.94,0,0-2.14,.02-2.16,.02Zm1.01-15.75c.09,3.94,.29,7.94,.49,11.83l.03,.68h.6c4.1-.04,8.33-.07,12.42-.65-.65-4.48-1.06-8.56-1.24-12.37-4.09,.08-8.14,.25-12.3,.51Z"/>
    <path class="cls-3" d="M57.06,86.44c-1.19,0-2.1-.87-3.65-2.36-1.89-1.81-5.06-4.83-11.12-9-.73-.51-.92-1.51-.42-2.24,.51-.73,1.51-.92,2.25-.42,6.28,4.32,9.56,7.45,11.52,9.33,.48,.46,.96,.92,1.31,1.22,.24-.33,.56-.83,.87-1.31,1.56-2.43,4.47-6.94,11.13-13.6,.63-.63,1.65-.63,2.28,0,.63,.63,.63,1.65,0,2.28-6.42,6.42-9.2,10.74-10.7,13.07-1.15,1.78-1.84,2.86-3.17,3.02-.1,.01-.2,.02-.3,.02Z"/>
    <path class="cls-2" d="M53.16,126.43c-.8,0-1.49-.6-1.6-1.41-.61-4.71-.78-9.37-.94-13.87-.04-1.03-.08-2.07-.12-3.11-.03-.85,.6-1.58,1.45-1.67,5.21-.54,10.78-1.1,16.48-1.58,.44-.03,.87,.11,1.19,.39,.33,.29,.53,.69,.55,1.13,.31,5.49,.81,11.12,1.26,15.9,.08,.84-.51,1.6-1.34,1.74l-1.63,.27c-4.92,.83-10,1.69-15.14,2.19-.05,0-.11,0-.16,0Zm.63-17c.02,.54,.04,1.07,.06,1.61,.15,4.1,.29,8,.73,12.01,4.5-.51,8.99-1.26,13.35-2l.15-.03c-.37-3.97-.75-8.43-1.03-12.87-4.55,.39-9.01,.84-13.26,1.28Z"/>
    <path class="cls-3" d="M59.5,119.03c-.39,0-.77-.14-1.06-.4-1.57-1.37-3.06-2.84-4.5-4.26-2.65-2.61-5.15-5.07-8.16-7.08-.74-.5-.94-1.5-.45-2.24,.5-.74,1.5-.94,2.24-.45,3.27,2.18,6,4.87,8.64,7.46,1.02,1,2.07,2.03,3.13,3.02,.92-1.1,1.83-2.2,2.75-3.29,3.31-3.97,6.73-8.08,10.21-11.98,.59-.66,1.61-.72,2.28-.13,.66,.59,.72,1.62,.13,2.28-3.45,3.85-6.7,7.76-10.14,11.89-1.27,1.52-2.54,3.05-3.83,4.58-.28,.33-.68,.54-1.11,.57-.04,0-.08,0-.12,0Z"/>
    <path class="cls-3" d="M78.87,55.8c-.87,0-1.59-.69-1.61-1.57-.03-.89,.68-1.63,1.57-1.66,7.47-.21,14.96-.7,22.21-1.18,3.82-.25,7.65-.5,11.52-.72,.9-.03,1.65,.63,1.7,1.52,.05,.89-.63,1.65-1.52,1.7-3.86,.21-7.68,.46-11.49,.71-7.28,.48-14.8,.97-22.38,1.18Z"/>
    <path class="cls-3" d="M79.81,81.37c-.78,0-1.46-.56-1.59-1.36-.14-.88,.46-1.71,1.33-1.85,6.24-1.01,12.61-1.05,18.77-1.09,5.49-.03,11.17-.07,16.63-.81,.88-.13,1.7,.5,1.82,1.38,.12,.88-.5,1.7-1.38,1.82-5.66,.77-11.45,.8-17.04,.84-6.04,.04-12.28,.08-18.27,1.05-.09,.01-.17,.02-.26,.02Z"/>
    <path class="cls-3" d="M84.85,110.49c-1.7,0-3.41-.03-5.09-.08-.89-.03-1.59-.77-1.56-1.66,.03-.89,.77-1.58,1.66-1.56,9.2,.29,18.65-.22,29.1-1.57,.88-.12,1.69,.51,1.81,1.39,.11,.88-.51,1.69-1.39,1.81-8.72,1.13-16.74,1.67-24.52,1.67Z"/>
    <path class="cls-3" d="M91.97,161.6c-.39,0-.78-.14-1.08-.42-.48-.43-.65-1.1-.45-1.71,17.49-52.4,51.19-75.66,61.04-75.66,6.95,0,11.38,8.02,11.38,13.54,0,6.53-15.14,25.1-45,55.21-.26,.26-.61,.43-.98,.47-9.27,.98-15.19,3.94-20.41,6.56-1.33,.66-2.58,1.29-3.84,1.86-.21,.1-.44,.14-.67,.14Zm59.51-74.56c-3.61,0-13.83,5.33-25.22,17.18-9.33,9.71-22.18,26.59-31.49,52.61,.09-.04,.17-.09,.26-.13,5.1-2.55,11.41-5.72,20.94-6.82,39.4-39.76,43.66-49.98,43.66-52.53,0-3.64-3.1-10.31-8.15-10.31Z"/>
    <path class="cls-3" d="M103.1,154.9c-.46,0-.91-.19-1.23-.56l-.75-.86c-1.69-1.94-3.29-3.78-4.48-6.47-.36-.82,0-1.77,.82-2.13,.82-.36,1.77,0,2.13,.82,1,2.24,2.37,3.82,3.97,5.66l.76,.88c.58,.68,.5,1.7-.17,2.28-.3,.26-.68,.39-1.05,.39Z"/>
    <path class="cls-3" d="M147.67,113.3c-.36,0-.72-.12-1.02-.37-4.99-4.1-9.74-8.57-14.34-12.89l-1.19-1.12c-.65-.61-.68-1.63-.07-2.28,.61-.65,1.63-.68,2.28-.07l1.19,1.12c4.56,4.28,9.28,8.71,14.19,12.75,.69,.57,.79,1.58,.22,2.27-.32,.39-.78,.59-1.25,.59Z"/>
    <path class="cls-3" d="M150.83,108.2c-.28,0-.57-.07-.83-.23-4.93-2.96-8.87-7.22-12.4-11.39-.58-.68-.49-1.7,.19-2.28,.68-.57,1.7-.49,2.28,.19,3.35,3.96,7.07,7.99,11.59,10.71,.77,.46,1.01,1.45,.55,2.21-.3,.5-.84,.78-1.39,.78Z"/>
    <path class="cls-3" d="M152.41,100.3c-.34,0-.68-.11-.97-.32-.22-.17-.44-.32-.66-.47-1.1-.77-2.34-1.64-3.03-3.37-.33-.83,.07-1.77,.9-2.1,.83-.33,1.77,.07,2.1,.9,.32,.8,.9,1.24,1.89,1.94,.24,.17,.49,.34,.74,.53,.71,.53,.86,1.55,.32,2.26-.32,.42-.8,.65-1.29,.65Z"/>
    <path class="cls-3" d="M117.16,149.48c-.1,0-.21-.01-.32-.03-.87-.17-1.44-1.03-1.27-1.9,.07-.36,.19-.79,.31-1.24,.19-.67,.42-1.5,.43-2.04-.12-.02-.3-.03-.57-.03-3.43,0-4.63,.67-4.81,.79-.4,.39-.8,.46-1.12,.46-.89,0-1.61-.72-1.61-1.62,0-.21,0-.62,.4-1.08,.12-.22,.58-1.27,.58-3.9,0-.35,0-1.18-1.75-1.18-.41,0-.83,.03-1.27,.06-.52,.03-1.06,.07-1.59,.07-1,0-1.81-.12-2.56-.36-.85-.28-1.3-1.2-1.02-2.04,.28-.85,1.2-1.31,2.04-1.02,.41,.13,.89,.2,1.54,.2,.46,0,.93-.03,1.38-.06,.51-.03,1-.06,1.47-.06,3.67,0,4.98,2.38,4.98,4.41,0,.86-.04,1.65-.13,2.37,1.01-.17,2.16-.25,3.46-.25,3.3,0,3.8,2.01,3.8,3.22,0,.97-.29,2.02-.55,2.95-.1,.37-.2,.72-.26,1.01-.15,.77-.83,1.3-1.58,1.3Zm-6.24-4.44h0Zm.16-.16s-.07,.08-.11,.11c.03-.03,.07-.07,.11-.11Z"/>
    <path class="cls-3" d="M111.06,143.55c-.38,0-.76-.13-1.07-.41-.67-.59-.73-1.61-.13-2.28,4.11-4.63,8.41-9.22,12.57-13.67,6.06-6.48,12.34-13.18,18.12-20.08,.57-.68,1.59-.77,2.27-.2,.68,.57,.77,1.59,.2,2.27-5.84,6.97-12.14,13.7-18.24,20.22-4.15,4.43-8.43,9.01-12.52,13.61-.32,.36-.76,.54-1.21,.54Z"/>
  </g>
</svg>