<?xml version="1.0" encoding="UTF-8"?>
<svg id="Capa_1" data-name="Capa 1" xmlns="http://www.w3.org/2000/svg" viewBox="0 0 180.19 171.99">
  <defs>
    <style>
      .cls-1 {
        fill: #088bcc;
      }

      .cls-2 {
        fill: #282828;
      }
    </style>
  </defs>
  <path class="cls-1" d="M111.47,41.8c-1.41-1.11-3.18-1.6-4.83-.62-1.11,.65-1.81,1.33-2.43,2.46-1.88,3.42,1.65,6.56,4.53,5.9,2.39,1.75,5.13,3.99,5.17,5.79,.05,1.77-7.07,7.13-8.25,8.24-4.94,4.68-10,9.22-15.13,13.69-5.8-6.01-12.03-12.18-19.35-16.07-1.74-.92-4.22,1.06-2.91,2.91,5.46,7.74,12.89,14.22,19.34,21.14,1.5,1.61,3.86,1.29,5.4,0,8.74-7.31,17.99-14.78,25.62-23.28,7.34-8.17-.39-14.82-7.16-20.17Z"/>
  <g>
    <path class="cls-2" d="M81.58,126.64c-5.14,0-7.49-2.8-9.57-5.28-1.93-2.29-3.45-4.11-7.09-4.11-2.06,0-3.6,.47-5.08,.93-1.25,.38-2.43,.75-3.73,.75-3.69,0-6.85-2.3-7.67-5.59-2.45-9.79-6.53-12.1-10.13-14.13-3.08-1.74-6.26-3.53-6.26-9.6,0-3.18,1.11-4.84,2.08-6.31,.98-1.48,1.83-2.75,1.83-5.96,0-6.1-2.84-8.88-5.6-11.57-2.39-2.34-4.87-4.76-4.87-8.95,0-4.98,3.02-7.5,5.94-9.93,3.34-2.78,6.5-5.41,6.5-12.09,0-.78-.02-1.57-.04-2.37-.02-.84-.05-1.68-.05-2.53,0-9.48,4.37-14.7,12.31-14.7,1.04,0,2.09,.07,3.11,.13,1.02,.07,1.98,.13,2.92,.13,4.58,0,5.79-2.51,7.46-5.99,2.03-4.23,4.55-9.49,14.07-9.49,4.68,0,7.66,1.77,10.28,3.33,1.98,1.18,3.7,2.21,5.86,2.21s3.99-.98,6.04-2.11c2.75-1.52,5.88-3.25,10.86-3.25,7.04,0,10.95,6.84,13.05,10.52,1.92,3.36,5.66,4.21,9.62,5.12,5.42,1.24,12.16,2.78,12.16,12.41,0,.73-.03,1.46-.07,2.19-.03,.68-.06,1.35-.06,2.02,0,4.21,2.48,5.79,5.63,7.8,3.29,2.1,7.38,4.71,7.38,11.06,0,1.98-.51,3.83-1.53,5.52-.32,.54-.66,1.08-1.01,1.64-1.79,2.88-3.64,5.85-3.64,8.59,0,1.65,.95,3.15,2.05,4.88,1.44,2.27,3.08,4.85,3.08,8.51,0,5.86-4.5,8.23-7.18,9.65l-.42,.22c-3.45,1.84-3.48,3.52-3.53,6.3-.1,5.74-1.35,10.96-15.73,16.8-4.02,1.63-5.65,4.01-7.23,6.31-1.77,2.58-3.6,5.25-8.31,5.25-3.04,0-6.75-.97-10.33-1.92-3.13-.82-6.36-1.67-8.58-1.67-3.13,0-4.64,1.09-6.4,2.35-1.9,1.37-4.06,2.92-8.08,2.92Zm-16.66-12.83c5.25,0,7.63,2.83,9.73,5.33,1.9,2.26,3.4,4.05,6.93,4.05,2.91,0,4.3-1,6.07-2.27,1.96-1.41,4.17-3,8.41-3,2.66,0,5.97,.87,9.46,1.79,3.37,.89,6.86,1.8,9.46,1.8,2.89,0,3.81-1.33,5.46-3.75,1.69-2.46,3.8-5.53,8.77-7.55,13.44-5.46,13.51-9.63,13.58-13.67,.05-3.04,.11-6.49,5.36-9.28l.43-.23c3.13-1.65,5.34-3.09,5.34-6.6,0-2.65-1.24-4.6-2.54-6.66-1.27-2.01-2.59-4.08-2.59-6.73,0-3.72,2.21-7.28,4.17-10.41,.34-.54,.67-1.07,.98-1.59,.69-1.15,1.04-2.41,1.04-3.75,0-4.46-2.55-6.09-5.78-8.15-3.39-2.16-7.22-4.61-7.22-10.71,0-.72,.03-1.45,.07-2.18,.03-.68,.06-1.36,.06-2.03,0-6.88-3.97-7.79-9.48-9.05-4.3-.98-9.17-2.1-11.84-6.77-2.43-4.25-5.41-8.78-10.05-8.78-4.09,0-6.68,1.43-9.19,2.82-2.26,1.25-4.6,2.54-7.71,2.54s-5.41-1.37-7.63-2.69c-2.46-1.47-4.78-2.85-8.51-2.85-7.35,0-9.03,3.49-10.96,7.53-1.79,3.73-3.82,7.95-10.56,7.95-1.06,0-2.12-.07-3.14-.13-1.01-.06-1.96-.12-2.89-.12-2.19,0-8.86,0-8.86,11.25,0,.82,.02,1.63,.05,2.43,.02,.83,.05,1.65,.05,2.46,0,8.29-4.29,11.87-7.74,14.74-2.73,2.27-4.69,3.91-4.69,7.28,0,2.73,1.61,4.31,3.83,6.48,2.96,2.89,6.63,6.49,6.63,14.04,0,4.25-1.34,6.26-2.41,7.87-.87,1.31-1.5,2.26-1.5,4.4,0,4.05,1.6,4.96,4.51,6.6,3.79,2.14,8.98,5.06,11.78,16.29,.44,1.75,2.21,2.97,4.32,2.97,.78,0,1.68-.28,2.72-.59,1.57-.48,3.52-1.08,6.1-1.08Z"/>
    <path class="cls-2" d="M92.65,111.57c-13.06,0-25.34-5.31-34.64-14.97-9.55-9.93-14.66-23.38-14.01-36.9,1.06-22.16,19.95-40.91,43.01-42.67,1.79-.14,3.55-.21,5.24-.21,27.89,0,47.75,18.6,48.34,45.22,.29,13.12-4.53,25.5-13.59,34.84-8.93,9.22-21.29,14.57-33.91,14.69-.15,0-.29,0-.44,0Zm-.4-91.3c-1.6,0-3.28,.07-4.98,.2-21.35,1.64-38.85,18.94-39.83,39.4-.6,12.58,4.16,25.1,13.05,34.35,8.74,9.08,20.34,14.03,32.56,13.91,11.71-.11,23.18-5.08,31.47-13.64,8.41-8.68,12.89-20.17,12.62-32.37-.55-24.63-19-41.84-44.9-41.85Z"/>
    <path class="cls-2" d="M88.91,92.09c-.47,0-.94-.19-1.27-.56-7.91-8.67-17.09-18.8-25.94-29.2-.58-.68-.54-1.68,.07-2.32,3.67-3.8,7.58-7.58,11.95-11.55,.35-.31,.81-.47,1.27-.44,.47,.03,.9,.25,1.2,.61l1.4,1.67c3.02,3.58,6.12,7.27,9.31,10.82,7.55-6.72,15.12-13.33,23.11-20.17,.71-.61,1.78-.54,2.41,.16,1.04,1.17,2.09,2.33,3.14,3.49,3.35,3.71,6.81,7.55,10.04,11.54,.58,.72,.49,1.78-.21,2.39-6.18,5.35-12.16,11.17-17.94,16.8-5.6,5.46-11.4,11.11-17.41,16.35-.33,.28-.73,.42-1.13,.42Zm-23.57-30.81c8.08,9.45,16.39,18.64,23.7,26.67,5.49-4.87,10.83-10.06,16-15.1,5.42-5.28,11.02-10.73,16.83-15.84-2.87-3.46-5.91-6.84-8.86-10.11-.68-.75-1.35-1.5-2.03-2.25-7.95,6.82-15.5,13.43-23.05,20.17-.7,.63-1.78,.57-2.42-.12-3.63-3.97-7.14-8.15-10.54-12.18l-.25-.29c-3.37,3.1-6.46,6.08-9.38,9.06Z"/>
    <path class="cls-2" d="M73.66,95.76c-3.82,0-4.52-2.66-4.85-3.93-.03-.12-.07-.27-.11-.4-.15,.03-.33,.07-.5,.11-.5,.12-1.08,.25-1.7,.25-3.54,0-4.16-3.06-4.49-4.7-.42-2.07-.62-2.23-1.57-2.23-.22,0-.45,.02-.68,.07-.94,.18-1.84-.42-2.03-1.35-.19-.93,.42-1.84,1.35-2.03,.46-.09,.91-.14,1.36-.14,3.93,0,4.59,3.25,4.95,5,.39,1.94,.55,1.94,1.11,1.94,.23,0,.58-.08,.91-.16,.47-.11,1.01-.24,1.57-.24,2.37,0,2.93,2.1,3.16,3,.31,1.16,.36,1.37,1.52,1.37,.25,0,.54-.03,.86-.1,.94-.18,1.84,.42,2.03,1.36,.19,.93-.42,1.84-1.36,2.03-.55,.11-1.05,.16-1.53,.16Z"/>
    <path class="cls-2" d="M91.36,102.1c-2.41,0-3.93-.98-5.15-1.77-.9-.58-1.44-.91-2.1-.91-.5,0-.86,.17-1.08,.5-.53,.79-1.6,1.01-2.39,.48-.79-.53-1.01-1.6-.48-2.39,.86-1.29,2.3-2.03,3.95-2.03s2.91,.77,3.97,1.46c1.01,.65,1.89,1.22,3.28,1.22,.95,0,2.19-.6,2.85-.93,.51-.25,.84-.41,1.31-.41,.73,0,1.39,.23,2.03,.45,.53,.19,1.03,.36,1.47,.36,.02,0,.04,0,.06,0,.02-.04,.04-.09,.06-.13,.21-.48,.57-1.28,1.46-1.88,.79-.53,1.86-.31,2.39,.48,.53,.79,.31,1.86-.48,2.39-.05,.03-.13,.22-.21,.4-.31,.71-.97,2.19-3.27,2.19-1.03,0-1.91-.31-2.61-.56-.19-.07-.45-.16-.65-.21-.95,.46-2.65,1.29-4.39,1.29Z"/>
    <path class="cls-2" d="M112.48,96.28c-.8,0-1.52-.24-2.15-.71-.76-.57-.92-1.65-.35-2.41,.57-.76,1.65-.92,2.41-.35,.02,.02,.03,.02,.08,.02,1.49,0,1.93-.72,2.73-2.23,.63-1.2,1.5-2.84,3.46-3.17,2.26-.38,2.48-1.14,2.97-2.81,.14-.49,.29-.98,.48-1.46,.35-.88,1.36-1.31,2.24-.96,.88,.35,1.31,1.36,.96,2.24-.15,.38-.26,.77-.38,1.15-.56,1.9-1.32,4.51-5.72,5.24-.27,.05-.65,.75-.97,1.38-.8,1.52-2.14,4.07-5.78,4.07Z"/>
    <path class="cls-2" d="M63.07,41.71c-.95,0-1.72-.77-1.72-1.72,0-3.17,3.33-5.72,6.08-5.72,.27,0,.55,.01,.83,.03,.22,.01,.44,.02,.65,.02,.76,0,1.02-.26,1.82-1.83,.54-1.06,1.2-2.37,2.51-3.24,.85-.57,1.82-.57,2.52-.58,.24,0,.59,0,.71-.04,.79-.53,1.82-.29,2.35,.5,.53,.79,.27,1.88-.52,2.41-.85,.57-1.81,.57-2.52,.58-.24,0-.59,0-.71,.04-.47,.33-.86,1.09-1.27,1.89-.75,1.48-1.89,3.72-4.89,3.72-.27,0-.55-.01-.83-.03-.22-.01-.43-.02-.65-.02-.94,0-2.63,1.14-2.63,2.27,0,.95-.77,1.72-1.72,1.72Z"/>
    <path class="cls-2" d="M86.09,29.92c-.95,0-1.72-.77-1.72-1.72,0-1.94,1.58-3.25,3.94-3.25,1.17,0,2.19,.43,3.1,.8,.67,.28,1.3,.54,1.79,.54,.26,0,.4-.09,.86-.45,.58-.46,1.54-1.19,2.89-1.04,.91,.1,1.72,.47,2.43,.8,.67,.31,1.31,.6,1.87,.6,.95,0,1.72,.77,1.72,1.72s-.77,1.72-1.72,1.72c-1.31,0-2.42-.5-3.31-.91-.52-.24-1.02-.47-1.38-.51,0,.03-.23,.2-.38,.32-.6,.48-1.52,1.2-3,1.2-1.18,0-2.21-.43-3.11-.81-.66-.28-1.29-.54-1.77-.54-.23,0-.4,.03-.51,.05-.12,.83-.84,1.47-1.71,1.47Z"/>
    <path class="cls-2" d="M121.48,42.55c-.63,0-1.24-.35-1.54-.95-.28-.55-.43-1.17-.58-1.77-.08-.33-.21-.84-.33-1.1-1.09-.42-2.54-1.49-4.44-2.93-.4-.3-.88-.67-1.26-.94-.6,.2-1.3,.07-1.78-.41-.67-.67-.67-1.76,0-2.43,.69-.69,1.39-.83,1.86-.83,.8,0,1.37,.43,3.26,1.86,.98,.74,3.01,2.28,3.63,2.47,1.65,.51,2.08,2.22,2.4,3.46,.1,.4,.21,.85,.32,1.06,.43,.85,.08,1.89-.77,2.31-.25,.12-.51,.18-.77,.18Z"/>
    <path class="cls-2" d="M80,157.39c-.39,0-.78-.13-1.1-.39-3.93-3.24-9.22-7.9-12.88-11.36-1.6,.24-3.2,.45-4.81,.66-3.8,.5-7.74,1.01-11.46,1.91-.63,.15-1.29-.06-1.71-.55-.42-.49-.53-1.18-.29-1.78,3.62-8.8,7.77-17.46,11.78-25.84l1.97-4.11c.41-.86,1.44-1.22,2.3-.81,.86,.41,1.22,1.44,.81,2.3l-1.97,4.12c-3.53,7.37-7.17,14.96-10.44,22.64,2.86-.54,5.74-.91,8.56-1.28,1.86-.24,3.72-.48,5.56-.77,.53-.08,1.07,.09,1.46,.46,2.96,2.83,7.24,6.66,10.95,9.8,1.37-7.98,4.19-15.45,6.7-22.13,1.11-2.95,2.16-5.73,2.94-8.2,.29-.91,1.25-1.42,2.16-1.13,.91,.29,1.41,1.25,1.13,2.16-.8,2.56-1.87,5.39-3,8.38-2.77,7.35-5.91,15.69-6.96,24.42-.07,.63-.49,1.16-1.07,1.4-.21,.08-.42,.12-.64,.12Z"/>
    <path class="cls-2" d="M111.91,152.81c-.68-.02-1.25-.38-1.53-.94-2.6-5.07-4.78-10.41-6.89-15.57-1.95-4.79-3.97-9.73-6.3-14.39-.43-.85-.08-1.89,.77-2.31,.85-.43,1.89-.08,2.31,.77,2.39,4.78,4.43,9.79,6.41,14.63,1.69,4.14,3.43,8.4,5.38,12.5,2.09-3.4,4.64-7.3,7.52-10.99,.39-.5,1.02-.74,1.64-.64,3.49,.58,8.25,1.13,12.44,1.53-5.37-8.13-8.38-15.53-9.41-23.05-.13-.94,.53-1.81,1.48-1.94,.94-.14,1.81,.53,1.94,1.48,1.07,7.88,4.54,15.69,10.9,24.56,.39,.55,.43,1.27,.1,1.86-.33,.59-.97,.92-1.64,.87-4.51-.38-10.75-1.02-15.35-1.73-3.3,4.33-6.15,8.94-8.29,12.53-.31,.52-.88,.84-1.48,.84Z"/>
  </g>
</svg>