<?xml version="1.0" encoding="utf-8"?>
<!-- Generator: Adobe Illustrator 27.0.0, SVG Export Plug-In . SVG Version: 6.00 Build 0)  -->
<svg version="1.1" id="Layer_1" xmlns="http://www.w3.org/2000/svg" xmlns:xlink="http://www.w3.org/1999/xlink" x="0px" y="0px"
	 viewBox="0 0 64 64" style="enable-background:new 0 0 64 64;" xml:space="preserve">
<style type="text/css">
	.st0{fill:none;stroke:#FFFFFF;stroke-width:2;stroke-linecap:round;stroke-linejoin:round;}
</style>
<path class="st0" d="M19.6,43.1l-5.8-5.7c-1.1-1.1-1.1-2.8,0-3.8l0,0c1.1-1.1,2.8-1.1,3.8,0l5.8,5.8c1.1,1.1,1.1,2.8,0,3.8l0,0
	C22.3,44.1,20.6,44.1,19.6,43.1z"/>
<path class="st0" d="M24.7,40.5l-8.4-8.4c-1.1-1.1-1.1-2.8,0-3.8l0,0c1.1-1.1,2.8-1.1,3.8,0l8.4,8.4c1.1,1.1,1.1,2.8,0,3.8l0,0
	C27.5,41.6,25.8,41.6,24.7,40.5z"/>
<path class="st0" d="M27.3,35.4l-5.8-5.8c-1.1-1.1-1.1-2.8,0-3.8l0,0c1.1-1.1,2.8-1.1,3.8,0l5.8,5.8c1.1,1.1,1.1,2.8,0,3.8l0,0
	C30.1,36.4,28.3,36.4,27.3,35.4z"/>
<path class="st0" d="M29.6,30L50.4,9.3c0.8-0.8,0.8-2,0.2-2.9l0,0c-0.7-0.9-2.1-1.1-3.1-0.4c-0.1,0.1-0.1,0.1-0.2,0.2L27.2,26.4"/>
<path class="st0" d="M12.9,35.7v18.7c0,1.3,1,2.3,2.3,2.3l0,0c1.3,0,2.3-1,2.3-2.3v-2.7c0-1.3,1-2.3,2.3-2.3l0,0l0,0
	c1.3,0,2.3,1,2.3,2.3l0,0v0.9c0,1.3,1,2.3,2.3,2.3l0,0l0,0c1.3,0,2.3-1,2.3-2.3V42"/>
</svg>
