<?xml version="1.0" encoding="utf-8"?>
<!-- Generator: Adobe Illustrator 27.0.0, SVG Export Plug-In . SVG Version: 6.00 Build 0)  -->
<svg version="1.1" id="Capa_1" xmlns="http://www.w3.org/2000/svg" xmlns:xlink="http://www.w3.org/1999/xlink" x="0px" y="0px"
	 viewBox="0 0 64 64" style="enable-background:new 0 0 64 64;" xml:space="preserve">
<style type="text/css">
	.st0{fill:#FFFFFF;}
</style>
<g id="Bottle-6">
	<path class="st0" d="M43.3,33.6v-5.1c0-5.3-2.5-10.3-6.6-13.5l-0.3-0.3v-2.5c0.5-0.3,0.9-0.9,0.9-1.5V7.1c0-1-0.8-1.8-1.7-1.8h-6.9
		c-1,0-1.7,0.8-1.7,1.8v3.6c0,0.6,0.3,1.2,0.9,1.5v2.5L27.3,15c-4.1,3.2-6.6,8.2-6.6,13.5v5.1c0,1.8,0.5,3.6,1.4,5.1
		c0.7,1.2,1.1,2.6,1.2,4c-0.1,1.1-0.4,2.2-0.9,3.2c-1.1,2.3-1.7,4.8-1.7,7.4v1c0,2.4,1.9,4.4,4.3,4.4h13.9c2.4,0,4.3-2,4.3-4.4v-1
		c0-2.6-0.5-5.1-1.6-7.4c-0.5-1-0.9-2.1-1-3.2c0-1.4,0.4-2.8,1.2-4C42.8,37.1,43.3,35.4,43.3,33.6z M28.5,7.1h6.9v3.6h-6.9V7.1z
		 M28.4,16.4l0.7-0.5c0.2-0.2,0.3-0.4,0.3-0.7v-2.7h5.2v2.7c0,0.3,0.1,0.5,0.3,0.7l0.7,0.5c1.7,1.3,3.1,3,4.1,5H24.2
		C25.2,19.4,26.6,17.7,28.4,16.4z M22.5,28.4c0-1.8,0.3-3.6,1-5.3h17.2c0.6,1.7,1,3.5,1,5.3v5.1c0,0.1,0,0.1,0,0.2h-19
		c0-0.1,0-0.1,0-0.2V28.4z M40.1,46.6c1,2,1.5,4.3,1.5,6.6v1c0,1.5-1.2,2.7-2.6,2.7H25.1c-1.4,0-2.6-1.2-2.6-2.7v-1
		c0-2.3,0.5-4.5,1.5-6.6c0.7-1.2,1.1-2.6,1.1-4c0-1.7-0.5-3.4-1.4-4.9c-0.4-0.7-0.7-1.4-0.9-2.2h18.5c-0.2,0.8-0.5,1.5-0.9,2.2
		c-0.9,1.5-1.4,3.2-1.4,4.9C39,44.1,39.4,45.4,40.1,46.6z"/>
</g>
</svg>
