<?xml version="1.0" encoding="utf-8"?>
<!-- Generator: Adobe Illustrator 27.0.0, SVG Export Plug-In . SVG Version: 6.00 Build 0)  -->
<svg version="1.1" id="Capa_1" xmlns="http://www.w3.org/2000/svg" xmlns:xlink="http://www.w3.org/1999/xlink" x="0px" y="0px"
	 viewBox="0 0 512 512" style="enable-background:new 0 0 512 512;" xml:space="preserve">
<style type="text/css">
	.st0{fill:#FFFFFF;stroke:#000000;stroke-width:0.25;stroke-miterlimit:10;}
	.st1{fill:#FFFFFF;stroke:#FFFFFF;stroke-linecap:round;stroke-linejoin:round;stroke-miterlimit:10;}
	.st2{fill:#FFFFFF;}
</style>
<path class="st0" d="M311.5,107.4c25.7,0,50.9,8.7,62.6,21.6c4.5,5,6.5,10,5.7,14.9c-2,13.3-9.6,45.4-9.7,45.8l-1.5,6.4l5.5,3.8
	c19,13.1,31.4,26,42.2,56.1c5.9,16.6,5.6,42.4,3.2,50.1l-1.1,3.5l1.5,3.3c8.8,19,11.7,45.7,11.8,48.6c0,34.5-70.6,71.5-175.8,71.5
	s-175.8-37-175.8-71.5c0-19.9,7-35.4,7.1-35.5l1.8-3.9l-1.8-4l-0.8-1.8c-4.5-9.9-7.7-17.1-5.6-29.7c8.3-49,29.2-64.4,51.4-80.6
	c2.4-1.8,4.8-3.5,7.2-5.3l5-3.8l-1.3-6c-0.1-0.4-9.3-41.2-10.7-48.1c-1.5-7.3-0.1-13.3,4.2-18.3c10.7-12.4,36.5-16.9,51.2-16.9
	H311.5 M311.5,97.6c0,0-100.2,0-123.5,0s-73.2,9.9-65.6,47c1.4,7,10.7,48.3,10.7,48.3c-24.9,18.8-52.5,33.7-62.4,92.1
	c-2.8,16.4,2,25.7,7.1,37c0,0-8,17.1-8,39.5c0,44.9,83.3,81.3,186.1,81.3s186.1-36.4,186.1-81.3c0-3.1-3-31.7-12.6-52.6
	c3.2-10,3.1-38.1-3.3-56.1c-11.5-32-25.3-46.7-45.9-60.9c0,0,7.8-32.7,9.8-46.6C393.9,119.6,354.4,97.6,311.5,97.6L311.5,97.6z"/>
<path class="st1" d="M271.5,290c34.3,1.1,72.2-16.6,93.1-39.5 M323.2,359c40.8-0.3,89.9-23.9,100.6-48.9 M82.6,319.8
	c5.9,10.8,23.6,27,44.2,29.3"/>
<path class="st0" d="M256,181.4c-58.8,0-108.6-21.8-108.6-47.7c0-30.6,57-60.8,77.5-60.8c4.2,0,10.8,7.1,16.2,12.8
	c7.7,8.3,15.7,16.8,25.2,16.8c8.5,0,14.8-5.1,21-10c6.3-5,12.2-9.7,20.3-9.7c16.5,0,56.9,27.2,56.9,51
	C364.6,159.6,314.8,181.4,256,181.4z"/>
<path class="st0" d="M224.8,77.8c2.7,0.7,8.8,7.2,12.4,11.1c8.5,9.1,17.2,18.5,29.1,18.5c10.3,0,17.8-5.9,24.3-11.1
	c5.8-4.6,10.8-8.6,17-8.6c14.2,0,51.7,25.6,51.7,46c0,20.2-42.5,42.7-103.4,42.7S152.6,154,152.6,133.8
	C152.6,107,206.6,78,224.8,77.8 M224.2,69.1c-21.5,0-80.8,31.8-80.8,65.8c0,28.9,50,52.6,111.2,52.6s111.2-23.7,111.2-52.6
	c0-27.2-42.6-55.9-60.6-55.9c-18.3,0-26.6,19.7-40.4,19.7C250.8,98.7,237.2,69.1,224.2,69.1L224.2,69.1z"/>
<path class="st1" d="M137.1,191.3c0,0,26.9,39.5,118.9,39.5s118.9-39.5,118.9-39.5"/>
<path class="st2" d="M230.2,107.4c-2.9,0-5.2,2.2-5.2,4.9s2.3,4.9,5.2,4.9s5.2-2.2,5.2-4.9S233,107.4,230.2,107.4z"/>
<g>
	<path class="st2" d="M209.5,117.3c-2.9,0-5.2,2.2-5.2,4.9s2.3,4.9,5.2,4.9s5.2-2.2,5.2-4.9S212.3,117.3,209.5,117.3z"/>
</g>
<g>
	<path class="st2" d="M230.2,127.2c-2.9,0-5.2,2.2-5.2,4.9c0,2.7,2.3,4.9,5.2,4.9s5.2-2.2,5.2-4.9
		C235.3,129.4,233,127.2,230.2,127.2z"/>
</g>
</svg>
