<?xml version="1.0" encoding="utf-8"?>
<!-- Generator: Adobe Illustrator 27.0.0, SVG Export Plug-In . SVG Version: 6.00 Build 0)  -->
<svg version="1.1" id="Layer_1" xmlns="http://www.w3.org/2000/svg" xmlns:xlink="http://www.w3.org/1999/xlink" x="0px" y="0px"
	 viewBox="0 0 64 64" style="enable-background:new 0 0 64 64;" xml:space="preserve">
<style type="text/css">
	.st0{fill:none;stroke:#FFFFFF;stroke-miterlimit:10;}
	.st1{fill:none;stroke:#FFFFFF;stroke-width:2;stroke-linecap:round;stroke-linejoin:round;}
</style>
<ellipse class="st0" cx="35.6" cy="26.3" rx="15.8" ry="16.6"/>
<path class="st1" d="M34.9,26.3c0,0-2.7-7.1,4.7-14.9"/>
<path class="st1" d="M34.9,26.3c0,0,2.9-7,13.4-7"/>
<path class="st1" d="M34.9,26.3c0,0,6.8-2.8,14.2,4.9"/>
<path class="st1" d="M34.9,26.3c0,0,6.7,3,6.7,14.1"/>
<path class="st1" d="M34.9,26.3c0,0,2.7,7.1-4.7,14.9"/>
<path class="st1" d="M34.9,26.3c0,0-2.9,7-13.4,7"/>
<path class="st1" d="M34.9,26.3c0,0-6.8,2.8-14.2-5"/>
<path class="st1" d="M34.9,26.3c0,0-6.7-3-6.7-14.1"/>
<path class="st1" d="M22.8,37.2L10.5,50.1c-0.8,0.8-0.8,2,0,2.8l0,0l0,0c0.8,0.8,1.9,0.8,2.7,0l0,0l12.5-13.1"/>
</svg>
