<?xml version="1.0" encoding="utf-8"?>
<!-- Generator: Adobe Illustrator 27.0.0, SVG Export Plug-In . SVG Version: 6.00 Build 0)  -->
<svg version="1.1" id="Layer_1" xmlns="http://www.w3.org/2000/svg" xmlns:xlink="http://www.w3.org/1999/xlink" x="0px" y="0px"
	 viewBox="0 0 100 100" style="enable-background:new 0 0 100 100;" xml:space="preserve">
<style type="text/css">
	.st0{fill:none;stroke:#FFFFFF;stroke-width:1.5;stroke-linecap:round;stroke-linejoin:round;stroke-miterlimit:10;}
	.st1{fill:#B1E1F3;stroke:#3E2426;stroke-width:1.5;stroke-linecap:round;stroke-linejoin:round;stroke-miterlimit:10;}
	.st2{fill:#9AC5D5;}
	.st3{fill:#F4F4F4;stroke:#FFFFFF;stroke-width:1.5;stroke-linecap:round;stroke-linejoin:round;stroke-miterlimit:10;}
	.st4{fill:none;stroke:#3E2426;stroke-width:1.5;stroke-linecap:round;stroke-linejoin:round;stroke-miterlimit:10;}
</style>
<path class="st0" d="M80,43.8v3.7C80,54.4,64.3,60,45,60c-8.6,0-16.5-1.1-22.6-3c5.1,4.7,17.7,8,32.6,8c19.3,0,35-5.6,35-12.5
	C90,49.1,86.2,46,80,43.8z"/>
<path class="st1" d="M33.8,49.5c1.9-1.8,4.2-3,6.6-3.5c1.3,2.1,1.3,4.8,0,6.9C37.9,52.5,35.6,51.3,33.8,49.5L33.8,49.5z"/>
<path class="st1" d="M52.5,49.5c-3.3,3.2-7.9,4.3-12.2,3.5c1.3-2.1,1.3-4.8,0-6.9C44.6,45.2,49.2,46.3,52.5,49.5L52.5,49.5z"/>
<path class="st2" d="M40.3,48.5c0.3-0.1,0.6-0.1,0.9-0.1c-0.1-0.8-0.4-1.6-0.9-2.4c-2.4,0.5-4.7,1.6-6.6,3.5c0.5,0.5,1,0.9,1.5,1.2
	C36.8,49.7,38.5,48.9,40.3,48.5z"/>
<path class="st2" d="M51,50.8c0.5-0.4,1-0.8,1.5-1.2h0c-3.3-3.2-7.9-4.3-12.2-3.5c0.5,0.7,0.7,1.5,0.9,2.4
	C44.6,47.9,48.1,48.7,51,50.8z"/>
<path class="st1" d="M56.3,53.2c-1-2.5-1-5.2,0-7.5h0l-3.8,3.7l0,0L56.3,53.2L56.3,53.2z"/>
<ellipse class="st3" cx="26.2" cy="27.5" rx="7.5" ry="2.5"/>
<path class="st1" d="M66.3,74.5c-1.9-1.8-4.2-3-6.6-3.5c-1.3,2.1-1.3,4.8,0,6.9C62.1,77.5,64.4,76.3,66.3,74.5L66.3,74.5z"/>
<path class="st1" d="M47.5,74.5c3.3,3.2,7.9,4.3,12.2,3.5c-1.3-2.1-1.3-4.8,0-6.9C55.4,70.2,50.8,71.3,47.5,74.5L47.5,74.5z"/>
<path class="st1" d="M43.8,78.3c1-2.5,1-5.2,0-7.5h0l3.8,3.8l0,0L43.8,78.3L43.8,78.3z"/>
<path class="st3" d="M78.8,50.7c-1.2,1.6-3.2,3-5.8,4.3c0.2,0,0.5,0,0.7,0c4.1,0,7.5-1.1,7.5-2.5C81.3,51.8,80.3,51.1,78.8,50.7z"/>
<path class="st0" d="M80,27.5C80,34.4,64.3,40,45,40c-19.3,0-35-5.6-35-12.5v20C10,54.4,25.7,60,45,60c19.3,0,35-5.6,35-12.5
	C80,47.5,80,27.5,80,27.5z"/>
<path class="st0" d="M28.9,38.6c-2.5,2.5-3.9,5.6-3.9,8.9c0,4.7,2.9,8.9,7.4,11.7C36.3,59.7,40.6,60,45,60s8.7-0.3,12.6-0.8
	c4.5-2.8,7.4-6.9,7.4-11.7c0-3.3-1.5-6.4-3.9-8.9C56.3,39.5,50.8,40,45,40C39.2,40,33.7,39.5,28.9,38.6z"/>
<path class="st4" d="M33.8,49.5c1.9-1.8,4.2-3,6.6-3.5c1.3,2.1,1.3,4.8,0,6.9C37.9,52.5,35.6,51.3,33.8,49.5L33.8,49.5z"/>
<path class="st4" d="M52.5,49.5c-3.3,3.2-7.9,4.3-12.2,3.5c1.3-2.1,1.3-4.8,0-6.9C44.6,45.2,49.2,46.3,52.5,49.5L52.5,49.5z"/>
<path class="st0" d="M80,27.5C80,34.4,64.3,40,45,40c-19.3,0-35-5.6-35-12.5S25.7,15,45,15C64.3,15,80,20.6,80,27.5z"/>
<path class="st0" d="M75.5,27.5c0,5-13.7,9-30.5,9c-16.8,0-30.5-4-30.5-9c0-5,13.7-9,30.5-9C61.8,18.5,75.5,22.5,75.5,27.5z"/>
<path class="st2" d="M59.7,73.5c-0.3-0.1-0.6-0.1-0.9-0.1c0.1-0.8,0.4-1.6,0.9-2.4c2.4,0.5,4.7,1.6,6.6,3.5c-0.5,0.5-1,0.9-1.5,1.2
	C63.2,74.6,61.5,73.9,59.7,73.5z"/>
<path class="st2" d="M49,75.8c-0.5-0.4-1-0.8-1.5-1.2h0c3.3-3.2,7.9-4.3,12.2-3.5c-0.5,0.7-0.7,1.5-0.9,2.4
	C55.4,72.9,51.9,73.7,49,75.8z"/>
<path class="st0" d="M55,65c-14.8,0-27.5-3.3-32.6-8c-0.8-0.3-1.7-0.5-2.4-0.8v16.3C20,79.4,35.7,85,55,85s35-5.6,35-12.5v-20
	C90,59.4,74.3,65,55,65z"/>
<path class="st0" d="M71.1,63.6c2.5,2.5,3.9,5.6,3.9,8.9c0,4.7-2.9,8.9-7.4,11.7C63.7,84.7,59.4,85,55,85c-4.4,0-8.7-0.3-12.6-0.8
	c-4.5-2.7-7.4-6.9-7.4-11.7c0-3.3,1.5-6.4,3.9-8.9C43.8,64.5,49.2,65,55,65C60.8,65,66.3,64.5,71.1,63.6z"/>
<path class="st4" d="M66.3,74.5c-1.9-1.8-4.2-3-6.6-3.5c-1.3,2.1-1.3,4.8,0,6.9C62.1,77.5,64.4,76.3,66.3,74.5L66.3,74.5z"/>
<path class="st4" d="M47.5,74.5c3.3,3.2,7.9,4.3,12.2,3.5c-1.3-2.1-1.3-4.8,0-6.9C55.4,70.2,50.8,71.3,47.5,74.5L47.5,74.5z"/>
<path class="st0" d="M80,43.8v3.7C80,54.4,64.3,60,45,60c-8.6,0-16.5-1.1-22.6-3c5.1,4.7,17.7,8,32.6,8c19.3,0,35-5.6,35-12.5
	C90,49.1,86.2,46,80,43.8z"/>
</svg>
