<?xml version="1.0" encoding="utf-8"?>
<!-- Generator: Adobe Illustrator 27.0.0, SVG Export Plug-In . SVG Version: 6.00 Build 0)  -->
<svg version="1.1" id="Layer_1" xmlns="http://www.w3.org/2000/svg" xmlns:xlink="http://www.w3.org/1999/xlink" x="0px" y="0px"
	 viewBox="0 0 64 64" style="enable-background:new 0 0 64 64;" xml:space="preserve">
<style type="text/css">
	.st0{fill:none;stroke:#FFFFFF;stroke-width:2;stroke-linecap:round;stroke-linejoin:round;}
</style>
<path class="st0" d="M42.1,25.2c0.9-1.8,1.5-3.8,1.5-5.8C43.5,13,38.3,7.9,31.9,8s-11.6,5.2-11.5,11.7c0,2,0.5,3.9,1.5,5.6h3.3V32
	c0,1.9,1.5,3.4,3.4,3.4l0,0c1.9,0,3.4-1.5,3.4-3.4v-6.9H42.1z"/>
<path class="st0" d="M21.9,25.2L21.9,25.2c-1.6,0-2.9,1.3-2.9,2.9c0,0.2,0,0.4,0.1,0.6l2.1,10.9c0.3,1.6,1.7,2.7,3.3,2.7h14.9
	c1.6,0,3-1.1,3.3-2.7L45,28.7c0.3-1.5-0.7-3.1-2.3-3.4c-0.2,0-0.3-0.1-0.6-0.1l0,0"/>
<polygon class="st0" points="25.2,42.3 27.7,56.1 36.3,56.1 38.9,42.3 "/>
</svg>
