<svg id="icons" xmlns="http://www.w3.org/2000/svg" viewBox="0 0 64 64"><title>paper cup</title><g id="paper_cup" data-name="paper cup"><path d="M50.59,23.78l-3.66-7.66c-.33-2.73-4.85-4.45-10.28-5.08l4-6H48a1,1,0,0,0,0-2H40.12a1,1,0,0,0-.83.45l-4.91,7.39c-.83-.05-1.67-.07-2.51-.07-7.3,0-14.66,1.84-15.06,5.36L13.4,23.64A1,1,0,0,0,14,25l2.87.86,5.28,31.86a1,1,0,0,0,.6.76l2.23.95a18.14,18.14,0,0,0,14,.07l2.07-.86a1,1,0,0,0,.6-.76l5.17-31.8a1.2,1.2,0,0,1,.2,0l.1,0L50,25.17a1,1,0,0,0,.62-.56A1,1,0,0,0,50.59,23.78Zm-18.72-11,1.22,0L31,15.88a1,1,0,0,0,.28,1.38,1,1,0,0,0,.56.17A1,1,0,0,0,32.7,17l2.7-4.06c5.93.51,9.57,2.25,9.57,3.51,0,1.49-5.11,3.66-13.1,3.66s-13.1-2.17-13.1-3.66S23.87,12.77,31.87,12.77ZM39.79,57l-1.56.64a16.1,16.1,0,0,1-12.45-.06l-1.72-.74L19,26.27a81.32,81.32,0,0,0,13.37,1.1,81.63,81.63,0,0,0,12.41-.95ZM46.61,24.1A80.71,80.71,0,0,1,17.74,24l-2-.61,2.16-4.76c2.35,2.26,8.2,3.43,14,3.43s11.72-1.18,14-3.46l2.38,5Z"/><path d="M36.51,52.79h.12a1,1,0,0,0,1-.89l2.31-20.44a1,1,0,1,0-2-.23L35.63,51.69A1,1,0,0,0,36.51,52.79Z"/></g></svg>