<?xml version="1.0" encoding="utf-8"?>
<!-- Generator: Adobe Illustrator 27.0.0, SVG Export Plug-In . SVG Version: 6.00 Build 0)  -->
<svg version="1.1" id="icons" xmlns="http://www.w3.org/2000/svg" xmlns:xlink="http://www.w3.org/1999/xlink" x="0px" y="0px"
	 viewBox="0 0 64 64" style="enable-background:new 0 0 64 64;" xml:space="preserve">
<style type="text/css">
	.st0{fill:#FFFFFF;}
</style>
<g id="paper_cup">
	<path class="st0" d="M50.6,23.8l-3.7-7.7c-0.3-2.7-4.8-4.4-10.3-5.1l4-6H48c0.6,0,1-0.4,1-1s-0.4-1-1-1h-7.9
		c-0.3,0-0.6,0.2-0.8,0.5l-4.9,7.4c-0.8-0.1-1.7-0.1-2.5-0.1c-7.3,0-14.7,1.8-15.1,5.4l-3.4,7.5c-0.2,0.5,0,1.1,0.5,1.3
		c0,0,0.1,0,0.1,0l2.9,0.9l5.3,31.9c0.1,0.3,0.3,0.6,0.6,0.8l2.2,1c4.5,1.9,9.5,1.9,14,0.1l2.1-0.9c0.3-0.1,0.5-0.4,0.6-0.8
		l5.2-31.8c0.1,0,0.1,0,0.2,0h0.1l2.9-0.9c0.3-0.1,0.5-0.3,0.6-0.6C50.7,24.3,50.7,24,50.6,23.8z M31.9,12.8h1.2L31,15.9
		c-0.3,0.5-0.2,1.1,0.3,1.4c0.2,0.1,0.4,0.2,0.6,0.2c0.3,0,0.7-0.1,0.9-0.4l2.7-4.1c5.9,0.5,9.6,2.2,9.6,3.5c0,1.5-5.1,3.7-13.1,3.7
		s-13.1-2.2-13.1-3.7S23.9,12.8,31.9,12.8L31.9,12.8z M39.8,57l-1.6,0.6c-4,1.7-8.5,1.6-12.5-0.1l-1.7-0.7L19,26.3
		c4.4,0.7,8.9,1.1,13.4,1.1c4.2,0,8.3-0.3,12.4-1L39.8,57z M46.6,24.1c-9.6,1.7-19.3,1.7-28.9-0.1l-2-0.6l2.2-4.8
		c2.4,2.3,8.2,3.4,14,3.4s11.7-1.2,14-3.5l2.4,5L46.6,24.1z"/>
	<path class="st0" d="M36.5,52.8h0.1c0.5,0,0.9-0.4,1-0.9l2.3-20.4c0.1-0.6-0.3-1.1-0.9-1.1c-0.6-0.1-1.1,0.3-1.1,0.9l-2.3,20.5
		C35.6,52.2,36,52.7,36.5,52.8z"/>
</g>
</svg>
