<?xml version="1.0" encoding="utf-8"?>
<!-- Generator: Adobe Illustrator 27.0.0, SVG Export Plug-In . SVG Version: 6.00 Build 0)  -->
<svg version="1.1" id="Capa_1" xmlns="http://www.w3.org/2000/svg" xmlns:xlink="http://www.w3.org/1999/xlink" x="0px" y="0px"
	 viewBox="0 0 64 64" style="enable-background:new 0 0 64 64;" xml:space="preserve">
<style type="text/css">
	.st0{fill:#FFFFFF;}
</style>
<g>
	<g>
		<path class="st0" d="M38.1,30.8c-0.8-0.4-1.6,0-2.1,0.4c-0.4,0.3-0.7,0.7-0.9,1.2c-0.2,0.8,0.1,1.5,1.1,1.4
			C37.6,33.7,39.2,31.3,38.1,30.8z"/>
		<path class="st0" d="M19.9,34.3c0.2-1.5-2.4-2.6-2.9-1.4c0,0-0.4,1.2,0.5,2.1S19.7,35.3,19.9,34.3z"/>
	</g>
	<g>
		<path class="st0" d="M24.7,36.5c-0.9-1-1.4-2.2-1.5-3.5l0-0.4c-0.2-2.1-0.5-4.8-1.9-6.4c-1.4-1.6-4.5-1.7-6.3-0.8
			c-1.3,0.7-3.4,2.5-2.3,7.2c0.6,2.7,2.2,3.7,3.6,4.7c1,0.7,1.9,1.3,2.3,2.6c0.4,1.3,1.3,1.7,2.2,2.1c0.5,0.2,1,0.5,1.5,0.8
			c0.5,0.4,0.7,1.1,0.4,1.7c-1.4,2.7-2.2,4.7-2.2,4.7c-0.1,0.1-0.1,0.3,0,0.5c2,3.9,6.3,4.2,7.6,4.2c0.2,0,0.3,0,0.4,0
			c0.2,0,0.3-0.1,0.4-0.2c0,0,2.9-4.2,6.8-6.3l0.2-0.1c2.5-1.4,5.4-2.9,6.2-6.9c0.1-0.3,0.3-0.6,0.6-0.7c1.9-0.7,3.6-1.2,4.5-1.2
			c2.2-0.1,4.9-2.3,5.9-4.9c0.6-1.5,0-2.2-0.3-2.5c-0.9-0.7-2.4-0.3-3.3,0.4c-2,1.4-4.5,2.2-5.8,2.1c1-3,2.2-5.7,3.1-6.8
			c0.1-0.2,0.1-0.4,0.1-0.6c-0.1-0.2-1.9-3.9-8.5-4.2c-0.2,0-0.4,0.1-0.5,0.3c0,0-1.1,2.4-2.6,4.9c-0.3-2.6-0.1-5.2,0.7-7.8
			c0.8-2.9,0.3-5.5-1.5-7.3c-1.6-1.6-4-2.2-6.2-1.6c-1.6,0.4-2.8,1.7-3.5,3.6c-1.5,4.2-0.6,10.9,1.2,13.6c1.4,2.2,2.4,4.7,2.9,7.4
			c-0.8,1-1.6,2.1-2.4,3.3C25.7,37.8,25.2,37.1,24.7,36.5z M28,52.7c-1,0-4.7-0.2-6.5-3.4c0.2-0.6,0.9-2.1,1.9-4.1
			c1.2,0,5.2,0.3,7.5,4.1C29.9,50.4,28.9,51.5,28,52.7z M49.9,32.2c0.7-0.5,1.7-0.6,2-0.4c0.3,0.2,0.1,0.9,0,1.2
			c-0.7,1.9-2.7,3.7-4.3,4.1c0-1.1-0.2-2.3-0.7-3.3C48,33.4,49,32.9,49.9,32.2L49.9,32.2z M25.4,14.4c0.6-1.6,1.5-2.6,2.7-2.9
			c1.8-0.5,3.8,0,5.1,1.3c1.3,1.3,1.8,3.3,1.4,5.4c-1.2-0.7-3.7-1.8-7.2-0.9C27.1,17.4,27,17.7,27,18s0.4,0.5,0.7,0.4
			c3.5-1,5.9,0.4,6.7,0.9c-0.4,1.5-0.6,3-0.7,4.5c-2.7,0-5.4,0.9-7.5,2.6C24.8,23.6,24.1,17.9,25.4,14.4z M29.7,35
			c-0.5-2.7-1.5-5.3-2.9-7.6c1.9-1.6,4.4-2.5,6.9-2.4c0,1.2,0.1,2.4,0.3,3.5c-0.8,1.2-1.7,2.4-2.7,3.4c-0.2,0.2-0.2,0.6,0,0.8
			c0.2,0.2,0.6,0.2,0.8,0c1.1-1.1,2-2.3,2.9-3.6c0.7-0.1,3.3-0.5,5.4,0.9c0.3,0.2,0.6,0.1,0.8-0.2c0.2-0.3,0.1-0.6-0.2-0.8
			c0,0,0,0,0,0c-1.6-0.9-3.4-1.3-5.2-1.1c1.3-2.1,2.3-4.1,2.7-4.9c4.7,0.3,6.5,2.5,7,3.3c-1.3,2-2.9,5.8-3.8,9.3
			c-0.1,0.3,0.1,0.6,0.4,0.7c0.3,0.1,0.6-0.1,0.7-0.4c0,0,0,0,0-0.1c0.1-0.4,0.2-0.9,0.4-1.3c0.9,0.1,1.8,0,2.7-0.3
			c0.4,1,0.7,2,0.6,3.1c-1.5,0.3-2.9,0.7-4.3,1.2c-0.7,0.3-1.2,0.8-1.3,1.5c0,0.1-0.1,0.2-0.1,0.4c-1-2.2-2.9-3.9-5.3-4.5
			c-0.3-0.1-0.6,0.1-0.7,0.4C34.8,36.7,35,37,35.3,37l0,0c2.4,0.7,4.3,2.6,4.9,5.1c-1.1,2.1-3,3.1-4.9,4.1L35,46.3
			c-1.1,0.6-2.2,1.4-3.2,2.2c-2.4-3.8-6.3-4.4-8-4.4c0.1-0.9-0.3-1.8-1-2.3c-0.5-0.4-1.1-0.7-1.7-0.9c-0.8-0.4-1.3-0.6-1.5-1.3
			c0.1-0.4,0.5-1.7,2.3-2.3c0.3-0.1,0.5-0.4,0.4-0.7c-0.1-0.3-0.4-0.5-0.7-0.4c0,0,0,0,0,0c-1.1,0.3-2,1-2.6,2
			c-0.6-0.8-1.3-1.4-2.2-1.9c-1.3-0.9-2.5-1.7-3-3.7c0.8-0.7,1.7-1.2,2.7-1.6c0.3-0.1,0.4-0.4,0.3-0.7c-0.1-0.3-0.4-0.4-0.7-0.3
			c0,0,0,0,0,0c-0.9,0.3-1.8,0.8-2.5,1.4c-0.4-2.4,0.3-4.2,1.9-5c1.7-0.9,4.1-0.4,4.9,0.5c0.6,0.8,1.1,1.8,1.2,2.8
			c-0.8-0.2-1.6-0.3-2.4-0.3c-0.3,0-0.6,0.3-0.6,0.6c0,0.3,0.3,0.6,0.6,0.6c0.9,0,1.7,0.1,2.6,0.4c0.1,0.6,0.2,1.2,0.2,1.8l0,0.4
			c0.2,1.5,0.8,2.9,1.8,4.1c0.6,0.7,1.2,1.5,1.7,2.1c-0.2,0.3-0.4,0.6-0.6,0.9c-0.2,0.3-0.1,0.6,0.2,0.8c0.3,0.2,0.6,0.1,0.8-0.2
			c1.1-1.9,2.3-3.6,3.7-5.3C29.7,35.4,29.7,35.2,29.7,35z"/>
		<path class="st0" d="M32.9,41.8c0.2,0.3,0.5,0.3,0.8,0.1s0.3-0.5,0.1-0.8l0,0c-0.9-1.3-2.4-2.2-4-2.2c-0.3,0-0.6,0.2-0.6,0.6
			c0,0.3,0.2,0.6,0.6,0.6C31.1,40.2,32.2,40.8,32.9,41.8z"/>
	</g>
</g>
</svg>
