<?xml version="1.0" encoding="utf-8"?>
<!-- Generator: Adobe Illustrator 27.0.0, SVG Export Plug-In . SVG Version: 6.00 Build 0)  -->
<svg version="1.1" id="icons" xmlns="http://www.w3.org/2000/svg" xmlns:xlink="http://www.w3.org/1999/xlink" x="0px" y="0px"
	 viewBox="0 0 64 64" style="enable-background:new 0 0 64 64;" xml:space="preserve">
<style type="text/css">
	.st0{fill:#FFFFFF;}
</style>
<g id="martini">
	<path id="martini-2" class="st0" d="M47.9,18c0.2-0.2,0.3-0.5,0.2-0.8c-0.2-0.3-0.4-0.5-0.7-0.5H25.7l-3.5-5.7
		c-0.2-0.4-0.7-0.5-1.1-0.2l0,0c-0.3,0.2-0.5,0.6-0.2,1l3,5h-7.2c-0.5,0-0.8,0.3-0.8,0.8c0,0.2,0.1,0.4,0.2,0.5l14.9,15.1v18.9h-6.7
		c-0.5,0-0.8,0.3-0.8,0.8c0,0.5,0.3,0.8,0.8,0.8h15.3c0.5,0,0.8-0.3,0.8-0.8c0-0.5-0.3-0.8-0.8-0.8h-7.1V33.1L47.9,18z M45.5,18.2
		L33.6,30l-2.3-3.9c0.5-0.5,0.7-1.1,0.8-1.8c0.1-1-0.2-2-0.7-2.8c-1-1.6-2.7-2.5-4.1-2.1l-0.7-1.2H45.5z M27.4,21
		c0.2-0.1,0.4-0.2,0.6-0.2c0.9,0.1,1.7,0.6,2.1,1.5c0.4,0.5,0.5,1.2,0.5,1.8c0,0.5-0.2,0.8-0.6,1.1c-0.4,0.2-0.8,0.2-1.3,0
		c-0.6-0.3-1.1-0.8-1.5-1.3C26.6,22.8,26.6,21.5,27.4,21z M24.8,18.2l1.2,2c-1,1.4-1,3.2-0.1,4.6c0.5,0.8,1.2,1.5,2.1,1.9
		c0.4,0.2,0.8,0.2,1.2,0.2c0.2,0,0.5,0,0.7-0.1l2.5,4.2l-0.6,0.6L18.5,18.2H24.8z"/>
</g>
</svg>
