<?xml version="1.0" encoding="utf-8"?>
<!-- Generator: Adobe Illustrator 27.0.0, SVG Export Plug-In . SVG Version: 6.00 Build 0)  -->
<svg version="1.1" id="Capa_1" xmlns="http://www.w3.org/2000/svg" xmlns:xlink="http://www.w3.org/1999/xlink" x="0px" y="0px"
	 viewBox="0 0 511 511" style="enable-background:new 0 0 511 511;" xml:space="preserve">
<style type="text/css">
	.st0{fill:#FFFFFF;}
</style>
<path class="st0" d="M184.3,262.4c13.2-13.2,29.8-21.3,48.2-23.7c33.3-4.3,63.3-21.7,82.2-48c2-2.8,4.2-5.4,6.6-7.8
	c11.6-11.6,24.6-17.9,37.4-18.2c0.3,0,0.6,0,0.9,0c4.9,0,9.8,0.9,14.4,2.7c-2.7-6.3-6.6-12-11.6-17.1c-8.5-8.5-19.2-13.1-30.3-13.1
	c-0.3,0-0.6,0-0.9,0c-12.9,0.3-25.8,6.6-37.4,18.2c-2.4,2.4-4.6,5-6.6,7.8c-18.9,26.2-48.8,43.7-82.2,48
	c-18.4,2.3-35.1,10.5-48.2,23.7c-32.4,32.4-32.4,85.2,0,117.6c4.6,4.6,9.6,8.2,14.8,11.3C152.6,331.8,156.8,289.8,184.3,262.4z"/>
<path class="st0" d="M332.3,182.8c3.1,0,6.1,0.7,8.7,2c-3.2-6.4-9.9-10.9-17.5-10.9c-10.8,0-19.6,8.8-19.6,19.6
	c0,7.7,4.4,14.3,10.9,17.5c-1.3-2.6-2-5.6-2-8.7C312.7,191.6,321.4,182.8,332.3,182.8z"/>
<path class="st0" d="M206.7,401.4c-11.1,0-21.9-1.8-32.1-5.2c-14.1-4.8-26.7-12.8-37.7-23.8c-42.8-42.8-42.8-112.6,0-155.4
	c17.4-17.4,39.4-28.2,63.7-31.3c27.4-3.5,52-17.8,67.4-39.1c2.8-3.9,6-7.6,9.4-11c16.5-16.5,35.6-25.4,55.2-25.9
	c18.4-0.4,36.1,6.9,49.8,20.6c25.3,25.3,30.5,61.7,15.2,105.1c-12.2,34.5-37.3,72.3-68.8,103.8c-35.5,35.5-72.7,56.6-107.7,61.2
	C216.3,401,211.4,401.4,206.7,401.4z M334,122c-0.4,0-0.8,0-1.2,0c-16.4,0.4-32.6,8.1-46.8,22.3c-2.9,2.9-5.7,6.1-8.1,9.5
	c-17.4,24.1-45,40.2-75.8,44.1c-21.6,2.8-41.1,12.4-56.6,27.8c-38,38-38,99.9,0,138c19.8,19.8,45.4,28.3,74,24.5
	c32.2-4.2,67-24.2,100.6-57.7c30.2-30.2,54.3-66.4,65.9-99.2c9.6-27,15.2-64.9-12.3-92.3C362.7,128,348.7,122,334,122z"/>
<path class="st0" d="M309,186.1c-1.6,0-3.2-0.6-4.4-1.8c-2.4-2.4-2.4-6.3,0-8.7l0.1-0.1c2.4-2.4,6.3-2.3,8.7,0.1
	c2.4,2.4,2.3,6.3-0.1,8.7l0,0C312.2,185.5,310.6,186.1,309,186.1z"/>
<path class="st0" d="M323.3,219.3c-12.7,0-23.4-9.1-25.5-21.5c-0.6-3.4,1.7-6.5,5-7.1c3.4-0.6,6.5,1.7,7.1,5
	c1.1,6.5,6.7,11.3,13.3,11.3c7.5,0,13.5-6.1,13.5-13.5c0-6.7-5-12.4-11.5-13.4c-3.4-0.5-5.7-3.6-5.2-7c0.5-3.4,3.6-5.7,7-5.2
	c12.6,1.9,22.1,12.8,22.1,25.6C349.1,207.7,337.5,219.3,323.3,219.3z"/>
<path class="st0" d="M207.7,379.9C207.7,379.9,207.6,379.9,207.7,379.9h-0.2c-3.4,0-6.2-2.8-6.2-6.2c0-3.4,2.8-6.2,6.2-6.2h0.2
	c3.4,0,6.1,2.8,6.1,6.2C213.8,377.2,211.1,379.9,207.7,379.9z M229,377.3c-2.8,0-5.3-1.9-6-4.7c-0.1-0.5-0.2-1-0.2-1.5
	c0-2.8,1.9-5.3,4.7-6c25-6.1,52-23.1,78.2-49.3c27.7-27.7,49.5-60.5,60-90c4.5-12.6,6.7-24,6.7-34.2c0-15-4.8-27.3-14.4-36.9
	c-7.5-7.5-16.9-11.5-26.6-11.3c-11.3,0.2-22.7,5.9-33.2,16.4c-2.2,2.2-4.2,4.6-6,7c-19.9,27.6-51.4,46-86.4,50.5
	c-17,2.2-32.5,9.8-44.6,21.9c-15,15-22.5,34.7-22.5,54.5c0,19.7,7.5,39.5,22.5,54.5c8.1,8.1,17.4,13.8,27.7,16.8
	c2.7,0.8,4.4,3.2,4.4,5.9c0,0.6-0.1,1.2-0.3,1.7c-1,3.3-4.4,5.1-7.6,4.2c-12.2-3.6-23.3-10.3-32.9-19.9
	c-17.4-17.4-26.1-40.3-26.1-63.2c0-22.9,8.7-45.8,26.1-63.2c14.1-14.1,32-22.9,51.8-25.4c31.7-4,60.1-20.6,78-45.5
	c2.2-3,4.6-5.9,7.3-8.5c12.8-12.8,27.2-19.7,41.6-20c0.3,0,0.7,0,1,0c12.7,0,25,5.3,34.6,14.9c12,12,18.1,27.2,18,45.4
	c0,11.7-2.5,24.5-7.5,38.6c-11,31.2-34,65.7-62.9,94.6c-27.8,27.8-56.8,46-84,52.6C229.9,377.2,229.4,377.3,229,377.3z"/>
</svg>
