<?xml version="1.0" encoding="utf-8"?>
<!-- Generator: Adobe Illustrator 27.0.0, SVG Export Plug-In . SVG Version: 6.00 Build 0)  -->
<svg version="1.1" id="Layer_1" xmlns="http://www.w3.org/2000/svg" xmlns:xlink="http://www.w3.org/1999/xlink" x="0px" y="0px"
	 viewBox="0 0 50 50" style="enable-background:new 0 0 50 50;" xml:space="preserve">
<style type="text/css">
	.st0{fill:#FFFFFF;}
</style>
<path class="st0" d="M32.2,28.3c-0.4,0-0.8-0.3-0.8-0.7s0.4-0.7,0.8-0.7c0.6,0,1.1-0.7,1.1-1.5c0-0.8-0.5-1.5-1.1-1.5
	c-0.4,0-0.8-0.3-0.8-0.7s0.4-0.7,0.8-0.7c1.6,0.1,2.8,1.4,2.7,2.9C35,26.9,33.8,28.2,32.2,28.3L32.2,28.3z"/>
<path class="st0" d="M20.4,28.3c-1.6-0.1-2.8-1.4-2.7-2.9c-0.1-1.5,1.1-2.8,2.7-2.9h7.7c0.4,0,0.8,0.3,0.8,0.7s-0.4,0.7-0.8,0.7
	h-7.7c-0.6,0-1.1,0.7-1.1,1.5c0,0.8,0.5,1.5,1.1,1.5c0.4,0,0.8,0.3,0.8,0.7S20.8,28.4,20.4,28.3L20.4,28.3z"/>
<path class="st0" d="M32.2,32.8c-0.4,0-0.8-0.3-0.8-0.7c0-0.4,0.4-0.7,0.8-0.7c0.6,0,1.1-0.7,1.1-1.5c0-0.8-0.5-1.5-1.1-1.5
	c-0.4,0-0.8-0.3-0.8-0.7s0.4-0.7,0.8-0.7c1.6,0.1,2.8,1.4,2.7,2.9C35,31.3,33.8,32.6,32.2,32.8L32.2,32.8z"/>
<path class="st0" d="M20.4,32.8c-1.6-0.1-2.8-1.4-2.7-2.9c-0.1-1.5,1.1-2.8,2.7-2.9h5c0.4,0,0.8,0.3,0.8,0.7s-0.4,0.7-0.8,0.7h-5
	c-0.6,0-1.1,0.7-1.1,1.5c0,0.8,0.5,1.5,1.1,1.5c0.4,0,0.8,0.3,0.8,0.7C21.2,32.4,20.8,32.8,20.4,32.8L20.4,32.8z"/>
<path class="st0" d="M32.2,37.2c-0.4,0-0.8-0.3-0.8-0.7c0-0.4,0.4-0.7,0.8-0.7c0.6,0,1.1-0.7,1.1-1.5c0-0.8-0.5-1.5-1.1-1.5
	c-0.4,0-0.8-0.3-0.8-0.7c0-0.4,0.4-0.7,0.8-0.7c1.6,0.1,2.8,1.4,2.7,2.9C35,35.7,33.8,37.1,32.2,37.2L32.2,37.2z"/>
<path class="st0" d="M20.4,37.2c-1.6-0.1-2.8-1.4-2.7-2.9c-0.1-1.5,1.1-2.8,2.7-2.9H27c0.4,0,0.8,0.3,0.8,0.7c0,0.4-0.4,0.7-0.8,0.7
	h-6.6c-0.6,0-1.1,0.7-1.1,1.5c0,0.8,0.5,1.5,1.1,1.5c0.4,0,0.8,0.3,0.8,0.7C21.2,36.9,20.8,37.2,20.4,37.2L20.4,37.2z"/>
<path class="st0" d="M32.2,45.8H20.4c-1.6-0.1-2.8-1.4-2.7-2.9v-4.2c-0.1-1.5,1.1-2.8,2.7-2.9h8c0.4,0,0.8,0.3,0.8,0.7
	c0,0.4-0.4,0.7-0.8,0.7h-8c-0.6,0-1.1,0.7-1.1,1.5v4.2c0,0.8,0.5,1.5,1.1,1.5h11.8c0.6,0,1.1-0.7,1.1-1.5v-4.2
	c0-0.8-0.5-1.5-1.1-1.5c-0.4,0-0.8-0.3-0.8-0.7c0-0.4,0.4-0.7,0.8-0.7c1.6,0.1,2.8,1.4,2.7,2.9v4.2C35,44.4,33.8,45.7,32.2,45.8z"/>
<path class="st0" d="M26.3,45.8c-1.8,0-3.3-1.4-3.3-3.1v-1.3c0-0.4,0.4-0.7,0.8-0.7c0.4,0,0.8,0.3,0.8,0.7v1.3
	c0,0.9,0.8,1.7,1.8,1.7c1,0,1.8-0.7,1.8-1.7v-1.3c0-0.4,0.4-0.7,0.8-0.7c0.4,0,0.8,0.3,0.8,0.7v1.3C29.6,44.4,28.1,45.8,26.3,45.8
	L26.3,45.8z"/>
<path class="st0" d="M34.1,23.9h-1.9c-0.4,0-0.8-0.3-0.8-0.7s0.4-0.7,0.8-0.7h1.1V13L28.6,8H24L19.2,13v9.5h1.1
	c0.4,0,0.8,0.3,0.8,0.7s-0.4,0.7-0.8,0.7h-1.9c-0.4,0-0.8-0.3-0.8-0.7V12.7c0-0.2,0.1-0.4,0.2-0.5L23,6.8c0.1-0.2,0.4-0.2,0.6-0.2
	h5.3c0.2,0,0.4,0.1,0.6,0.2l5.2,5.4c0.1,0.1,0.2,0.3,0.2,0.5v10.5C34.9,23.6,34.5,23.9,34.1,23.9L34.1,23.9z"/>
<path class="st0" d="M29.2,8h-5.8c-0.4,0-0.8-0.3-0.8-0.7V2.4c0-0.4,0.4-0.7,0.8-0.7h5.8C29.6,1.7,30,2,30,2.4v4.9
	C30,7.7,29.6,8,29.2,8z M24.1,6.6h4.3V3.2h-4.3V6.6z"/>
<path class="st0" d="M27.8,13.4h-9.4c-0.4,0-0.8-0.3-0.8-0.7S18,12,18.4,12h9.4c0.4,0,0.8,0.3,0.8,0.7S28.3,13.4,27.8,13.4z"/>
<path class="st0" d="M28.5,28.3H28c-0.4,0-0.8-0.3-0.8-0.7s0.4-0.7,0.8-0.7h0.5c0.4,0,0.8,0.3,0.8,0.7S28.9,28.3,28.5,28.3z"/>
</svg>
