<?xml version="1.0" encoding="utf-8"?>
<!-- Generator: Adobe Illustrator 27.0.0, SVG Export Plug-In . SVG Version: 6.00 Build 0)  -->
<svg version="1.1" id="Capa_1" xmlns="http://www.w3.org/2000/svg" xmlns:xlink="http://www.w3.org/1999/xlink" x="0px" y="0px"
	 viewBox="0 0 512 512" style="enable-background:new 0 0 512 512;" xml:space="preserve">
<style type="text/css">
	.st0{fill:#FFFFFF;}
</style>
<path class="st0" d="M432.2,129.8c-1-1.5-2.6-2.5-4.2-2.9c-3.4-0.9-41.6-10.5-68.5,8c-1.8,1.2-3.4,2.5-5,3.9
	c1.7-12.9,2.6-26.1,2.6-39.3c0-4-3.2-7.2-7.2-7.2s-7.2,3.2-7.2,7.2c0,7.2-0.3,14.3-0.8,21.4c-14.8-22.7-44.1-32.6-49.1-34.2
	c-1.6-0.6-3.4-0.6-5.1,0c-1.7,0.7-3.1,1.9-3.8,3.4c-1.5,2.8-17.3,33.2-10.2,61.8c-0.6,0-1.2,0-1.9,0.2c-1.7,0.4-3.2,1.4-4.2,2.8
	c-1.9,2.5-21.6,28.9-20.1,57.6c-6.9-4.9-12.6-8-14.5-8.9c-1.5-0.8-3.3-1.1-5.1-0.7c-1.7,0.4-3.2,1.3-4.2,2.6
	c-0.9,1.1-17.6,22.9-20,48.6c-5.1-5.1-9.5-8.5-11-9.7c-1.3-1.1-3-1.7-4.7-1.7c-1.9,0-3.6,0.8-4.8,2c-2.5,2.3-31.5,29.2-30.6,61.7
	c0.6,23.7,17,43.1,27.3,53.1c-29,14-60.9,23.2-94.7,26.8c-4,0.4-6.9,4-6.4,8c0.4,3.7,3.5,6.5,7.2,6.5c0.3,0,0.5,0,0.8,0
	c35.8-3.8,70.3-13.9,102.1-29.6c6.5,10.6,24.3,35.3,50.8,41.3c4.3,1,8.5,1.4,12.7,1.4c26.4,0,50-16.8,55.1-20.7
	c0.7-0.4,1.3-1,1.8-1.7c1.7-2.2,2-5.1,0.8-7.6c-0.6-1.3-12-24.3-32.6-38.4c9.2,4.7,20,8.2,31.4,8.2c1,0,2,0,3-0.1
	c31-1.7,54.1-30.5,58.5-36.3c0.5-0.6,1-1.3,1.3-2.1c1-2.6,0.5-5.5-1.3-7.6c-0.7-0.8-11.7-12.9-28-21.6c8.8-0.4,18-2.3,26.5-6.7
	c27.6-14.3,37-49.9,38.6-57.1c0.2-0.8,0.4-1.6,0.3-2.4c-0.1-2.8-1.7-5.3-4.3-6.4c-0.8-0.3-9.6-4.2-22-6.7c7.5-1.6,14.9-4.4,21.7-9
	c26.3-18.1,30-57,30.4-63C433.6,133.1,433.2,131.3,432.2,129.8z M344.9,207.1c-2.9,0.8-5.8,1.8-8.6,3c0.6-1.5,1.1-2.9,1.7-4.4
	C339.8,206.1,342.1,206.6,344.9,207.1z M293.9,102.5c10.5,4.2,32.3,14.9,39.5,33.5c7.2,18.7-1.1,41.1-5.8,51.3
	c-5.1-2.1-12.9-5.9-20.3-11.5c-3.5-3.8-7.2-7.2-10.7-10.1c-3.1-3.7-5.7-7.8-7.4-12.4C282,134.7,289.6,112.6,293.9,102.5z
	 M324.2,201.5c-0.3,0.9-0.7,1.8-1,2.7c-0.3-1.2-0.6-2.4-0.9-3.5C322.9,201,323.6,201.2,324.2,201.5z M275.6,168.6
	c3,1.8,7,4.3,11.1,7.7c4.3,3.5,7.4,6.7,10.7,10c5.1,5.1,10,13.4,11.8,21.7c4.1,19.6-7.7,40.4-14,49.7c-9.3-5.9-28.4-20-32.5-39.7
	C258.6,198.6,269.6,177.9,275.6,168.6z M280.5,265.2c2.5,1.8,4.8,3.4,6.8,4.6c-2.6,3.6-5.3,7.1-8.1,10.6
	C280.1,275.5,280.6,270.4,280.5,265.2z M231.6,219.3c9.7,5.8,29.5,19.9,33.6,39.4c4.1,19.6-7.7,40.4-14,49.7
	c-9.3-5.9-28.4-20-32.5-39.7C214.6,249.2,225.6,228.6,231.6,219.3z M166.8,305.9c-0.5-19.9,14.1-38.2,21.6-46.3
	c8.5,7.5,25.4,24.8,25.9,44.8c0.5,20-14.9,38.4-22.7,46.4C183.5,343.3,167.4,326,166.8,305.9z M228.7,309.6c4.5,4,9,7.2,12.7,9.7
	c-6.5,5.5-13.3,10.8-20.3,15.7C225,327.4,228,318.8,228.7,309.6z M293.8,384.8c-9.4,6.2-30.9,18-51.2,13.4
	c-20.1-4.6-34.7-23.9-40.8-33.4c9.6-6.5,31.3-19.1,51.4-14.5C273.4,354.8,287.8,375,293.8,384.8z M256.4,336.1
	c-3.8-0.9-7.6-1.3-11.4-1.3c2.6-2.1,5.2-4.3,7.7-6.5c3.3,3,8.6,7.5,15.4,11.9C264.5,338.4,260.6,337,256.4,336.1z M310.9,339.1
	c-19.9,1.1-38.6-12.9-46.9-20.2c7.2-8.7,24.1-26.1,44.1-27.2c20-1.1,38.8,13.7,47,21.3C347.8,321.3,331,338,310.9,339.1z
	 M391.7,224.6c-3.2,10.6-11.7,32.6-29.6,41.9c-17.7,9.1-40.5,4-51.1,0.7c3-10.9,11.3-33.7,29.1-42.8
	C357.9,215.1,381.1,221,391.7,224.6z M394.9,185.8c-16.5,11.4-40.3,8.4-51.2,6.2c1.8-10.9,7.5-33.9,24.1-45.3
	c16.4-11.3,39.7-9,50.6-7.1C416.7,150.9,411.3,174.5,394.9,185.8z"/>
</svg>
