<?xml version="1.0" encoding="utf-8"?>
<!-- Generator: Adobe Illustrator 27.0.0, SVG Export Plug-In . SVG Version: 6.00 Build 0)  -->
<svg version="1.1" id="Capa_1" xmlns="http://www.w3.org/2000/svg" xmlns:xlink="http://www.w3.org/1999/xlink" x="0px" y="0px"
	 viewBox="0 0 512 512" style="enable-background:new 0 0 512 512;" xml:space="preserve">
<style type="text/css">
	.st0{fill:#FFFFFF;}
</style>
<path class="st0" d="M158.4,256.6c-2.3,0-4.4-1.5-5-3.9c-3.7-13.7-4.7-26.1-3-37c2.2-13.8,8.7-25.1,19.5-33.6
	c7.9-6.2,16.3-9.9,25-11c2.9-0.4,5.5,1.7,5.8,4.5c0.4,2.9-1.7,5.5-4.5,5.8c-6.8,0.8-13.4,3.8-19.8,8.8
	c-15.8,12.5-20.2,32.6-12.8,59.7c0.8,2.8-0.9,5.6-3.7,6.4C159.4,256.6,158.9,256.6,158.4,256.6z"/>
<path class="st0" d="M163.7,272.3c-2,0-3.9-1.2-4.8-3.1c0,0,0-0.1-0.1-0.1c-1.1-2.6,0.1-5.6,2.7-6.8c2.6-1.2,5.7,0,6.9,2.6
	c0,0,0,0.1,0.1,0.1c1.1,2.6-0.1,5.6-2.7,6.8C165.1,272.2,164.4,272.3,163.7,272.3z"/>
<path class="st0" d="M378.5,201.4c-3.8-16.7-12.5-30.6-25.9-41.2c-27.9-22-54.7-16.7-72.3-8.4c-8.2,3.9-15,8.7-20.2,12.9
	c5.5-21.2,22.7-36.2,34.9-36.9c2.9-0.2,5.1-2.6,4.9-5.5c-0.2-2.9-2.6-5.1-5.5-4.9c-10.3,0.6-21.9,7.5-31,18.5
	c-0.8,1-1.6,2.1-2.4,3.1c-0.6-0.9-1.2-1.9-1.9-3c-3.9-5.8-10.6-13.4-20.3-16.7c-9.9-3.4-19.6-1.7-26,0.2c-2.2,0.7-13.1,4.3-14.9,9.4
	c-1.6,4.8,3.8,13.4,5.7,16.1c-14.8-1.9-32.1,1.1-49.8,15.1c-13.5,10.6-22.2,24.5-25.9,41.2c-3.1,13.7-2.8,29.4,0.7,46.7
	c6.2,30.4,20.9,58.1,27.9,71.5l0.6,1.1c14.3,27.1,31,52.2,56.2,52.2c14.6,0,22.4-4.9,28.7-8.9c4.1-2.6,7.1-4.5,11.1-4.5h0.1
	c4,0,7,1.9,11.1,4.5c6.3,4,14.2,8.9,28.7,8.9c25.2,0,41.9-25.1,56.2-52.2l0.6-1.1c7-13.3,21.7-41.1,27.9-71.5
	C381.3,230.8,381.6,215.1,378.5,201.4z M248.9,166.9c-1.6-1.4-3.3-2.8-5.3-4.3c2.4-0.5,4.7-1.1,6.7-1.7
	C249.7,162.9,249.2,164.9,248.9,166.9z M235.4,129.2c9.9,3.4,16.1,13.7,18.6,18.9c-5.2,2.7-16.6,7-26.3,3.7
	c-10.6-3.6-17.3-14.4-19.2-19.2C212.9,129.9,224.8,125.5,235.4,129.2z M367.5,246c-5.9,28.9-20.1,55.8-26.9,68.7l-0.6,1.1
	c-12.8,24.2-27.3,46.6-47,46.6c-11.6,0-17.5-3.7-23.2-7.3c-4.7-3-9.7-6.1-16.7-6.1h-0.1c-7,0-12,3.1-16.7,6.1
	c-5.7,3.6-11.6,7.3-23.2,7.3c-19.7,0-34.2-22.4-47-46.6l-0.6-1.1c-6.8-12.9-21-39.8-26.9-68.7c-7.1-34.6,0.1-60.7,21.5-77.6
	c18.9-15,39.4-17.4,61-7.3c16.7,7.8,27.8,20.5,27.9,20.6c1,1.1,2.4,1.8,3.9,1.8h0.1c1.5,0,3-0.7,3.9-1.8c0.1-0.1,11-12.6,27.7-20.5
	c21.7-10.3,42.3-7.9,61.3,7.1C367.4,185.2,374.6,211.3,367.5,246z"/>
</svg>
