<?xml version="1.0" encoding="utf-8"?>
<!-- Generator: Adobe Illustrator 27.0.0, SVG Export Plug-In . SVG Version: 6.00 Build 0)  -->
<svg version="1.1" id="Layer_1" xmlns="http://www.w3.org/2000/svg" xmlns:xlink="http://www.w3.org/1999/xlink" x="0px" y="0px"
	 viewBox="0 0 50 50" style="enable-background:new 0 0 50 50;" xml:space="preserve">
<style type="text/css">
	.st0{fill:#FFFFFF;}
</style>
<g>
	<path class="st0" d="M29.5,42.5H14.7c-0.3,0-0.6-0.3-0.6-0.6V15.1c0-0.3,0.3-0.6,0.6-0.6h11.5c0.3,0,0.6,0.3,0.6,0.6
		s-0.3,0.6-0.6,0.6H15.3v25.5h13.5V15.1c0-0.3,0.3-0.6,0.6-0.6s0.6,0.3,0.6,0.6v26.7C30.1,42.2,29.8,42.5,29.5,42.5L29.5,42.5z"/>
	<path class="st0" d="M36.8,42.5h-7.4c-0.3,0-0.6-0.3-0.6-0.6V15.1c0-0.3,0.3-0.6,0.6-0.6s0.6,0.3,0.6,0.6v26.1h6.1V15.1
		c0-0.3,0.3-0.6,0.6-0.6s0.6,0.3,0.6,0.6v26.7C37.4,42.2,37.2,42.5,36.8,42.5L36.8,42.5z"/>
	<path class="st0" d="M33.1,16.4c0,0-0.1,0-0.1,0l-1.4-0.2c-0.3-0.1-0.6-0.4-0.5-0.7c0.1-0.3,0.4-0.6,0.7-0.5h0l1.2,0.2l2.7-0.5
		L33.1,10L30,15.5c-0.2,0.3-0.5,0.4-0.8,0.2c-0.3-0.2-0.4-0.5-0.2-0.8l3.7-6.4c0.1-0.2,0.3-0.3,0.5-0.3l0,0c0.2,0,0.4,0.1,0.5,0.3
		l3.7,6.4c0.2,0.3,0.1,0.7-0.2,0.8c-0.1,0-0.1,0.1-0.2,0.1l-3.7,0.6C33.2,16.4,33.2,16.4,33.1,16.4L33.1,16.4L33.1,16.4z"/>
	<path class="st0" d="M36.8,42.5c-0.1,0-0.3,0-0.4-0.1l-3.3-2.6l-3.3,2.6c-0.3,0.2-0.7,0.2-0.9-0.1c-0.2-0.3-0.2-0.7,0.1-0.9
		l3.7-2.8c0.2-0.2,0.5-0.2,0.8,0l3.7,2.8c0.3,0.2,0.3,0.6,0.1,0.9C37.2,42.4,37,42.5,36.8,42.5L36.8,42.5z"/>
	<path class="st0" d="M14.7,15.8c-0.1,0-0.2,0-0.3-0.1c-0.3-0.2-0.4-0.5-0.2-0.8l3.7-6.5c0.1-0.2,0.3-0.3,0.5-0.3h14.7
		c0.3,0,0.6,0.3,0.6,0.6c0,0.3-0.3,0.6-0.6,0.6H18.8l-3.5,6.1C15.2,15.7,15,15.8,14.7,15.8L14.7,15.8L14.7,15.8z"/>
	<path class="st0" d="M33.1,9.3H18.4c-0.3,0-0.6-0.3-0.6-0.6V5.9c0-0.3,0.3-0.6,0.6-0.6h14.7c0.3,0,0.6,0.3,0.6,0.6v2.8
		C33.8,9,33.5,9.3,33.1,9.3L33.1,9.3z M19,8.1h13.5V6.5H19V8.1z"/>
	<path class="st0" d="M23.6,13.7c-0.4,0-0.8-0.2-1.1-0.4c-0.7-0.8-0.6-2,0.2-2.7c0.7-0.8,1.9-0.9,2.7-0.2c0.7,0.8,0.6,2-0.2,2.7
		C24.8,13.5,24.2,13.7,23.6,13.7C23.6,13.7,23.6,13.7,23.6,13.7z M24.2,11.2c-0.2,0-0.5,0.1-0.7,0.3c-0.3,0.3-0.4,0.7-0.2,0.9
		c0.2,0.2,0.6,0.1,0.9-0.2c0.3-0.3,0.4-0.7,0.2-0.9C24.4,11.2,24.3,11.2,24.2,11.2L24.2,11.2L24.2,11.2z"/>
	<path class="st0" d="M26.7,24.9c-0.1,0-0.2,0-0.2,0l-11.9-5.3c-0.3-0.1-0.5-0.5-0.4-0.8c0.1-0.3,0.5-0.5,0.8-0.4c0,0,0,0,0.1,0
		l11.9,5.2c0.3,0.1,0.5,0.5,0.3,0.8C27.1,24.7,26.9,24.9,26.7,24.9L26.7,24.9L26.7,24.9z"/>
	<path class="st0" d="M27.2,39c-0.1,0-0.2,0-0.2,0l-12.5-5.5c-0.3-0.1-0.4-0.5-0.3-0.8c0.1-0.3,0.5-0.4,0.8-0.3l12.5,5.5
		c0.3,0.1,0.5,0.5,0.3,0.8C27.7,38.8,27.5,39,27.2,39L27.2,39L27.2,39z"/>
	<path class="st0" d="M33.1,39.6c-0.3,0-0.6-0.3-0.6-0.6V15.8c0-0.3,0.3-0.6,0.6-0.6s0.6,0.3,0.6,0.6V39
		C33.8,39.4,33.5,39.6,33.1,39.6L33.1,39.6z"/>
</g>
</svg>
