<?xml version="1.0" encoding="utf-8"?>
<!-- Generator: Adobe Illustrator 27.0.0, SVG Export Plug-In . SVG Version: 6.00 Build 0)  -->
<svg version="1.1" id="icons" xmlns="http://www.w3.org/2000/svg" xmlns:xlink="http://www.w3.org/1999/xlink" x="0px" y="0px"
	 viewBox="0 0 64 64" style="enable-background:new 0 0 64 64;" xml:space="preserve">
<style type="text/css">
	.st0{fill:#FFFFFF;}
</style>
<g id="pan">
	<path class="st0" d="M17.2,24.5c0.1,0,0.1,0,0.2,0L46.6,18c0.4-0.1,0.8-0.6,0.7-1c-0.1-0.2-0.2-0.4-0.4-0.6
		c-4.1-2.3-8.9-3.3-13.6-2.8c0.7-1.7-0.2-3.7-2-4.4c-0.6-0.2-1.3-0.2-1.9-0.2c-1.9,0.4-3,2.2-2.6,4c0.2,0.7,0.6,1.4,1.1,1.8
		c-4.4,1.7-8.2,4.6-11.1,8.2c-0.3,0.3-0.2,0.9,0.2,1.2C16.9,24.5,17.1,24.6,17.2,24.5L17.2,24.5z M29.5,10.8c0.2,0,0.3,0,0.4,0
		c0.9,0.1,1.7,1,1.5,1.9c-0.1,0.9-1,1.7-1.9,1.5c-0.9-0.2-1.7-1-1.5-1.9C28.1,11.5,28.8,10.9,29.5,10.8z M30.6,15.8L30.6,15.8
		c0.2,0,0.3-0.1,0.3-0.1c1.4-0.3,2.9-0.5,4.5-0.5c2.9,0,5.7,0.7,8.4,1.7l-24.3,5.4C22.6,19.3,26.4,16.9,30.6,15.8L30.6,15.8z"/>
	<path class="st0" d="M56.7,26.7c-0.3-0.3-0.8-0.3-1.2-0.1l-6.4,5.8c-0.5-1.9-1.3-3.8-2.2-5.6c-0.2-0.2-0.4-0.4-0.8-0.4H17.7h-0.1
		h-0.2c-0.1,0-0.1,0.1-0.2,0.1s-0.1,0.1-0.1,0.1c-0.1,0-0.1,0.1-0.1,0.2L17,26.8c-0.9,1.7-1.6,3.7-2.1,5.6l-6.4-5.7
		c-0.3-0.2-0.9-0.2-1.2,0.2c-0.3,0.3-0.3,0.8,0.1,1.1l7.1,6.4c-1.2,5.7-1.2,13.8,5.6,20.5h0.1c0.1,0.1,0.2,0.1,0.3,0.2
		c0.1,0.1,0.2,0.1,0.3,0.1h22.9c0.3,0,0.4-0.1,0.6-0.2c6.7-6.7,6.7-14.7,5.5-20.4l7.1-6.4C56.9,27.5,56.9,27,56.7,26.7z M43,53.3
		H20.8c-9.5-9.7-3.9-22.7-2.6-25.2h27.5C46.9,30.6,52.5,43.5,43,53.3L43,53.3z"/>
	<path class="st0" d="M46.4,22c-0.4,0.2-0.7,0.7-0.5,1.1c0.2,0.3,0.4,0.5,0.8,0.5c0.2,0,0.3,0,0.3-0.1c2.5-1.1,4-3.7,3.3-6.4
		c-0.1-0.2,0-0.5,0.2-0.7l0.1-0.1c1.6-2,1.3-4.8-0.6-6.5l-0.1-0.1c-0.3-0.2-0.9-0.2-1.2,0.2c-0.3,0.3-0.3,0.8,0,1.1l0.1,0.1
		c1.3,1.1,1.4,2.9,0.4,4.2l-0.1,0.1c-0.5,0.6-0.7,1.4-0.5,2.2C49.2,19.4,48.2,21.3,46.4,22z"/>
	<path class="st0" d="M42.9,32.3c-0.4,0.2-0.7,0.7-0.4,1.1c0,0.1,2.9,7.2,0,12.7c-0.2,0.4,0,0.9,0.4,1.1c0.1,0.1,0.3,0.1,0.3,0.1
		c0.3,0,0.6-0.2,0.8-0.4c3.2-6.2,0.2-13.7,0-14.1C43.7,32.4,43.3,32.2,42.9,32.3z"/>
</g>
</svg>
